<svg xmlns="http://www.w3.org/2000/svg" xmlns:xlink="http://www.w3.org/1999/xlink" width="310" height="167" viewBox="0 0 310 167">
  <defs>
    <clipPath id="clip-path">
      <rect id="Rectángulo_35800" data-name="Rectángulo 35800" width="100" height="100" fill="none"/>
    </clipPath>
  </defs>
  <g id="Grupo_83002" data-name="Grupo 83002" transform="translate(-180 -9681)">
    <rect id="Rectángulo_35787" data-name="Rectángulo 35787" width="310" height="167" transform="translate(180 9681)" fill="#dee4f0"/>
    <path id="Trazado_135501" data-name="Trazado 135501" d="M118.834,13.651h-5.361L112.269,17h-1.74l4.887-12.8h1.477l4.9,12.8h-1.731Zm-4.852-1.38h4.351l-2.18-5.985ZM124.793,7.49l.053,1.2a3.465,3.465,0,0,1,2.848-1.371q3.015,0,3.041,3.4V17h-1.626V10.707a2.189,2.189,0,0,0-.47-1.521,1.884,1.884,0,0,0-1.437-.492,2.347,2.347,0,0,0-1.389.422,2.865,2.865,0,0,0-.932,1.107V17h-1.626V7.49ZM139.058,17a3.416,3.416,0,0,1-.229-1,3.628,3.628,0,0,1-2.707,1.178,3.357,3.357,0,0,1-2.307-.8,2.573,2.573,0,0,1-.9-2.017,2.688,2.688,0,0,1,1.129-2.307,5.325,5.325,0,0,1,3.177-.822H138.8v-.747a1.826,1.826,0,0,0-.51-1.358,2.049,2.049,0,0,0-1.5-.505,2.371,2.371,0,0,0-1.459.439,1.3,1.3,0,0,0-.589,1.063h-1.635a2.244,2.244,0,0,1,.505-1.375,3.449,3.449,0,0,1,1.371-1.05,4.613,4.613,0,0,1,1.9-.387,3.759,3.759,0,0,1,2.575.822,2.964,2.964,0,0,1,.967,2.263v4.377a5.351,5.351,0,0,0,.334,2.083V17Zm-2.7-1.239a2.858,2.858,0,0,0,1.45-.4,2.392,2.392,0,0,0,.993-1.028V12.386h-1.274q-2.988,0-2.988,1.749a1.48,1.48,0,0,0,.51,1.2A1.959,1.959,0,0,0,136.36,15.761ZM144.745,17h-1.626V3.5h1.626Zm4.368,0h-1.626V7.49h1.626ZM147.355,4.968A.971.971,0,0,1,147.6,4.3a.907.907,0,0,1,.716-.272.922.922,0,0,1,.721.272.96.96,0,0,1,.246.668.929.929,0,0,1-.246.659.938.938,0,0,1-.721.264.924.924,0,0,1-.716-.264A.938.938,0,0,1,147.355,4.968Zm9.9,9.51a1.2,1.2,0,0,0-.5-1.024,4.78,4.78,0,0,0-1.731-.628,8.186,8.186,0,0,1-1.96-.633,2.788,2.788,0,0,1-1.072-.879,2.1,2.1,0,0,1-.347-1.213,2.467,2.467,0,0,1,.989-1.978,3.861,3.861,0,0,1,2.527-.809,3.974,3.974,0,0,1,2.624.835,2.652,2.652,0,0,1,1.006,2.136h-1.635a1.468,1.468,0,0,0-.567-1.151,2.124,2.124,0,0,0-1.428-.483,2.223,2.223,0,0,0-1.389.387,1.217,1.217,0,0,0-.5,1.011.986.986,0,0,0,.466.888,5.731,5.731,0,0,0,1.683.571,8.77,8.77,0,0,1,1.973.65,2.878,2.878,0,0,1,1.121.91,2.237,2.237,0,0,1,.365,1.3,2.434,2.434,0,0,1-1.02,2.043,4.277,4.277,0,0,1-2.646.769,4.789,4.789,0,0,1-2.021-.4,3.288,3.288,0,0,1-1.375-1.129,2.722,2.722,0,0,1-.5-1.569h1.626a1.683,1.683,0,0,0,.655,1.3,2.54,2.54,0,0,0,1.613.479,2.622,2.622,0,0,0,1.481-.374A1.148,1.148,0,0,0,157.251,14.478Zm5.95-9.29v2.3h1.775V8.747H163.2v5.9a1.32,1.32,0,0,0,.237.858,1,1,0,0,0,.809.286,3.937,3.937,0,0,0,.773-.105V17a4.742,4.742,0,0,1-1.248.175,2.025,2.025,0,0,1-1.644-.659,2.832,2.832,0,0,1-.554-1.872v-5.9h-1.731V7.49h1.731v-2.3ZM172.747,17a3.416,3.416,0,0,1-.229-1,3.628,3.628,0,0,1-2.707,1.178,3.357,3.357,0,0,1-2.307-.8,2.573,2.573,0,0,1-.9-2.017,2.688,2.688,0,0,1,1.129-2.307,5.325,5.325,0,0,1,3.177-.822h1.582v-.747a1.826,1.826,0,0,0-.51-1.358,2.049,2.049,0,0,0-1.5-.505,2.371,2.371,0,0,0-1.459.439,1.3,1.3,0,0,0-.589,1.063H166.8a2.244,2.244,0,0,1,.505-1.375,3.449,3.449,0,0,1,1.371-1.05,4.613,4.613,0,0,1,1.9-.387,3.759,3.759,0,0,1,2.575.822,2.964,2.964,0,0,1,.967,2.263v4.377a5.351,5.351,0,0,0,.334,2.083V17Zm-2.7-1.239a2.858,2.858,0,0,0,1.45-.4,2.392,2.392,0,0,0,.993-1.028V12.386h-1.274q-2.988,0-2.988,1.749a1.48,1.48,0,0,0,.51,1.2A1.959,1.959,0,0,0,170.048,15.761ZM182.2,14.478a1.2,1.2,0,0,0-.5-1.024,4.78,4.78,0,0,0-1.731-.628,8.186,8.186,0,0,1-1.96-.633,2.788,2.788,0,0,1-1.072-.879A2.1,2.1,0,0,1,176.6,10.1a2.467,2.467,0,0,1,.989-1.978,3.861,3.861,0,0,1,2.527-.809,3.974,3.974,0,0,1,2.624.835,2.652,2.652,0,0,1,1.006,2.136h-1.635a1.468,1.468,0,0,0-.567-1.151,2.124,2.124,0,0,0-1.428-.483,2.223,2.223,0,0,0-1.389.387,1.217,1.217,0,0,0-.5,1.011.986.986,0,0,0,.466.888,5.731,5.731,0,0,0,1.683.571,8.77,8.77,0,0,1,1.973.65,2.878,2.878,0,0,1,1.121.91,2.237,2.237,0,0,1,.365,1.3,2.434,2.434,0,0,1-1.02,2.043,4.277,4.277,0,0,1-2.646.769,4.789,4.789,0,0,1-2.021-.4,3.288,3.288,0,0,1-1.375-1.129,2.722,2.722,0,0,1-.5-1.569H177.9a1.683,1.683,0,0,0,.655,1.3,2.54,2.54,0,0,0,1.613.479,2.622,2.622,0,0,0,1.481-.374A1.148,1.148,0,0,0,182.2,14.478Z" transform="translate(180 9821)" fill="#12263f"/>
    <g id="Capa_1" data-name="Capa 1" transform="translate(285 9694)">
      <rect id="Rectángulo_35797" data-name="Rectángulo 35797" width="100" height="100" fill="#104c82"/>
      <g id="Grupo_82999" data-name="Grupo 82999" clip-path="url(#clip-path)">
        <g id="Grupo_82998" data-name="Grupo 82998">
          <g id="Grupo_82984" data-name="Grupo 82984">
            <g id="Grupo_82982" data-name="Grupo 82982">
              <path id="Trazado_135390" data-name="Trazado 135390" d="M11,67.18l5.13,18.64,2.27,9.92c0,8.54-2.27,12.43-2.27,12.43l34.94-1.74s.58-23.64,0-28.11L46.84,62.83,35.76,60.11l-13.84.27Z" fill="#71d9e7"/>
              <path id="Trazado_135391" data-name="Trazado 135391" d="M59,93.39a2.27,2.27,0,0,1-.13-.92,6.34,6.34,0,0,1,1.53-4.15c.38-.43.68-.64.7-.61a10.63,10.63,0,0,0-1.58,2.64A11,11,0,0,0,59,93.39Z" fill="#0b3360"/>
              <path id="Trazado_135392" data-name="Trazado 135392" d="M69.66,81.12l-9.08,5.42L55.43,73.35a61.859,61.859,0,0,0-3-5.66c-3-5.29-6.84-5-6.84-5L41,69.54,45.9,80s3,19.47,8.77,21c8.83,2.3,15-19.91,15-19.91Z" fill="#71d9e7"/>
            </g>
            <g id="Grupo_82983" data-name="Grupo 82983" opacity="0.3">
              <path id="Trazado_135393" data-name="Trazado 135393" d="M13,119.84c4.11-.16,8.38-1.91,11.92-4s6.74-4.71,10.08-7.12c8-5.77,23.86-18.42,31.27-24.92l-2.15.49-49.9,32.28Z"/>
            </g>
            <path id="Trazado_135394" data-name="Trazado 135394" d="M51.2,101.19a1.55,1.55,0,0,1,0-.34c0-.26,0-.59,0-1V96.22c0-3.1,0-7.32.06-12v-3.4a20.23,20.23,0,0,0-.43-3.12,16.26,16.26,0,0,0-2.15-4.87c-.78-1.31-1.4-2.39-1.77-3.17-.19-.39-.32-.69-.4-.9a1.89,1.89,0,0,1-.11-.33,1.49,1.49,0,0,1,.16.3c.1.2.25.5.45.88.4.75,1,1.81,1.85,3.11A16.06,16.06,0,0,1,51,77.67a19.55,19.55,0,0,1,.45,3.16c.08,1.11,0,2.26,0,3.43-.06,4.66-.11,8.87-.15,12,0,1.5-.06,2.73-.08,3.63v1a1.73,1.73,0,0,1-.02.3Z" fill="#0b3360"/>
          </g>
          <g id="Grupo_82990" data-name="Grupo 82990">
            <path id="Trazado_135395" data-name="Trazado 135395" d="M47.83,46.78a2.35,2.35,0,0,1-2.2-1,2.77,2.77,0,0,0,1.69-.09.96.96,0,0,0,.4-1.42c-.4-.42-.83-.27-1.28-.3a2.77,2.77,0,0,1-2.34-1.8,7.69,7.69,0,0,1,.11-3.4,9.37,9.37,0,0,0-3.93-8.65L33.15,26a16.12,16.12,0,0,0-2.86,12,31.21,31.21,0,0,0,4.43,11.71,14.07,14.07,0,0,0,2.15,3,5.59,5.59,0,0,0,3.21,1.64,3.31,3.31,0,0,0-.53-3,7.17,7.17,0,0,0,5.31-1.9l-1.53-1.17a5.6,5.6,0,0,0,4.5-1.5Z" fill="#0b3360"/>
            <g id="Grupo_82986" data-name="Grupo 82986">
              <g id="Grupo_82985" data-name="Grupo 82985">
                <path id="Trazado_135396" data-name="Trazado 135396" d="M20.34,35.14a6.69,6.69,0,0,1,4.85-6.3l9-2.55c3.88-.54,6.62,4.18,7,8.08a62.09,62.09,0,0,1,.29,12.17c-.83,6.55-5.8,7.53-5.8,7.53s.09,3,.14,4.88l-.09,14.53L22.47,59.22l-2.15-24C20.31,35.11,20.33,35.29,20.34,35.14Z" fill="#c17560"/>
                <path id="Trazado_135397" data-name="Trazado 135397" d="M40,39.35a.85.85,0,0,1-.78.87.81.81,0,0,1-.89-.73.84.84,0,0,1,.78-.87.81.81,0,0,1,.89.73Z" fill="#0b3360"/>
                <path id="Trazado_135398" data-name="Trazado 135398" d="M40.22,37c-.1.12-.75-.33-1.65-.3s-1.54.5-1.64.39,0-.25.33-.47a2.31,2.31,0,0,1,1.31-.44,2.14,2.14,0,0,1,1.32.38C40.17,36.71,40.27,36.9,40.22,37Z" fill="#0b3360"/>
                <path id="Trazado_135399" data-name="Trazado 135399" d="M32.12,39.36a.84.84,0,0,1-.78.87.79.79,0,0,1-.88-.73.82.82,0,0,1,.77-.86.8.8,0,0,1,.89.72Z" fill="#0b3360"/>
                <path id="Trazado_135400" data-name="Trazado 135400" d="M31.68,37.2c-.1.11-.75-.34-1.65-.31s-1.54.5-1.64.39.05-.24.33-.46A2.24,2.24,0,0,1,30,36.37a2.2,2.2,0,0,1,1.32.38C31.63,37,31.73,37.15,31.68,37.2Z" fill="#0b3360"/>
                <path id="Trazado_135401" data-name="Trazado 135401" d="M34.69,44.18a6.46,6.46,0,0,1,1.46-.31c.23,0,.44-.08.47-.24a1.12,1.12,0,0,0-.17-.67l-.73-1.73a30.2,30.2,0,0,1-1.67-4.53,29.83,29.83,0,0,1,2,4.38c.24.61.48,1.19.7,1.74a1.29,1.29,0,0,1,.15.9.61.61,0,0,1-.37.35,1.43,1.43,0,0,1-.39.06,5.83,5.83,0,0,1-1.45.05Z" fill="#0b3360"/>
                <path id="Trazado_135402" data-name="Trazado 135402" d="M26.91,52s2.25,4.42,8.75,3.61V54.07A16.37,16.37,0,0,1,26.91,52Z" fill="#7c4236"/>
                <path id="Trazado_135403" data-name="Trazado 135403" d="M31.31,34.3c-.09.24-1,.16-2,.32s-1.89.47-2,.25.07-.33.41-.58a3.57,3.57,0,0,1,3.11-.44C31.14,34,31.34,34.18,31.31,34.3Z" fill="#0b3360"/>
                <path id="Trazado_135404" data-name="Trazado 135404" d="M39.85,34.21c-.15.21-.78,0-1.52,0s-1.38.18-1.53,0,0-.31.3-.51a2.21,2.21,0,0,1,2.45,0C39.82,33.9,39.92,34.11,39.85,34.21Z" fill="#0b3360"/>
              </g>
              <path id="Trazado_135405" data-name="Trazado 135405" d="M31.32,45.94A1.17,1.17,0,0,1,32.51,45a1.22,1.22,0,0,1,1,.65,1.53,1.53,0,0,1,.09,1.17v.08a1.34,1.34,0,0,1-1.49.37A1.26,1.26,0,0,1,31.32,45.94Z" fill="#7c4236"/>
              <path id="Trazado_135406" data-name="Trazado 135406" d="M34.19,46.91c0-.13-.91-.06-1.61-.79s-.69-1.7-.81-1.7-.16.23-.14.64a2.27,2.27,0,0,0,.62,1.42,2,2,0,0,0,1.35.61C34,47.09,34.2,47,34.19,46.91Z" fill="#0b3360"/>
            </g>
            <path id="Trazado_135407" data-name="Trazado 135407" d="M23.35,24.76a9,9,0,0,1,5.24-3.59,4.94,4.94,0,0,1,4.8,1.26,5.34,5.34,0,0,0,2.1,1.25,9,9,0,0,1,3.09.65c1.65.85,2.38,3.06,3.15,4.76,1,2.11,2.31,4.05,2.94,6.28s.29,5-1.59,6.32c.36-1.9.65-4-.39-5.65-.8-1.24-2.22-1.93-3.24-3-1.23-1.28-1.39-3-2.69-4.23-2.94-2.8-8.14,2.13-13.41-4" fill="#0b3360"/>
            <path id="Trazado_135408" data-name="Trazado 135408" d="M42.09,33.67a19.23,19.23,0,0,0-2.91-5.27,10.24,10.24,0,0,0-13.62-1.74h-.51a8.64,8.64,0,0,0,6.72,3.24c1.53,0,3.19-.4,4.51.39s1.74,2.34,2.78,3.39c.71.71,1.66,1.14,2.34,1.87a7.65,7.65,0,0,1,1.45,2.82C43.31,36.84,42.71,35.18,42.09,33.67Z" fill="#0b3360"/>
            <path id="Trazado_135409" data-name="Trazado 135409" d="M28.38,27.93,24.2,24.26c-3.26-.17-5.35,2.91-6.47,5.28A50.839,50.839,0,0,0,16,35.13c-.64,1.9-1.67,3.66-2.26,5.57a6.74,6.74,0,0,0,.49,5.78c.25-.44.49-.89.73-1.33a8.1,8.1,0,0,0,2.19,5c.1-.47.19-.93.28-1.4a7.87,7.87,0,0,0,3.15,3.39l1.95,5.23C25.44,48.56,18,47.9,28.38,27.93Z" fill="#0b3360"/>
            <path id="Trazado_135410" data-name="Trazado 135410" d="M27.78,28.7a19.13,19.13,0,0,1-1,3.5,6.74,6.74,0,0,1-2.15,2.87c-1.43,1-3.27,1.25-5,1.67s-3.55,1.2-4.25,2.82a41,41,0,0,1,1.46-7c.77-2.52,1.87-5.09,4-6.68a7.26,7.26,0,0,1,6.86-1" fill="#0b3360"/>
            <g id="Grupo_82989" data-name="Grupo 82989">
              <g id="Grupo_82987" data-name="Grupo 82987">
                <path id="Trazado_135411" data-name="Trazado 135411" d="M23.33,40.21c-.08-.22-4.14-1.55-4.07,2.72s4.23,3.21,4.23,3.09S23.33,40.21,23.33,40.21Z" fill="#c17560"/>
                <path id="Trazado_135412" data-name="Trazado 135412" d="M22.18,44.47a1.552,1.552,0,0,1-.19.11.69.69,0,0,1-.54,0A1.79,1.79,0,0,1,20.59,43a2.47,2.47,0,0,1,.18-1,.88.88,0,0,1,.54-.57.38.38,0,0,1,.43.19c.05.12,0,.2.05.21s.09-.07.05-.24a.45.45,0,0,0-.17-.26.53.53,0,0,0-.4-.1,1,1,0,0,0-.74.66A2.44,2.44,0,0,0,20.3,43a1.9,1.9,0,0,0,1.09,1.77.78.78,0,0,0,.66-.12C22.18,44.57,22.2,44.48,22.18,44.47Z" fill="#7c4236"/>
              </g>
              <g id="Grupo_82988" data-name="Grupo 82988">
                <path id="Trazado_135413" data-name="Trazado 135413" d="M21.73,45.22a.82.82,0,1,0,.64,1.08.85.85,0,0,0-.44-1" fill="#fff"/>
                <path id="Trazado_135414" data-name="Trazado 135414" d="M21.93,45.27a.907.907,0,0,1,.39.55.7.7,0,0,1-.15.65.72.72,0,0,1-1.28-.37.69.69,0,0,1,.22-.63,1.13,1.13,0,0,1,.62-.25h-.19a.85.85,0,0,0-.83,1,.93.93,0,0,0,.64.77,1,1,0,0,0,1-.31.88.88,0,0,0-.2-1.25C22,45.27,21.93,45.26,21.93,45.27Z" fill="#0b3360"/>
              </g>
            </g>
            <path id="Trazado_135415" data-name="Trazado 135415" d="M28.05,29a12.62,12.62,0,0,0-1.62-2.67,11.88,11.88,0,0,0-2.44-2,2.38,2.38,0,0,1,.88.35,6.83,6.83,0,0,1,2.95,3.38,2.29,2.29,0,0,1,.23.94Z" fill="#375a64"/>
          </g>
          <g id="Grupo_82996" data-name="Grupo 82996">
            <g id="Grupo_82993" data-name="Grupo 82993">
              <path id="Trazado_135416" data-name="Trazado 135416" d="M135.31,35.73A37.26,37.26,0,1,0,138.73,64a37.26,37.26,0,0,0-3.42-28.27ZM111.94,21.55a33.48,33.48,0,1,1-9.09-1.25,34.06,34.06,0,0,1,9.09,1.25Z" fill="#0b3360"/>
              <path id="Trazado_135417" data-name="Trazado 135417" d="M74.31,65.75a1.851,1.851,0,0,1-.14-.28l-.38-.81c-.16-.35-.35-.79-.53-1.31s-.42-1.1-.59-1.78l-.29-1c-.1-.37-.16-.76-.25-1.16-.19-.79-.29-1.66-.42-2.57a32.791,32.791,0,0,1-.08-6,33.24,33.24,0,0,1,1.12-5.87c.29-.87.54-1.71.86-2.46.16-.38.29-.75.45-1.1s.32-.67.47-1c.29-.64.62-1.17.89-1.65a13.889,13.889,0,0,1,.75-1.2l.51-.73a1.31,1.31,0,0,1,.2-.25.519.519,0,0,1-.15.28l-.46.76c-.2.33-.45.73-.7,1.22s-.57,1-.84,1.66q-.23.48-.45,1c-.16.34-.28.71-.43,1.09-.31.75-.55,1.58-.83,2.45a33.67,33.67,0,0,0-1.08,5.82,34.151,34.151,0,0,0,0,5.92c.12.9.21,1.76.39,2.56.08.39.14.78.23,1.15s.18.71.27,1c.16.68.38,1.26.54,1.78a13.7,13.7,0,0,0,.48,1.33l.32.83A1,1,0,0,1,74.31,65.75Z" fill="#0b3360"/>
              <path id="Trazado_135418" data-name="Trazado 135418" d="M79.42,72.11a2.26,2.26,0,0,1-1.21-.71c-.58-.54-.88-1.11-.81-1.15s.47.42,1,.92S79.46,72,79.42,72.11Z" fill="#0b3360"/>
              <g id="Grupo_82992" data-name="Grupo 82992">
                <g id="Grupo_82991" data-name="Grupo 82991">
                  <path id="Trazado_135419" data-name="Trazado 135419" d="M69.15,35.44a36.68,36.68,0,1,1,51.27,47.43h0A36.67,36.67,0,0,1,69.15,35.44Zm64.26,29.93a34.2,34.2,0,1,0-14.2,15.36,34.2,34.2,0,0,0,14.2-15.36Z" fill="#375a64"/>
                  <path id="Trazado_135420" data-name="Trazado 135420" d="M102.45,88.21a37.3,37.3,0,1,1,18.26-4.83,37.3,37.3,0,0,1-18.26,4.83Zm-.11-73.4a36.13,36.13,0,1,0,9.74,1.33A36.53,36.53,0,0,0,102.34,14.81Zm.11,70.94a35.211,35.211,0,0,1-9.4-1.29,34.824,34.824,0,1,1,40.89-18.85h0a34.83,34.83,0,0,1-31.49,20.14Zm-.11-68.49a33.66,33.66,0,1,0,30.54,47.86h0a33.76,33.76,0,0,0-1.19-30.73,33.38,33.38,0,0,0-20.27-15.88,34,34,0,0,0-9.08-1.25Z" fill="#375a64"/>
                </g>
                <path id="Trazado_135421" data-name="Trazado 135421" d="M0,120l-.66-1c-1.41-2.24.19-5.79,1.75-6.77L70.3,68.44c.35-.22.88,0,1.2.51l4.64,7.34a1,1,0,0,1-.06,1.31L7.26,121C5.7,122,1.4,122.19,0,120Z" fill="#375a64"/>
              </g>
            </g>
            <g id="Grupo_82994" data-name="Grupo 82994">
              <path id="Trazado_135422" data-name="Trazado 135422" d="M64.48,85.2l2.1-2.2s-.25-5.07.61-6.3l.45-.75s-.45-2.46.88-3c.37-.93.86-1.31,1.51-.79,0,0-.37-1.85,1.36-2.1s2.22,7.59,2.22,7.59.87,3.52-1.11,3.52a4.4,4.4,0,0,1-2.34,1.36s-.37,2.1-2.1,2Z" fill="#c17560"/>
              <path id="Trazado_135423" data-name="Trazado 135423" d="M69.9,81.57a.589.589,0,0,1,.19.25,1.36,1.36,0,0,1,.1.87,1.9,1.9,0,0,1-.65,1.12,3.88,3.88,0,0,1-1.37.76,9.64,9.64,0,0,1-2.76.54,3.09,3.09,0,0,1-1.16-.06,18.17,18.17,0,0,0,3.82-.74,4,4,0,0,0,1.31-.69,1.83,1.83,0,0,0,.62-1,1.79,1.79,0,0,0-.1-1.05Z" fill="#7c4236"/>
              <path id="Trazado_135424" data-name="Trazado 135424" d="M71.43,78.78c-.08,0-.09-1.57-.47-3.46s-1-3.36-.88-3.39a3.68,3.68,0,0,1,.46.93,15,15,0,0,1,.69,2.4,14.35,14.35,0,0,1,.27,2.49A3,3,0,0,1,71.43,78.78Z" fill="#7c4236"/>
              <path id="Trazado_135425" data-name="Trazado 135425" d="M69.94,79.65c-.08,0-.23-1.54-.63-3.39s-.87-3.33-.79-3.36a12.35,12.35,0,0,1,1.06,3.3,12.24,12.24,0,0,1,.36,3.45Z" fill="#7c4236"/>
              <path id="Trazado_135426" data-name="Trazado 135426" d="M72.7,79.59a1.012,1.012,0,0,1,.15,1c-.17.56-.63.91-.66.84a8.3,8.3,0,0,0,.4-.91C72.72,80,72.63,79.61,72.7,79.59Z" fill="#7c4236"/>
              <path id="Trazado_135427" data-name="Trazado 135427" d="M67.87,79.94A10.83,10.83,0,0,1,67.71,78a11.879,11.879,0,0,1-.08-1.92A4.93,4.93,0,0,1,68,78,5.41,5.41,0,0,1,67.87,79.94Z" fill="#7c4236"/>
            </g>
            <path id="Trazado_135428" data-name="Trazado 135428" d="M21.71,98.2a6.26,6.26,0,0,1,2-1.86c1.38-.81,4.13-1.13,4.65-2.06s1.37,0,.91,1.21A12.75,12.75,0,0,1,27,98a5.09,5.09,0,0,0,3.2.33c1.4-.5,6.06-1,6.42-.29s-.8.82-1.34,1-3.63,1.06-3.63,1.06,5.89.87,6.57,1.29-.2,1-.57,1a9.669,9.669,0,0,0-2.23,1.21,2.68,2.68,0,0,1-1.91.38l-1.36-.23,4,1.2s.59.78-.46.94c-.47.07-13.32-.43-14.3-.55C19.77,105.1,17,105,17,105l2.11-7.67Z" fill="#c17560"/>
            <path id="Trazado_135429" data-name="Trazado 135429" d="M11.56,94.29l5.88-12.13-5.2-15.74a10.58,10.58,0,0,0-3.91,3.39c-1.85,2.52-3.85,7.86-3.85,7.86S-1.93,92.34-3,94.53s-2.75,6.24,0,8.51,21.21,2.35,21.21,2.35l2-8.16Z" fill="#71d9e7"/>
            <path id="Trazado_135430" data-name="Trazado 135430" d="M12.25,74.65c.08,0,1.45,4.08,3.07,9.16S18.18,93,18.1,93.06,16.64,89,15,83.9,12.17,74.68,12.25,74.65Z" fill="#0b3360"/>
            <path id="Trazado_135431" data-name="Trazado 135431" d="M20.18,97.23a2.83,2.83,0,0,1-.69-.15l-1.83-.51c-1.54-.44-3.67-1.08-6-1.7a24.44,24.44,0,0,0-6.13-1,7.67,7.67,0,0,0-2.52.5A2.49,2.49,0,0,1,3.6,94a5.59,5.59,0,0,1,1.88-.38,21.83,21.83,0,0,1,6.22.94c2.38.63,4.49,1.3,6,1.79l1.81.61a3.619,3.619,0,0,1,.67.27Z" fill="#0b3360"/>
            <g id="Grupo_82995" data-name="Grupo 82995" opacity="0.3">
              <path id="Trazado_135432" data-name="Trazado 135432" d="M13.59,78.66a59.72,59.72,0,0,0,.53,10.26l1.65-3.31a49.879,49.879,0,0,0-2.09-6.73"/>
            </g>
          </g>
          <g id="Grupo_82997" data-name="Grupo 82997">
            <rect id="Rectángulo_35798" data-name="Rectángulo 35798" width="7.64" height="12.5" transform="translate(85.07 55.04)" fill="#71d9e7"/>
            <rect id="Rectángulo_35799" data-name="Rectángulo 35799" width="7.64" height="19.29" transform="translate(96.88 48.25)" fill="#71d9e7"/>
            <path id="Trazado_135433" data-name="Trazado 135433" d="M113.82,29.74a2,2,0,0,1-.19.25l-.56.67-2.16,2.47-7.49,8.44-.08.1-.11-.07-4.69-3.06h.2l-.18.21-9.91,11.6-.06.07-.08-.06L84.78,47.6l-1-.77a2.47,2.47,0,0,1-.33-.28,2.67,2.67,0,0,1,.37.23l1,.72,3.78,2.69h-.14L98.3,38.5l.18-.21.09-.1.11.07,4.68,3.07h-.19l7.6-8.33L113,30.59l.61-.64Z" fill="#0b3360"/>
          </g>
        </g>
      </g>
    </g>
  </g>
</svg>
