<svg xmlns="http://www.w3.org/2000/svg" xmlns:xlink="http://www.w3.org/1999/xlink" width="310" height="167" viewBox="0 0 310 167">
  <defs>
    <clipPath id="clip-path">
      <rect id="Rectángulo_35792" data-name="Rectángulo 35792" width="100" height="100" fill="none"/>
    </clipPath>
  </defs>
  <g id="Grupo_83004" data-name="Grupo 83004" transform="translate(-800 -9681)">
    <rect id="Rectángulo_35790" data-name="Rectángulo 35790" width="310" height="167" transform="translate(800 9681)" fill="#dee4f0"/>
    <path id="Trazado_135503" data-name="Trazado 135503" d="M114.381,11.99V17h-1.687V4.2h4.72A4.742,4.742,0,0,1,120.7,5.275,3.635,3.635,0,0,1,121.9,8.114a3.587,3.587,0,0,1-1.165,2.87A4.954,4.954,0,0,1,117.4,11.99Zm0-1.38h3.032a3.032,3.032,0,0,0,2.074-.638,2.334,2.334,0,0,0,.721-1.845,2.411,2.411,0,0,0-.721-1.831,2.84,2.84,0,0,0-1.978-.713h-3.129Zm14.01-1.661a4.873,4.873,0,0,0-.8-.062,2.143,2.143,0,0,0-2.171,1.362V17h-1.626V7.49h1.582l.026,1.1a2.532,2.532,0,0,1,2.268-1.274,1.661,1.661,0,0,1,.721.123Zm.888,3.208a5.617,5.617,0,0,1,.549-2.514,4.1,4.1,0,0,1,1.529-1.723,4.163,4.163,0,0,1,2.237-.606,4.01,4.01,0,0,1,3.142,1.345,5.174,5.174,0,0,1,1.2,3.577v.114a5.666,5.666,0,0,1-.532,2.492,4.038,4.038,0,0,1-1.521,1.718,4.211,4.211,0,0,1-2.272.615,4,4,0,0,1-3.133-1.345,5.147,5.147,0,0,1-1.2-3.56Zm1.635.193a4.068,4.068,0,0,0,.734,2.54,2.487,2.487,0,0,0,3.933-.013,4.449,4.449,0,0,0,.729-2.72,4.061,4.061,0,0,0-.743-2.536,2.361,2.361,0,0,0-1.973-.971,2.335,2.335,0,0,0-1.942.958A4.416,4.416,0,0,0,130.913,12.351Zm17.112,0a5.654,5.654,0,0,1-1,3.5,3.2,3.2,0,0,1-2.689,1.323,3.315,3.315,0,0,1-2.786-1.274l-.079,1.1h-1.494V3.5H141.6V8.536a3.3,3.3,0,0,1,2.716-1.222,3.221,3.221,0,0,1,2.72,1.31,5.824,5.824,0,0,1,.989,3.586Zm-1.626-.185a4.394,4.394,0,0,0-.642-2.566,2.124,2.124,0,0,0-1.846-.905,2.387,2.387,0,0,0-2.312,1.494V14.3A2.454,2.454,0,0,0,143.93,15.8a2.112,2.112,0,0,0,1.819-.905A4.672,4.672,0,0,0,146.4,12.166ZM155.944,17a3.416,3.416,0,0,1-.229-1,3.628,3.628,0,0,1-2.707,1.178,3.357,3.357,0,0,1-2.307-.8,2.573,2.573,0,0,1-.9-2.017,2.688,2.688,0,0,1,1.129-2.307,5.325,5.325,0,0,1,3.177-.822h1.582v-.747a1.826,1.826,0,0,0-.51-1.358,2.049,2.049,0,0,0-1.5-.505,2.371,2.371,0,0,0-1.459.439,1.3,1.3,0,0,0-.589,1.063h-1.635a2.244,2.244,0,0,1,.505-1.375,3.449,3.449,0,0,1,1.371-1.05,4.613,4.613,0,0,1,1.9-.387,3.759,3.759,0,0,1,2.575.822,2.964,2.964,0,0,1,.967,2.263v4.377a5.351,5.351,0,0,0,.334,2.083V17Zm-2.7-1.239a2.858,2.858,0,0,0,1.45-.4,2.392,2.392,0,0,0,.993-1.028V12.386h-1.274q-2.988,0-2.988,1.749a1.48,1.48,0,0,0,.51,1.2A1.959,1.959,0,0,0,153.246,15.761Zm6.223-3.595a5.571,5.571,0,0,1,1.037-3.52,3.529,3.529,0,0,1,5.361-.189V3.5h1.626V17H166l-.079-1.02a3.311,3.311,0,0,1-2.716,1.2,3.248,3.248,0,0,1-2.694-1.354,5.634,5.634,0,0,1-1.042-3.533Zm1.626.185a4.218,4.218,0,0,0,.668,2.531,2.159,2.159,0,0,0,1.846.914,2.372,2.372,0,0,0,2.259-1.389V10.039a2.39,2.39,0,0,0-2.241-1.345,2.17,2.17,0,0,0-1.863.923A4.644,4.644,0,0,0,161.095,12.351Zm8.49-.193a5.617,5.617,0,0,1,.549-2.514,4.1,4.1,0,0,1,1.529-1.723,4.163,4.163,0,0,1,2.237-.606,4.01,4.01,0,0,1,3.142,1.345,5.174,5.174,0,0,1,1.2,3.577v.114a5.666,5.666,0,0,1-.532,2.492,4.038,4.038,0,0,1-1.521,1.718,4.211,4.211,0,0,1-2.272.615,4,4,0,0,1-3.133-1.345,5.147,5.147,0,0,1-1.2-3.56Zm1.635.193a4.068,4.068,0,0,0,.734,2.54,2.487,2.487,0,0,0,3.933-.013,4.449,4.449,0,0,0,.729-2.72,4.061,4.061,0,0,0-.743-2.536A2.361,2.361,0,0,0,173.9,8.65a2.335,2.335,0,0,0-1.942.958A4.416,4.416,0,0,0,171.22,12.351Zm13.658-3.4a4.873,4.873,0,0,0-.8-.062,2.143,2.143,0,0,0-2.171,1.362V17h-1.626V7.49h1.582l.026,1.1a2.532,2.532,0,0,1,2.268-1.274,1.661,1.661,0,0,1,.721.123Zm5.273,8.227A4.155,4.155,0,0,1,187,15.906a4.714,4.714,0,0,1-1.213-3.4v-.3a5.707,5.707,0,0,1,.541-2.527,4.217,4.217,0,0,1,1.512-1.74,3.8,3.8,0,0,1,2.1-.628,3.562,3.562,0,0,1,2.883,1.222,5.289,5.289,0,0,1,1.028,3.5v.677h-6.442a3.38,3.38,0,0,0,.822,2.272,2.583,2.583,0,0,0,2,.866A2.832,2.832,0,0,0,191.7,15.5a3.666,3.666,0,0,0,1.046-.932l.993.773A3.993,3.993,0,0,1,190.151,17.176Zm-.2-8.525a2.169,2.169,0,0,0-1.652.716,3.482,3.482,0,0,0-.826,2.008h4.764v-.123a3.1,3.1,0,0,0-.668-1.92A2.042,2.042,0,0,0,189.949,8.65Zm11.329,5.827a1.2,1.2,0,0,0-.5-1.024,4.78,4.78,0,0,0-1.731-.628,8.186,8.186,0,0,1-1.96-.633,2.788,2.788,0,0,1-1.072-.879,2.1,2.1,0,0,1-.347-1.213,2.467,2.467,0,0,1,.989-1.978,3.861,3.861,0,0,1,2.527-.809,3.974,3.974,0,0,1,2.624.835,2.652,2.652,0,0,1,1.006,2.136h-1.635a1.468,1.468,0,0,0-.567-1.151,2.124,2.124,0,0,0-1.428-.483,2.223,2.223,0,0,0-1.389.387,1.217,1.217,0,0,0-.5,1.011.986.986,0,0,0,.466.888,5.731,5.731,0,0,0,1.683.571,8.77,8.77,0,0,1,1.973.65,2.878,2.878,0,0,1,1.121.91,2.237,2.237,0,0,1,.365,1.3,2.434,2.434,0,0,1-1.02,2.043,4.277,4.277,0,0,1-2.646.769,4.789,4.789,0,0,1-2.021-.4,3.288,3.288,0,0,1-1.375-1.129,2.722,2.722,0,0,1-.5-1.569h1.626a1.683,1.683,0,0,0,.655,1.3,2.54,2.54,0,0,0,1.613.479,2.622,2.622,0,0,0,1.481-.374A1.148,1.148,0,0,0,201.278,14.478Z" transform="translate(790 9821)" fill="#12263f"/>
    <g id="Capa_1" data-name="Capa 1" transform="translate(905 9694)">
      <rect id="Rectángulo_35791" data-name="Rectángulo 35791" width="100" height="100" fill="#104c82"/>
      <g id="Grupo_82948" data-name="Grupo 82948" clip-path="url(#clip-path)">
        <g id="Grupo_82947" data-name="Grupo 82947">
          <g id="Grupo_82927" data-name="Grupo 82927">
            <path id="Trazado_135238" data-name="Trazado 135238" d="M39,64.09a23.33,23.33,0,0,0-4.33-5.77c-4.75-4.27-12.89-5.54-19.81-4C9.48,55.5,4.44,58.5,3,62.75a14.19,14.19,0,0,0-.29,5.91c1.3,12.92,7.76,36.36,8,36.91l43.59-.18A126.82,126.82,0,0,0,39,64.09Z" fill="#375a64"/>
            <path id="Trazado_135239" data-name="Trazado 135239" d="M54.36,105.39a1.236,1.236,0,0,0-.07-.33l-.2-1c-.09-.43-.18-1-.32-1.59s-.29-1.34-.47-2.15a125.145,125.145,0,0,0-3.89-13.51,131.339,131.339,0,0,0-8.46-19l-.71-1.3-.74-1.3c-.5-.87-1-1.76-1.55-2.63a17.53,17.53,0,0,0-4.05-4.73,5.93,5.93,0,0,0-.64-.48l-.66-.45c-.47-.26-.92-.57-1.41-.79l-.73-.36-.76-.31-.37-.16-.39-.13-.78-.27a26.25,26.25,0,0,0-6.58-1.09,27.86,27.86,0,0,0-6.66.6,22.54,22.54,0,0,0-6.07,2.24,16.35,16.35,0,0,0-2.6,1.78,11.85,11.85,0,0,0-2.09,2.28c-.13.22-.28.43-.4.65L3.41,62l-.27.7a6.52,6.52,0,0,0-.21.72,10.86,10.86,0,0,0-.27,2.94,27.66,27.66,0,0,0,.23,2.9c.12.95.21,1.88.36,2.8.26,1.84.57,3.62.88,5.34.62,3.44,1.31,6.62,2,9.52,1.3,5.79,2.49,10.45,3.33,13.67.42,1.61.76,2.85,1,3.69l.27,1c.07.21.1.33.1.33l-.12-.32-.28-1c-.24-.84-.59-2.08-1-3.69C8.49,97.39,7.29,92.74,6,86.94c-.65-2.9-1.34-6.08-2-9.51-.32-1.72-.63-3.5-.89-5.35-.15-.92-.24-1.86-.36-2.81s-.21-1.92-.24-2.9a11.53,11.53,0,0,1,.27-3A6.29,6.29,0,0,1,3,62.65l.28-.71.35-.69c.12-.22.27-.43.41-.65a11.26,11.26,0,0,1,2.11-2.31,14.92,14.92,0,0,1,2.63-1.8,22.41,22.41,0,0,1,6.11-2.27,28.11,28.11,0,0,1,6.69-.59,26.19,26.19,0,0,1,6.63,1.09L29,55l.39.14.38.15.76.32.74.36c.5.23.95.53,1.42.8.23.14.45.3.67.46a6,6,0,0,1,.65.48,18,18,0,0,1,4.08,4.77c.55.88,1.05,1.76,1.55,2.64l.74,1.3.71,1.3A130.652,130.652,0,0,1,49.53,86.8a123.507,123.507,0,0,1,3.84,13.53c.18.82.33,1.54.46,2.16s.22,1.16.3,1.59l.18,1Z" fill="#012739"/>
            <path id="Trazado_135240" data-name="Trazado 135240" d="M4.8,59.72a1.09,1.09,0,0,1,0,.12v.36c0,.31-.09.77-.13,1.37a23.67,23.67,0,0,0,.36,5c.74,4.22,1.64,10.08,3,16.48.66,3.2,1.39,6.23,2.15,9s1.57,5.15,2.3,7.16,1.43,3.6,1.92,4.7l.57,1.25.14.33a.61.61,0,0,0,.05.11,60.9,60.9,0,0,1-2.78-6.35c-.75-2-1.57-4.43-2.34-7.16s-1.5-5.76-2.16-9C6.56,76.68,5.68,70.83,4.97,66.6a22.68,22.68,0,0,1-.31-5.07,12.16,12.16,0,0,1,.14-1.81Z" fill="#012739"/>
            <path id="Trazado_135241" data-name="Trazado 135241" d="M10.44,70a6.57,6.57,0,0,1-.77.27,7.12,7.12,0,0,0-1.73.91,8.66,8.66,0,0,0-1.92,2,2.73,2.73,0,0,1,.41-.72,6.36,6.36,0,0,1,3.2-2.29,3.53,3.53,0,0,1,.81-.17Z" fill="#012739"/>
            <path id="Trazado_135242" data-name="Trazado 135242" d="M8.73,72.93a5.217,5.217,0,0,0-1.26.19c-.68.19-1.19.42-1.21.38A2.6,2.6,0,0,1,7.44,73a2.62,2.62,0,0,1,1.29-.07Z" fill="#012739"/>
            <path id="Trazado_135243" data-name="Trazado 135243" d="M7.49,87.64v-.18a.8.8,0,0,1,.37-.29.76.76,0,0,1,.47,0c.11,0,.17.09.16.11a2.35,2.35,0,0,0-.57,0C7.63,87.34,7.53,87.66,7.49,87.64Z" fill="#012739"/>
            <path id="Trazado_135244" data-name="Trazado 135244" d="M8.08,88.88c-.05,0,0-.31.26-.53s.59-.18.58-.14a3.185,3.185,0,0,0-.48.26C8.21,88.66,8.12,88.89,8.08,88.88Z" fill="#012739"/>
          </g>
          <g id="Grupo_82945" data-name="Grupo 82945">
            <g id="Grupo_82930" data-name="Grupo 82930">
              <path id="Trazado_135245" data-name="Trazado 135245" d="M64.35,93.61s-1-23.83-1.87-28a15.53,15.53,0,0,0-5.56-8.43l-1.7,41L57,99.26l1,.55c.47,1.74-.5,2.17,4.27,3.39.38.1,8,1.31,8,1.31L71,96.77Z" fill="#c78976"/>
              <g id="Grupo_82929" data-name="Grupo 82929">
                <path id="Trazado_135246" data-name="Trazado 135246" d="M77.34,104.23a18.22,18.22,0,0,0-3.87.65,4.3,4.3,0,0,1-3.75-.46,10.761,10.761,0,0,1-1.62-1.26H64.35a4.49,4.49,0,0,1-.83-4.63,5.15,5.15,0,0,1,.83-1.48,2.49,2.49,0,0,1,1.84-1l5,.76s6.89-.64,8.13-.09a22.962,22.962,0,0,1,2,1.26,2.39,2.39,0,0,1-.34,2.82s1,.76.48,1.47l-.25.31s.68.84.35,1.22-3.25,2.17-4.32,1.78-.32-1.27.14-1.46" fill="#c78976"/>
                <path id="Trazado_135247" data-name="Trazado 135247" d="M80.24,99.29a2,2,0,0,0-.36.14l-1,.37-.7.22c-.25.07-.52.13-.8.23a1.8,1.8,0,0,0-.8.5,1,1,0,0,0-.2,1,.76.76,0,0,0,.38.39,1.37,1.37,0,0,0,.49.13,4.62,4.62,0,0,0,.93-.07,8.79,8.79,0,0,0,1.52-.43c.42-.16.75-.31,1-.41a2,2,0,0,0,.34-.18l-.36.13c-.23.09-.57.23-1,.38a9.269,9.269,0,0,1-1.5.39,3.91,3.91,0,0,1-.91.07,1.36,1.36,0,0,1-.45-.12.66.66,0,0,1-.32-.32.89.89,0,0,1,.18-.87,1.57,1.57,0,0,1,.75-.47c.27-.1.54-.17.79-.25a7.2,7.2,0,0,0,.7-.23,10.152,10.152,0,0,0,1-.41Z" fill="#bf654e"/>
                <path id="Trazado_135248" data-name="Trazado 135248" d="M79.93,97.17a2,2,0,0,0-.36.14c-.23.09-.56.23-1,.38s-.92.31-1.49.46a2,2,0,0,0-.86.37A.73.73,0,0,0,76,99a.94.94,0,0,0,.09.52,1.27,1.27,0,0,0,.78.64,2,2,0,0,0,.94,0,8.341,8.341,0,0,0,1.5-.47l1-.36a1.68,1.68,0,0,0,.35-.16l-.37.11-1,.33a9.929,9.929,0,0,1-1.49.44,1.89,1.89,0,0,1-.88-.06,1.15,1.15,0,0,1-.71-.57.7.7,0,0,1,.13-.84,2,2,0,0,1,.81-.35c.57-.16,1.07-.33,1.49-.49s.74-.31,1-.42A2.64,2.64,0,0,0,79.93,97.17Z" fill="#bf654e"/>
                <path id="Trazado_135249" data-name="Trazado 135249" d="M78.53,97.81a4.088,4.088,0,0,0,.12-.6c.07-.32.17-.57.13-.59a1.16,1.16,0,0,0-.25.57.92.92,0,0,0,0,.62Z" fill="#bf654e"/>
                <g id="Grupo_82928" data-name="Grupo 82928">
                  <path id="Trazado_135250" data-name="Trazado 135250" d="M68.15,98.11l2.6-1.06S78,93.5,78.09,93.68s.52.15.45,1-4.27,2.77-4.4,3.08a3.83,3.83,0,0,1-1.41,3A5.46,5.46,0,0,1,70.05,102" fill="#c78976"/>
                  <path id="Trazado_135251" data-name="Trazado 135251" d="M70.05,102h.25a4.629,4.629,0,0,0,.67-.18,6.5,6.5,0,0,0,1-.46,6.41,6.41,0,0,0,1.19-.86A3.25,3.25,0,0,0,74,98.92a6.25,6.25,0,0,0,.13-1v-.11a.19.19,0,0,1,.06-.07l.21-.14c.15-.1.31-.18.46-.27.63-.35,1.29-.7,2-1.11a11.469,11.469,0,0,0,1-.66,3.471,3.471,0,0,0,.46-.4,1.28,1.28,0,0,0,.2-.26.43.43,0,0,0,0-.16,1,1,0,0,0,0-.17,1.19,1.19,0,0,0-.13-.63.72.72,0,0,0-.24-.22l-.1-.09h-.13c-.39.13-.74.29-1.1.45a18.634,18.634,0,0,0-2,1c-1.3.61-2.46,1.18-3.43,1.66l-.69.34-.64.27-1,.42-.64.28-.16.07h0l.17-.07.65-.25,1-.41.64-.26.7-.33,3.43-1.64c.65-.31,1.33-.62,2-.94.35-.15.72-.32,1.09-.45h.09a.45.45,0,0,0,.13.11.61.61,0,0,1,.2.19,1,1,0,0,1,.1.56.47.47,0,0,1,0,.27,1.3,1.3,0,0,1-.18.23,2.859,2.859,0,0,1-.45.4,9.515,9.515,0,0,1-1,.65c-.67.4-1.33.76-1.95,1.11l-.46.27-.22.15a.24.24,0,0,0-.1.12.35.35,0,0,0,0,.14,9.471,9.471,0,0,1-.13,1,3.08,3.08,0,0,1-.82,1.51,5.791,5.791,0,0,1-1.17.87,6.209,6.209,0,0,1-1,.48,5,5,0,0,1-.67.19h-.18Z" fill="#bf654e"/>
                </g>
              </g>
            </g>
            <g id="Grupo_82939" data-name="Grupo 82939">
              <g id="Grupo_82931" data-name="Grupo 82931">
                <path id="Trazado_135252" data-name="Trazado 135252" d="M24.32,32.25a1,1,0,0,1-.39-1.61c-.49-.27-.35-1.05,0-1.45s.94-.66,1.24-1.14a1.16,1.16,0,0,1-1.38-1,.94.94,0,0,1-.59-1.73c-.53,0-.48-.91,0-1.2a12.41,12.41,0,0,1,1.49-.5A6.16,6.16,0,0,1,28,21.7l-2.15-1.6a1.26,1.26,0,0,1-.43-.46c-.19-.43.14-.9.5-1.2a4.94,4.94,0,0,1,2.67-1.17c.32,0,.72,0,.82.31a4.58,4.58,0,0,1,2.18-.25,1.78,1.78,0,0,1,1.16.36,3.36,3.36,0,0,0-.77-1,1.48,1.48,0,0,1-.49-1.1.614.614,0,0,1,.87-.53c-.38-.18-.33-.79,0-1.06a1.84,1.84,0,0,1,1.2-.3c.3,0,.67,0,.75.32a.83.83,0,0,1,1.5-.12,1,1,0,0,1,1.47.11,1.32,1.32,0,0,1,1.86.69c-.39-.64-.77-1.28-1.15-1.92-.21-.36-.25-1,.17-1a.92.92,0,0,1-.66-1.35,1.6,1.6,0,0,1,1.58-.65l.52.76a1.19,1.19,0,0,1,1.82,1.32c.24-.26.71-.11.91.18a1.83,1.83,0,0,1,.17,1,1,1,0,0,1,1.58.84,3.24,3.24,0,0,1,1.73-.36,1.21,1.21,0,0,1,.13-1.41A1.19,1.19,0,0,1,47.31,12a1.15,1.15,0,0,1,1.49-1c.19-.7,1.11-1.22,1.66-.76s.27,1.4-.08,2.06-.77,1.43-1.15,2.14l3.74-2a.62.62,0,0,1,.37-.11c.18,0,.31.18.47.27s.5.05.74.13c.66.2.65,1.21.2,1.73a15.85,15.85,0,0,1-1.66,1.23l1.67.32A1.69,1.69,0,0,1,57,14.87c.22-.62,1-.7,1.7-.67a2.43,2.43,0,0,1,1.64.49,1.61,1.61,0,0,1,0,2.06A4.82,4.82,0,0,1,58.46,18c.11.5.76.66,1.26.58a3.12,3.12,0,0,1,1.51-.09c.65.24.92,1.08,1.57,1.32a3,3,0,0,1,.6.19,1.23,1.23,0,0,1,.4.78l.2,1.11a1.42,1.42,0,0,1,0,.54c-.12.59-.94.71-1.5.49a6.79,6.79,0,0,0-1.5-.75,4.52,4.52,0,0,1,2,1.57A1.56,1.56,0,0,1,62.45,26c-.83.3-1.65-.42-2.25-1.06s-1.48-1.33-2.28-1" fill="#012739"/>
                <path id="Trazado_135253" data-name="Trazado 135253" d="M25.52,31.74a1.06,1.06,0,0,0-1.6.93,2.25,2.25,0,0,0-1.58,1.67,2.29,2.29,0,0,0,.74,2.17c.49.41,1.47.43,1.57-.2a1.73,1.73,0,0,0,1.23,1.06,1.68,1.68,0,0,0,.68,2.38,1.79,1.79,0,0,0,.31,3,1.41,1.41,0,0,0,.69,1.81,1.43,1.43,0,0,0,1.81-.69,2.86,2.86,0,0,0,.91,1.36A1,1,0,0,0,31.73,45a1.88,1.88,0,0,0,2.68,1.12,1.22,1.22,0,0,0,2.39.43l3.13.24a11.23,11.23,0,0,0,2.09,0,5.54,5.54,0,0,0,2.48-.89,1.94,1.94,0,0,1,.76-.38,1.87,1.87,0,0,1,.94.23A5.09,5.09,0,0,0,51.12,45a3,3,0,0,1,.67-.45,2.48,2.48,0,0,1,.94,0,8.85,8.85,0,0,0,2.3-.13,2.42,2.42,0,0,0,1.7-.91c.35-.56.08-1.5-.58-1.55a1.42,1.42,0,0,1,.45-1.16.86.86,0,0,1,1.16,0,.62.62,0,0,1-.37,1,1.27,1.27,0,0,0,1.92-.9,1.7,1.7,0,0,0-1.56-1.73A3.92,3.92,0,0,0,58,37.26a1.39,1.39,0,0,0,1.88.38,2.41,2.41,0,0,0,1.46,1.25A1.44,1.44,0,0,0,63,38.16a1,1,0,0,0-.87-1.42,1.24,1.24,0,0,0-1-1.88,1.94,1.94,0,0,0-1-2.15,1,1,0,0,0,1.49-.43c.35.66,1.33.59,2,.27a1.34,1.34,0,0,0,1-1.4,1.53,1.53,0,0,0-.48-.94,3.82,3.82,0,0,0-2.3-.78,10.08,10.08,0,0,1-.69-3.21,1.93,1.93,0,0,0,2.09-1.39L58.68,22s-10.5-1.62-10.88-1.62S25.46,31.7,25.46,31.7a1.25,1.25,0,0,1-1.87-.34,2.05,2.05,0,0,1,.18-2.09,6,6,0,0,1,1.6-1.49,3,3,0,0,1-2-.63,1.11,1.11,0,0,1-.3-1.21c.25-.61.95-.56,1.4-.91a2.61,2.61,0,0,0,.58-.8" fill="#012739"/>
              </g>
              <g id="Grupo_82936" data-name="Grupo 82936">
                <path id="Trazado_135254" data-name="Trazado 135254" d="M54.87,29.35c-.26-3.76-2.78-8.34-6.51-7.92l-11.66,3a2.2,2.2,0,0,0-2,2.24L36,51.89l-2.8,1.34s2.9,1.64,2.88,1.64,2.69,7.93,10.4,5.47c1.53-.49,2.22-2.17,2.51-3.89h.08c0-.2,2.55-2.15,2.55-2.35a16,16,0,0,1-2.51-1.42V48.82c0,.02,4.79-.83,5.74-7.09a67.17,67.17,0,0,0,.02-12.38Z" fill="#c78976"/>
                <g id="Grupo_82935" data-name="Grupo 82935">
                  <g id="Grupo_82934" data-name="Grupo 82934">
                    <g id="Grupo_82932" data-name="Grupo 82932">
                      <path id="Trazado_135255" data-name="Trazado 135255" d="M53.3,33.86a.81.81,0,0,1-.77.82A.78.78,0,0,1,51.7,34a.79.79,0,0,1,.77-.81.76.76,0,0,1,.83.67Z" fill="#012739"/>
                      <path id="Trazado_135256" data-name="Trazado 135256" d="M53.78,32c-.09.1-.71-.34-1.57-.34s-1.49.45-1.59.34.06-.23.33-.44a2.2,2.2,0,0,1,1.27-.4,2.11,2.11,0,0,1,1.25.4C53.74,31.77,53.83,32,53.78,32Z" fill="#012739"/>
                    </g>
                    <g id="Grupo_82933" data-name="Grupo 82933">
                      <path id="Trazado_135257" data-name="Trazado 135257" d="M45.05,33.9a.79.79,0,0,1-.76.81.77.77,0,0,1-.84-.72.81.81,0,0,1,.77-.81.76.76,0,0,1,.83.72Z" fill="#012739"/>
                      <path id="Trazado_135258" data-name="Trazado 135258" d="M45.3,32.23c-.1.1-.71-.34-1.57-.34s-1.5.45-1.59.34,0-.23.33-.44a2.2,2.2,0,0,1,1.27-.4,2.13,2.13,0,0,1,1.25.4C45.25,32,45.35,32.18,45.3,32.23Z" fill="#012739"/>
                    </g>
                    <path id="Trazado_135259" data-name="Trazado 135259" d="M48.48,38.61a5.48,5.48,0,0,1,1.4-.27c.22,0,.42-.07.46-.22a1.11,1.11,0,0,0-.15-.65l-.66-1.67A29.568,29.568,0,0,1,48,31.42a27.881,27.881,0,0,1,1.84,4.25c.23.58.44,1.15.64,1.68a1.26,1.26,0,0,1,.12.87.57.57,0,0,1-.36.32,1.88,1.88,0,0,1-.37.06A5.64,5.64,0,0,1,48.48,38.61Z" fill="#012739"/>
                    <path id="Trazado_135260" data-name="Trazado 135260" d="M49.14,48.82a15.89,15.89,0,0,1-8.39-2.18s2.06,4.29,8.32,3.66Z" fill="#bf654e"/>
                    <path id="Trazado_135261" data-name="Trazado 135261" d="M48.58,40.55a2.24,2.24,0,0,0-1.8-.95,1.32,1.32,0,0,0-1.11,2.07,1.37,1.37,0,0,0,1.44.52,3.17,3.17,0,0,0,1.28-.81,1.1,1.1,0,0,0,.28-.33.48.48,0,0,0,0-.45" fill="#bf654e"/>
                    <path id="Trazado_135262" data-name="Trazado 135262" d="M45.94,39.22c.14,0,.15.93,1,1.59s1.81.55,1.82.68-.23.18-.65.2a2.34,2.34,0,0,1-1.51-.52,2,2,0,0,1-.74-1.33C45.77,39.45,45.87,39.22,45.94,39.22Z" fill="#012739"/>
                  </g>
                  <path id="Trazado_135263" data-name="Trazado 135263" d="M45.68,30.23c-.09.24-1,.13-2,.26s-1.83.41-2,.2.08-.32.41-.55a3.29,3.29,0,0,1,1.46-.52,3.25,3.25,0,0,1,1.53.17C45.52,29.94,45.71,30.12,45.68,30.23Z" fill="#012739"/>
                  <path id="Trazado_135264" data-name="Trazado 135264" d="M53.45,29.51c-.15.2-.75,0-1.46,0s-1.32.14-1.46-.06,0-.3.29-.48a2.1,2.1,0,0,1,2.35.04C53.43,29.21,53.52,29.41,53.45,29.51Z" fill="#012739"/>
                </g>
              </g>
              <path id="Trazado_135265" data-name="Trazado 135265" d="M34.72,33.12a1,1,0,0,0,.3,1.2A.71.71,0,0,0,36,34c.27.37.9,0,.82-.48.33.19.78-.27.67-.69.39.15.63-.48.83-.91a7,7,0,0,1,.41-.64A4.46,4.46,0,0,0,39.42,29a4.41,4.41,0,0,0,.75-2.31l.19-1.56.29-.36a.86.86,0,0,0,.56.81,1.91,1.91,0,0,0,.95,0l.93-.18.58.17A2.31,2.31,0,0,0,43.83,27a1.44,1.44,0,0,0,.54.84.43.43,0,0,0,.61-.46.5.5,0,0,0,.76-.12,1.62,1.62,0,0,0,.21-1A4,4,0,0,0,45.21,24l1.62,1.52a.75.75,0,0,0,.39.25.43.43,0,0,0,.45.47,1.09,1.09,0,0,0,.6-.4c.4-.42.82-1.12.47-1.58a.36.36,0,0,0,.16-.52l1.83,1.41c-.18-.11-.39.17-.35.41a1,1,0,0,0,.38.55,1.36,1.36,0,0,0-.21.87c-.33-.3-.83.25-.73.72a1,1,0,0,0,1,.76.72.72,0,0,0,.82-.53c.4.09.79-.46.65-.92.29.2.55-.33.57-.72a5.73,5.73,0,0,0-.31-2.14c0,.11.1.19.17.14a.15.15,0,0,0,0-.25l1,2.53a5.9,5.9,0,0,1,.56,2.1c0,.31,0,.72.29.75a.49.49,0,0,0,.2,0,3.81,3.81,0,0,0,1.66-1.92,3,3,0,0,0,.26-.89,12.791,12.791,0,0,0-.25-1.92,6.066,6.066,0,0,0-.06-.849,2.57,2.57,0,0,0-.65-1.121,8.7,8.7,0,0,0-3.35-2.8c-.81-.29-1.68-.28-2.49-.56a15.82,15.82,0,0,1-1.45-.67,12.28,12.28,0,0,0-6.36-.9,10,10,0,0,0-3.52.82,12.1,12.1,0,0,0-3.32,2.53,18.86,18.86,0,0,0-3.9,5.22,9.22,9.22,0,0,0-.94,5.17c.26,1.77,1.35,3.43,2.83,3.8l.59-.67" fill="#012739"/>
              <g id="Grupo_82937" data-name="Grupo 82937">
                <path id="Trazado_135266" data-name="Trazado 135266" d="M36.43,34.32c-.09,0-3.49-1.12-3.45,2.37s3.53,2.74,3.53,2.64S36.43,34.32,36.43,34.32Z" fill="#c78976"/>
                <path id="Trazado_135267" data-name="Trazado 135267" d="M35.43,38a.282.282,0,0,0-.16.09.57.57,0,0,1-.45,0,1.49,1.49,0,0,1-.71-1.34,2,2,0,0,1,.16-.87.72.72,0,0,1,.45-.48.31.31,0,0,1,.36.17c.05.1,0,.17.05.17s.07-.06,0-.2a.34.34,0,0,0-.14-.22.45.45,0,0,0-.33-.09.89.89,0,0,0-.63.55,2.08,2.08,0,0,0-.21,1,1.59,1.59,0,0,0,.9,1.5.67.67,0,0,0,.56-.1C35.43,38.1,35.45,38,35.43,38Z" fill="#bf654e"/>
              </g>
              <g id="Grupo_82938" data-name="Grupo 82938">
                <path id="Trazado_135268" data-name="Trazado 135268" d="M47.85,33.25a9.179,9.179,0,0,0-.16-1,4.1,4.1,0,0,0-5.37-2.82,3.92,3.92,0,0,0-1,.56,3.51,3.51,0,0,0-.86.86,4,4,0,0,0,0,4.8,3.51,3.51,0,0,0,.86.86,3.92,3.92,0,0,0,1,.56,4.1,4.1,0,0,0,5.37-2.82,9.179,9.179,0,0,0,.16-1v.26a2.06,2.06,0,0,1,0,.33.9.9,0,0,1-.08.43,4.09,4.09,0,0,1-1.5,2.31,4.17,4.17,0,0,1-4,.63,4.09,4.09,0,0,1-1.07-.57,4.2,4.2,0,0,1-.9-5.88,4.27,4.27,0,0,1,.9-.9,4.09,4.09,0,0,1,1.07-.57,4.32,4.32,0,0,1,2.21-.17,4.2,4.2,0,0,1,1.76.8,4.09,4.09,0,0,1,1.5,2.31,2.36,2.36,0,0,0,.08.43,2.06,2.06,0,0,1,0,.33Z" fill="#375a64"/>
                <path id="Trazado_135269" data-name="Trazado 135269" d="M57.7,33.25a6.831,6.831,0,0,0-.16-1,4.09,4.09,0,0,0-5.36-2.82,4,4,0,0,0-1,.56,3.69,3.69,0,0,0-.86.86,4,4,0,0,0,0,4.8,3.69,3.69,0,0,0,.86.86,4,4,0,0,0,1,.56,4.09,4.09,0,0,0,5.36-2.82,6.831,6.831,0,0,0,.16-1,.86.86,0,0,1,0,.26,2.06,2.06,0,0,1,0,.33,2.86,2.86,0,0,1-.08.43,4.09,4.09,0,0,1-1.5,2.31,4.17,4.17,0,0,1-4,.63,4.09,4.09,0,0,1-1.07-.57,4,4,0,0,1-.89-.9,4.15,4.15,0,0,1,0-5,4,4,0,0,1,.89-.9,4.09,4.09,0,0,1,1.07-.57,4.32,4.32,0,0,1,2.21-.17,4.2,4.2,0,0,1,1.76.8,4.09,4.09,0,0,1,1.5,2.31,2.861,2.861,0,0,1,.08.43,2.06,2.06,0,0,1,0,.33.86.86,0,0,1,.03.28Z" fill="#375a64"/>
                <path id="Trazado_135270" data-name="Trazado 135270" d="M49.6,32.28a4.261,4.261,0,0,0-.93-.14c-.52-.02-.93.12-.94.07a1.41,1.41,0,0,1,.94-.22,1.38,1.38,0,0,1,.93.29Z" fill="#375a64"/>
                <path id="Trazado_135271" data-name="Trazado 135271" d="M39.54,33.66a6.59,6.59,0,0,1-1.74.44,7,7,0,0,1-1.8.13s.8-.12,1.77-.28S39.53,33.62,39.54,33.66Z" fill="#375a64"/>
                <path id="Trazado_135272" data-name="Trazado 135272" d="M47.41,32.6a2.14,2.14,0,0,1,0,.78,4.72,4.72,0,0,1-.69,1.76,4.13,4.13,0,0,1-1.31,1.35,1,1,0,0,1-.77.17,2,2,0,0,0,.71-.26,4.72,4.72,0,0,0,1.24-1.35,5.58,5.58,0,0,0,.71-1.69C47.37,32.89,47.39,32.6,47.41,32.6Z" fill="#fff"/>
                <path id="Trazado_135273" data-name="Trazado 135273" d="M56.42,35.26a4.83,4.83,0,0,1,.34-.66,3,3,0,0,0,.27-.72,2.45,2.45,0,0,0,0-.94,4.86,4.86,0,0,0-.5-1.67c-.21-.39-.42-.58-.4-.6s.07,0,.16.12a2.2,2.2,0,0,1,.34.43,4.3,4.3,0,0,1,.55,1.7,2.34,2.34,0,0,1,0,1,2.92,2.92,0,0,1-.31.75,2.49,2.49,0,0,1-.45.59Z" fill="#fff"/>
              </g>
              <path id="Trazado_135274" data-name="Trazado 135274" d="M34,39.21s-.09,0-.22.15a1.06,1.06,0,0,0-.4.58,1,1,0,0,0,.21,1,1.2,1.2,0,0,0,1.16.34,1.27,1.27,0,0,0,.82-.91,1.23,1.23,0,0,0-.19-1,1.46,1.46,0,0,0-.53-.49c-.15-.08-.25-.11-.25-.13a.7.7,0,0,1,.27.07,1.51,1.51,0,0,1,.6.48,1.34,1.34,0,0,1,.25,1.1,1.41,1.41,0,0,1-.93,1,1.3,1.3,0,0,1-1.31-.4,1.09,1.09,0,0,1-.27-.56,1.34,1.34,0,0,1,.06-.54,1.08,1.08,0,0,1,.47-.6A.55.55,0,0,1,34,39.21Z" fill="#375a64"/>
              <path id="Trazado_135275" data-name="Trazado 135275" d="M48.45,23.23a.82.82,0,0,0,.23-.45.6.6,0,0,0-.15-.52.65.65,0,0,0-.67-.17l-.15.05.07-.15a.66.66,0,0,0-1.06-.74l-.11-.11a.22.22,0,0,0,0-.08.39.39,0,0,0-.06-.33.41.41,0,0,0-.28-.18.69.69,0,0,0-.35,0,.9.9,0,0,1-.39.09c-.17,0-.24-.15-.33-.21a1.53,1.53,0,0,0-.27-.17,1.68,1.68,0,0,0-.56-.13,1.52,1.52,0,0,0-.81.2c-.18.1-.26.18-.27.17s.06-.1.23-.22a1.5,1.5,0,0,1,.85-.26,1.54,1.54,0,0,1,.61.12,1.65,1.65,0,0,1,.31.18c.1.07.17.17.26.18a1.1,1.1,0,0,0,.33-.09.84.84,0,0,1,.42,0,.58.58,0,0,1,.38.24.55.55,0,0,1,.08.47.41.41,0,0,1-.08.13l-.11-.1a.81.81,0,0,1,1.07,0,.83.83,0,0,1,.21.94L47.82,22a.77.77,0,0,1,.79.22.72.72,0,0,1,.15.62.75.75,0,0,1-.19.35C48.5,23.22,48.45,23.24,48.45,23.23Z" fill="#375a64"/>
              <path id="Trazado_135276" data-name="Trazado 135276" d="M52.35,24.25a1.26,1.26,0,0,0,.3-.44.77.77,0,0,0,0-.59.81.81,0,0,0-.61-.45h-.12l.08-.09a1,1,0,0,0,.27-.85.55.55,0,0,0-.32-.36.43.43,0,0,0-.46.07L51,22l.32-.56a.83.83,0,0,0,0-.69.74.74,0,0,0-.54-.46.84.84,0,0,0-.52.05l-.18.09.07-.19c.11-.27-.16-.58-.43-.61a1.35,1.35,0,0,0-.83.2l-.15.08.05-.16a.62.62,0,0,0-.19-.56,1.2,1.2,0,0,0-.54-.24,2.71,2.71,0,0,0-1,0,3.88,3.88,0,0,0-.84.3,1.124,1.124,0,0,1,.19-.14,3,3,0,0,1,.63-.24,2.48,2.48,0,0,1,1-.06,1.21,1.21,0,0,1,.61.26.68.68,0,0,1,.23.69l-.1-.08a1.43,1.43,0,0,1,.92-.23.71.71,0,0,1,.46.27.57.57,0,0,1,.1.55l-.11-.1a1,1,0,0,1,.63-.06.88.88,0,0,1,.65.56,1,1,0,0,1-.06.81l-.12-.09a.57.57,0,0,1,.63-.09.67.67,0,0,1,.39.45,1.08,1.08,0,0,1-.31,1v-.1a.94.94,0,0,1,.69.53.86.86,0,0,1,0,.65.9.9,0,0,1-.24.34A.49.49,0,0,1,52.35,24.25Z" fill="#375a64"/>
              <path id="Trazado_135277" data-name="Trazado 135277" d="M60.76,25a.56.56,0,0,0-.21-.43.69.69,0,0,0-.52-.19,2.23,2.23,0,0,0-.74.17H59.2v-.1a.67.67,0,0,0-.55-.65,2,2,0,0,0-1.11.17l-.49.18.42-.31a.54.54,0,0,0,0-.79,1.26,1.26,0,0,0-1-.24h-.31l.26-.18a.6.6,0,0,0-.07-.94.91.91,0,0,0-1,.1L55,22.1l.22-.35a1.34,1.34,0,0,0,0-1.37,1.25,1.25,0,0,0-.92-.59,1.44,1.44,0,0,0-.74.09c-.16.07-.24.13-.25.12l.06-.05a.71.71,0,0,1,.17-.11,1.45,1.45,0,0,1,.77-.14,1.36,1.36,0,0,1,1,.61,1.47,1.47,0,0,1,0,1.52l-.11-.1a1.06,1.06,0,0,1,1.18-.11.74.74,0,0,1,.34.57.66.66,0,0,1-.27.64l-.05-.15h.05a1.4,1.4,0,0,1,1.1.27.8.8,0,0,1,.23.52.55.55,0,0,1-.21.51l-.07-.13a2,2,0,0,1,1.2-.16.8.8,0,0,1,.63.8l-.08-.06a2.14,2.14,0,0,1,.79-.16.8.8,0,0,1,.56.23.57.57,0,0,1,.17.34.31.31,0,0,1-.01.16Z" fill="#375a64"/>
              <path id="Trazado_135278" data-name="Trazado 135278" d="M56.35,17a.6.6,0,0,0-.21.07,3.24,3.24,0,0,1-.61,0,1.66,1.66,0,0,0-.88.13.53.53,0,0,0-.3.38.39.39,0,0,0,.16.46l-.11.08c0-.21-.28-.33-.51-.47a2.47,2.47,0,0,0-.73-.31.92.92,0,0,0-.75.11.63.63,0,0,0-.33.58v.19L52,18.11a1.76,1.76,0,0,0-1-.43,2,2,0,0,0-.88.13,2.52,2.52,0,0,0-.67.43s0-.07.13-.17a1.6,1.6,0,0,1,.51-.34,2,2,0,0,1,.92-.17,1.77,1.77,0,0,1,1.12.44l-.12.06a.78.78,0,0,1,.38-.73,1.11,1.11,0,0,1,.87-.14,2.75,2.75,0,0,1,.78.34,2.46,2.46,0,0,1,.34.22.59.59,0,0,1,.24.35v.15l-.13-.07a.55.55,0,0,1-.23-.62.68.68,0,0,1,.39-.46,1.81,1.81,0,0,1,.94-.12,3.27,3.27,0,0,0,.6,0Z" fill="#375a64"/>
              <path id="Trazado_135279" data-name="Trazado 135279" d="M48.55,14a1.53,1.53,0,0,0-.41.05,1.19,1.19,0,0,0-.4.25.94.94,0,0,0-.25.53v.09H47.4a.52.52,0,0,0-.57.32,1.59,1.59,0,0,0,0,.87l.05.31-.2-.25h0a.68.68,0,0,0-.54-.23.74.74,0,0,0-.51.23,1.2,1.2,0,0,0-.32.93,2.27,2.27,0,0,0,.18.68,2.519,2.519,0,0,1,.1.24,1.234,1.234,0,0,1-.16-.22,2,2,0,0,1-.23-.69,1.28,1.28,0,0,1,.33-1,.88.88,0,0,1,1.28,0v.05l-.15.05a1.71,1.71,0,0,1,0-1,.66.66,0,0,1,.76-.39l-.09.06a.92.92,0,0,1,.31-.59.93.93,0,0,1,.45-.25.74.74,0,0,1,.32,0Z" fill="#375a64"/>
              <path id="Trazado_135280" data-name="Trazado 135280" d="M41.67,18.72h-.21a1.32,1.32,0,0,1-.47-.34,1.39,1.39,0,0,1-.36-.79.83.83,0,0,0-.1-.43c-.09-.11-.29-.18-.4-.36a.77.77,0,0,1,.2-1.06v.11a2.52,2.52,0,0,1-.67-.93,1,1,0,0,1-.11-.43,4.154,4.154,0,0,0,.19.39,2.72,2.72,0,0,0,.69.86l.07.06-.08.06a.64.64,0,0,0-.15.85c.08.14.25.2.38.35a.76.76,0,0,1,.13.52,1.43,1.43,0,0,0,.3.73,1.87,1.87,0,0,0,.59.41Z" fill="#375a64"/>
              <path id="Trazado_135281" data-name="Trazado 135281" d="M39.64,20.11h-.13a1.45,1.45,0,0,1-.37,0A2,2,0,0,1,38,19.43h.1a1.39,1.39,0,0,1-.93.49,1.35,1.35,0,0,1-.59-.07.86.86,0,0,1-.5-.39,1.58,1.58,0,0,1-.06-.23.24.24,0,0,0-.1-.14.86.86,0,0,0-.36-.17,1.21,1.21,0,0,1-.41-.16.47.47,0,0,1-.22-.39l.1.07a1.38,1.38,0,0,1-1,0,1.48,1.48,0,0,1-.63-.39,1.11,1.11,0,0,1-.26-.41c0-.11,0-.16,0-.17a1.75,1.75,0,0,0,.36.51,1.35,1.35,0,0,0,.6.35,1.31,1.31,0,0,0,.87,0h.11v.12a.29.29,0,0,0,.17.25,1.18,1.18,0,0,0,.36.15A1.05,1.05,0,0,1,36,19a.45.45,0,0,1,.15.21,1.42,1.42,0,0,0,.06.21.66.66,0,0,0,.41.31,1.34,1.34,0,0,0,.52.07,1.2,1.2,0,0,0,.83-.42l.05-.06.06.06a2.1,2.1,0,0,0,1.08.67C39.46,20.1,39.64,20.09,39.64,20.11Z" fill="#375a64"/>
              <path id="Trazado_135282" data-name="Trazado 135282" d="M27.2,25v-.05a.65.65,0,0,1,0-.17,1.49,1.49,0,0,1,.07-.62,3.77,3.77,0,0,1,.43-.89,3.29,3.29,0,0,1,.35-.5,1,1,0,0,1,.27-.21.44.44,0,0,1,.39,0l-.1.07a1,1,0,0,1,1.71-.91l-.13.06a.72.72,0,0,1,.29-.59.69.69,0,0,1,.68-.08.64.64,0,0,1,.31.23l-.15.05a.47.47,0,0,1,.17-.37.65.65,0,0,1,.35-.15,1.49,1.49,0,0,1,.68.18h-.1a1.14,1.14,0,0,1,.69-.48,1.54,1.54,0,0,1,.77,0,4,4,0,0,1,1.19.59l-.09.07a.29.29,0,0,1,0-.27.55.55,0,0,1,.2-.15.78.78,0,0,1,.42-.06,2.24,2.24,0,0,1,.63.19,1.86,1.86,0,0,1,.35.21.43.43,0,0,1,.11.09A2.677,2.677,0,0,0,36.2,21a2.24,2.24,0,0,0-.61-.16.7.7,0,0,0-.37.07c-.12.05-.22.16-.16.28l.08.17-.16-.1a4,4,0,0,0-1.16-.55,1.42,1.42,0,0,0-.71,0,1,1,0,0,0-.59.42v.05h-.06a1.23,1.23,0,0,0-.6-.16c-.19,0-.4.17-.38.35v.28l-.16-.23a.61.61,0,0,0-.24-.18.53.53,0,0,0-.52.06.55.55,0,0,0-.23.46v.17l-.13-.1a.91.91,0,0,0-1.48.78v.13l-.11-.07c-.17-.1-.37,0-.51.18a3.72,3.72,0,0,0-.34.47,3.46,3.46,0,0,0-.44.85A2.21,2.21,0,0,0,27.2,25Z" fill="#375a64"/>
              <path id="Trazado_135283" data-name="Trazado 135283" d="M28.08,29.57l-.08-.1a3.339,3.339,0,0,1-.18-.32,1,1,0,0,1-.13-.57.89.89,0,0,1,.12-.37.6.6,0,0,1,.35-.26v.08a.77.77,0,0,1,0-.78.76.76,0,0,1,.82-.34l-.07.11a.59.59,0,0,1,0-.7.88.88,0,0,1,.67-.32,2.16,2.16,0,0,0,.36,0,.28.28,0,0,0,.21-.19,1.43,1.43,0,0,1,.21-.34.68.68,0,0,1,.37-.2,4,4,0,0,1,.84,0,1,1,0,0,0,.68-.2,2.6,2.6,0,0,0,.22-.3.72.72,0,0,1,.32-.25.85.85,0,0,1,.73,0l-.09.1a.63.63,0,0,1,.09-.73.9.9,0,0,1,.59-.29,2.87,2.87,0,0,1,1,.13,3.72,3.72,0,0,1,.62.25l.2.12a4.69,4.69,0,0,0-.84-.29,3.05,3.05,0,0,0-1-.1.77.77,0,0,0-.5.26.49.49,0,0,0-.07.57l.16.25-.26-.15a.69.69,0,0,0-.61,0,.55.55,0,0,0-.25.2c-.07.09-.13.21-.23.32a.79.79,0,0,1-.37.2,1.5,1.5,0,0,1-.42,0,4.24,4.24,0,0,0-.8,0,.55.55,0,0,0-.3.16,1.27,1.27,0,0,0-.18.31.43.43,0,0,1-.33.26,2.38,2.38,0,0,1-.37,0,.73.73,0,0,0-.56.24.45.45,0,0,0,0,.53l.12.16L28.88,27a.64.64,0,0,0-.68.28.63.63,0,0,0,0,.65V28h-.08a.59.59,0,0,0-.4.53,1.12,1.12,0,0,0,.09.54A4.165,4.165,0,0,1,28.08,29.57Z" fill="#375a64"/>
              <path id="Trazado_135284" data-name="Trazado 135284" d="M28.35,39.17a.4.4,0,0,1-.16-.05,1.26,1.26,0,0,1-.36-.28,1.14,1.14,0,0,1-.26-.67,1.17,1.17,0,0,1,.32-.88v.08a2,2,0,0,1-.41-.78.89.89,0,0,1,0-.51.66.66,0,0,1,.38-.39v.14a.9.9,0,0,1-.39-.82,1.09,1.09,0,0,1,.16-.52.86.86,0,0,1,.41-.32c.15-.07.22-.14.22-.29a1.24,1.24,0,0,1,.11-.46,1.57,1.57,0,0,1,.59-.63l.59-.43a2.67,2.67,0,0,1,1-.45,1.8,1.8,0,0,1,.29,0h.1a1.412,1.412,0,0,0-.37.07,2.77,2.77,0,0,0-.92.49l-.58.43a1.59,1.59,0,0,0-.53.59,1.12,1.12,0,0,0-.09.41.39.39,0,0,1-.09.26.57.57,0,0,1-.22.16A.81.81,0,0,0,28,35.7l.14.08-.15.06a.63.63,0,0,0-.32.72,2.15,2.15,0,0,0,.37.74h0a1.06,1.06,0,0,0-.31.78,1.08,1.08,0,0,0,.21.63,1.66,1.66,0,0,0,.41.46Z" fill="#375a64"/>
              <path id="Trazado_135285" data-name="Trazado 135285" d="M33.28,35.07a.65.65,0,0,1-.21,0,1.87,1.87,0,0,1-.56-.29,2.12,2.12,0,0,1-.63-.73.84.84,0,0,1-.1-.61.4.4,0,0,1,.24-.27.33.33,0,0,1,.38.07l-.12.07a1.08,1.08,0,0,1-.1-.61.47.47,0,0,1,.19-.3.42.42,0,0,1,.36-.05.57.57,0,0,0,.27,0c.06,0,.07-.09.06-.21a1.044,1.044,0,0,1,1.34-.97l-.1.09a.91.91,0,0,1,.16-.87.53.53,0,0,1,.43-.13.39.39,0,0,1,.35.25h-.13a2.11,2.11,0,0,1,.27-1.15,2.18,2.18,0,0,1,.59-.69,1.85,1.85,0,0,1,.51-.29.58.58,0,0,1,.2,0,2.84,2.84,0,0,0-.66.4,2.28,2.28,0,0,0-.54.68,2,2,0,0,0-.23,1.09v.57l-.17-.54c-.06-.19-.39-.22-.54-.06a.75.75,0,0,0-.12.72v.14l-.14-.05a.89.89,0,0,0-.9.27.82.82,0,0,0-.23.56,1.42,1.42,0,0,1,0,.19.27.27,0,0,1-.16.17.68.68,0,0,1-.36,0,.28.28,0,0,0-.24,0,.35.35,0,0,0-.13.2.92.92,0,0,0,.1.53l.14.38-.26-.31c-.11-.12-.37,0-.4.15A.74.74,0,0,0,32,34a2,2,0,0,0,.57.72A3.29,3.29,0,0,0,33.28,35.07Z" fill="#375a64"/>
              <path id="Trazado_135286" data-name="Trazado 135286" d="M41.19,25.34a1,1,0,0,1-.47-.19,1.16,1.16,0,0,1-.43-.36.9.9,0,0,1-.15-.69.46.46,0,0,1,.07-.16v.11a.78.78,0,0,1-.39-.53A.7.7,0,0,1,40,23a.5.5,0,0,1,.38-.26,1.36,1.36,0,0,0-.29.32.64.64,0,0,0,0,.42.66.66,0,0,0,.32.42h.07v.07a.28.28,0,0,0,0,.13.72.72,0,0,0,.12.56,1.37,1.37,0,0,0,.36.36A2.879,2.879,0,0,1,41.19,25.34Z" fill="#375a64"/>
              <path id="Trazado_135287" data-name="Trazado 135287" d="M44.85,23.64a.85.85,0,0,0,.12-.57.67.67,0,0,0-.38-.5.7.7,0,0,0-.75.12l-.1.09v-.13a1.43,1.43,0,0,0-.18-.47.6.6,0,0,0-.4-.28c-.25,0-.53.2-.46.41h-.15a1.26,1.26,0,0,0-.43-.79,1.31,1.31,0,0,0-.68-.26,2.23,2.23,0,0,0-.66.12.43.43,0,0,1,.15-.1,1.26,1.26,0,0,1,1.27.14,1.36,1.36,0,0,1,.5.87h-.15a.46.46,0,0,1,.16-.46.68.68,0,0,1,.47-.15.77.77,0,0,1,.51.36,1.37,1.37,0,0,1,.19.52h-.12a.84.84,0,0,1,.91-.12.74.74,0,0,1,.41.59.85.85,0,0,1-.09.47C44.91,23.61,44.86,23.65,44.85,23.64Z" fill="#375a64"/>
            </g>
            <g id="Grupo_82942" data-name="Grupo 82942">
              <path id="Trazado_135288" data-name="Trazado 135288" d="M60.31,77.7l4.6-1.9a61.3,61.3,0,0,0-2.76-11.34,14.22,14.22,0,0,0-5.22-7.19v-.05l-1.38-.83-5.91-3.81c1,4.73-7.42,9.58-14.61-.57l-11.9,4.81,3.1,33.68-2.95,14.9L53,105.31v.29l6.33-.06L58,98.93c.59-6.36,2.48-14.08,2.26-19.18C60.31,79.11,60.32,78.42,60.31,77.7Z" fill="#32c4b4"/>
              <g id="Grupo_82940" data-name="Grupo 82940">
                <path id="Trazado_135289" data-name="Trazado 135289" d="M59,90.94a2.46,2.46,0,0,0,.07-.24l.17-.69c.08-.3.16-.67.25-1.11s.2-.92.28-1.47.2-1.15.29-1.8.16-1.34.24-2.07c.13-1.47.22-3.08.22-4.78s-.1-3.32-.24-4.78c-.08-.73-.15-1.43-.25-2.07s-.19-1.25-.29-1.8-.2-1-.29-1.47-.17-.81-.25-1.11l-.2-.69a1,1,0,0,0-.07-.24,1.15,1.15,0,0,0,0,.25l.15.7c.07.3.15.67.22,1.11s.19.92.27,1.47.19,1.15.27,1.79.16,1.34.24,2.07c.13,1.46.22,3.08.22,4.77s-.08,3.3-.21,4.76c-.07.73-.13,1.43-.23,2.07s-.17,1.25-.26,1.8-.18,1-.26,1.47-.15.81-.22,1.11l-.14.7a.68.68,0,0,0,.02.25Z" fill="#012739"/>
                <path id="Trazado_135290" data-name="Trazado 135290" d="M59.05,90.7a.77.77,0,0,1,0,.15l-.08.44c-.07.37-.17.91-.29,1.59a32.6,32.6,0,0,0-.48,5.29,24.088,24.088,0,0,0,.18,2.92,21.349,21.349,0,0,0,.43,2.35c.07.33.16.62.23.88a6.53,6.53,0,0,0,.19.67l.13.42v.15l-.06-.14-.16-.41c-.06-.18-.14-.4-.22-.66s-.17-.55-.25-.89a20.26,20.26,0,0,1-.47-2.35,22.471,22.471,0,0,1-.2-2.94,29.13,29.13,0,0,1,.53-5.31c.13-.67.25-1.21.34-1.59l.11-.42C59,90.75,59,90.7,59.05,90.7Z" fill="#012739"/>
              </g>
              <path id="Trazado_135291" data-name="Trazado 135291" d="M11.27,80.43,17.37,63s1.62-5.15,6.45-6.42L27.28,74l-1.61,9.55Z" fill="#32c4b4"/>
              <path id="Trazado_135292" data-name="Trazado 135292" d="M28.47,69.45v.56a12.524,12.524,0,0,1-.21,1.53c-.2,1.29-.56,3.06-1,5s-.83,3.7-1.09,5L25.81,83l-.09.41v.14a.72.72,0,0,1,0-.14l.06-.42c.05-.36.14-.88.26-1.52.24-1.28.61-3,1-5s.81-3.69,1-5c.12-.64.2-1.16.26-1.52l.07-.41C28.45,69.5,28.46,69.45,28.47,69.45Z" fill="#012739"/>
              <path id="Trazado_135293" data-name="Trazado 135293" d="M50.93,53.64v.52l-.07.38a1.905,1.905,0,0,1-.13.46,3.75,3.75,0,0,1-.22.53,4.72,4.72,0,0,1-.78,1.16,8.16,8.16,0,0,1-3,2,8.59,8.59,0,0,1-4.39.51,10.64,10.64,0,0,1-4.16-1.5,15.09,15.09,0,0,1-2.78-2.33,21.52,21.52,0,0,1-1.59-1.85c-.18-.22-.31-.4-.4-.53a1.06,1.06,0,0,1-.12-.19l.15.17.42.52c.37.44.9,1.08,1.62,1.81a15.78,15.78,0,0,0,2.78,2.28A10.53,10.53,0,0,0,42.3,59a8.5,8.5,0,0,0,4.31-.48,8.08,8.08,0,0,0,3-1.91,4.44,4.44,0,0,0,.79-1.12,3.69,3.69,0,0,0,.23-.51c.06-.17.1-.32.14-.46l.08-.37v-.28a.89.89,0,0,1,.08-.23Z" fill="#fafafa"/>
              <g id="Grupo_82941" data-name="Grupo 82941" opacity="0.3">
                <path id="Trazado_135294" data-name="Trazado 135294" d="M25.52,92.94c1.81-2.14,2-5.17,2.07-8,.1-3.54,0-7.63.14-11.17-.66,3.14-1.65,8-2.14,9.77,0,0,.24,1.85.25,2.58s0,1.38,0,2c.16,1.7.43,3.59-.56,5"/>
              </g>
              <path id="Trazado_135295" data-name="Trazado 135295" d="M59.52,70.22a.15.15,0,0,1-.08,0l-.22.08-.89.27L56.92,71c-.55.14-1.18.32-1.88.48s-1.47.34-2.3.5-1.73.32-2.67.47c-1.88.29-4,.53-6.16.66a53.208,53.208,0,0,1-6.19,0c-.95-.05-1.86-.09-2.7-.18s-1.63-.16-2.34-.25-1.36-.19-1.92-.27-1.05-.17-1.45-.25L28.4,72h.01l.91.15c.4.07.88.15,1.45.22s1.21.18,1.92.25,1.5.17,2.34.23,1.75.12,2.7.17c1.89.07,4,.07,6.18-.05s4.26-.36,6.14-.64c.94-.15,1.83-.29,2.66-.46s1.6-.32,2.3-.48,1.33-.32,1.89-.46,1-.27,1.41-.38l.9-.24.23-.06Z" fill="#fafafa"/>
              <path id="Trazado_135296" data-name="Trazado 135296" d="M62.82,66.45a11.34,11.34,0,0,1-1.62,1.09,11.88,11.88,0,0,1-1.7,1,12.761,12.761,0,0,1,1.62-1.09,11.879,11.879,0,0,1,1.7-1Z" fill="#fafafa"/>
              <path id="Trazado_135297" data-name="Trazado 135297" d="M28.15,71.12a3.242,3.242,0,0,1-.51,0,12.457,12.457,0,0,1-1.38-.16A40.17,40.17,0,0,1,21.78,70a38.719,38.719,0,0,1-4.34-1.43c-.54-.21-1-.4-1.27-.53a3.82,3.82,0,0,1-.46-.23,3.431,3.431,0,0,1,.48.17l1.29.49c1.1.4,2.62.92,4.34,1.37s3.31.75,4.46.94l1.37.21A3.85,3.85,0,0,1,28.15,71.12Z" fill="#fafafa"/>
            </g>
            <g id="Grupo_82944" data-name="Grupo 82944">
              <g id="Grupo_82943" data-name="Grupo 82943">
                <path id="Trazado_135298" data-name="Trazado 135298" d="M36.8,95l4.62.1s6.94-2.51,8.37-2.27,6,3.34,6.91,4a.58.58,0,0,1,.22.29h0a1,1,0,0,1-.56,1.28h-.1v.14a1.49,1.49,0,0,1,.07.56.68.68,0,0,1-1.26.29l.18.32a.75.75,0,0,1,.1.42v.28a.75.75,0,0,1-.53.69h0a.75.75,0,0,1-.81-.21c-.59-.65-1.88-2-2.75-2.11a20.942,20.942,0,0,0-2.85-.15,1,1,0,0,0-.89.62h0a49.267,49.267,0,0,1,5.39,2.59,1.34,1.34,0,0,1,.74,1c0,.4-.15.81-.94.63A35.25,35.25,0,0,1,48,101.7a3.48,3.48,0,0,0-2.59.27c-1.43,1-2.09,1.38-3.32,1a10.42,10.42,0,0,1-2.14-1l-4.45.26A5.82,5.82,0,0,1,36.8,95Z" fill="#c78976"/>
                <path id="Trazado_135299" data-name="Trazado 135299" d="M47.51,96.27a7.349,7.349,0,0,1,1.3-.18,6.87,6.87,0,0,1,3.09.52,7,7,0,0,1,2.52,1.87,12.118,12.118,0,0,1,.77,1.07,1.33,1.33,0,0,0-.15-.32,6.13,6.13,0,0,0-.55-.81A6.5,6.5,0,0,0,48.81,96a6.079,6.079,0,0,0-1,.16A1.65,1.65,0,0,0,47.51,96.27Z" fill="#bf654e"/>
                <path id="Trazado_135300" data-name="Trazado 135300" d="M48.24,94.59a5.83,5.83,0,0,1,1.36-.24,5.94,5.94,0,0,1,3.16.89,13,13,0,0,1,2.54,2.15l.7.74a2.18,2.18,0,0,0,.26.27,1.44,1.44,0,0,0-.23-.3l-.66-.77a11.74,11.74,0,0,0-2.55-2.2,5.74,5.74,0,0,0-3.22-.87,3.6,3.6,0,0,0-1,.18,2.069,2.069,0,0,0-.26.1C48.27,94.57,48.24,94.58,48.24,94.59Z" fill="#bf654e"/>
              </g>
              <path id="Trazado_135301" data-name="Trazado 135301" d="M13,80.82s-2.4,10.82-2.72,12.73c-.36,2.23-1,7.65,4,8.71S39.93,102,39.93,102l1.49-6.85L22.51,92.41l2.07-9.08Z" fill="#c78976"/>
            </g>
          </g>
          <g id="Grupo_82946" data-name="Grupo 82946">
            <path id="Trazado_135302" data-name="Trazado 135302" d="M96,105.57H53.64l5.47-29.73A2.22,2.22,0,0,1,61.29,74H99.34a2.23,2.23,0,0,1,2.19,2.64Z" fill="#104c82"/>
            <path id="Trazado_135303" data-name="Trazado 135303" d="M63.81,74.06h-.34a2.25,2.25,0,0,0-.94.23,3,3,0,0,0-1.13,1,5.56,5.56,0,0,0-.69,1.92c-.14.75-.26,1.59-.41,2.48s-.32,1.84-.5,2.84c-.37,2-.81,4.19-1.28,6.48-1,4.59-1.85,8.74-2.42,11.76-.3,1.51-.52,2.73-.67,3.57l-.18,1v.25a.33.33,0,0,1,0,.08v-.34l.15-1c.13-.85.34-2.07.62-3.58.55-3,1.41-7.18,2.37-11.77.48-2.29.92-4.48,1.29-6.48.2-1,.36-1.94.52-2.83s.28-1.72.43-2.48a5.62,5.62,0,0,1,.73-2,2.92,2.92,0,0,1,1.17-1,2.06,2.06,0,0,1,1-.21,1.26,1.26,0,0,1,.28.08Z" fill="#012739"/>
            <path id="Trazado_135304" data-name="Trazado 135304" d="M81.7,89.13a2,2,0,1,1-2-2A2,2,0,0,1,81.7,89.13Z" fill="#f5f5f5"/>
          </g>
        </g>
      </g>
    </g>
  </g>
</svg>
