<svg xmlns="http://www.w3.org/2000/svg" xmlns:xlink="http://www.w3.org/1999/xlink" width="310" height="167" viewBox="0 0 310 167">
  <defs>
    <clipPath id="clip-path">
      <rect id="Rectángulo_35796" data-name="Rectángulo 35796" width="100" height="100" fill="none"/>
    </clipPath>
  </defs>
  <g id="Grupo_83003" data-name="Grupo 83003" transform="translate(-490 -9681)">
    <rect id="Rectángulo_35788" data-name="Rectángulo 35788" width="310" height="167" transform="translate(490 9681)" fill="#f2f2f3"/>
    <path id="Trazado_135502" data-name="Trazado 135502" d="M95.8,17V4.2h3.612a5.815,5.815,0,0,1,2.953.738,4.993,4.993,0,0,1,1.982,2.1,6.837,6.837,0,0,1,.708,3.129v.817a6.861,6.861,0,0,1-.7,3.173,4.915,4.915,0,0,1-2,2.092A6.185,6.185,0,0,1,99.343,17ZM97.488,5.583V15.62h1.775a3.863,3.863,0,0,0,3.037-1.214,5.016,5.016,0,0,0,1.085-3.457V10.2a5.1,5.1,0,0,0-1.024-3.391,3.644,3.644,0,0,0-2.9-1.227ZM111.3,17.176a4.155,4.155,0,0,1-3.146-1.27,4.714,4.714,0,0,1-1.213-3.4v-.3a5.707,5.707,0,0,1,.541-2.527,4.217,4.217,0,0,1,1.512-1.74,3.8,3.8,0,0,1,2.1-.628,3.562,3.562,0,0,1,2.883,1.222,5.289,5.289,0,0,1,1.028,3.5v.677h-6.442a3.38,3.38,0,0,0,.822,2.272,2.583,2.583,0,0,0,2,.866,2.832,2.832,0,0,0,1.459-.352,3.666,3.666,0,0,0,1.046-.932l.993.773A3.993,3.993,0,0,1,111.3,17.176Zm-.2-8.525a2.169,2.169,0,0,0-1.652.716,3.482,3.482,0,0,0-.826,2.008h4.764v-.123a3.1,3.1,0,0,0-.668-1.92A2.042,2.042,0,0,0,111.094,8.65Zm11.329,5.827a1.2,1.2,0,0,0-.5-1.024,4.78,4.78,0,0,0-1.731-.628,8.186,8.186,0,0,1-1.96-.633,2.788,2.788,0,0,1-1.072-.879,2.1,2.1,0,0,1-.347-1.213,2.467,2.467,0,0,1,.989-1.978,3.861,3.861,0,0,1,2.527-.809,3.974,3.974,0,0,1,2.624.835,2.652,2.652,0,0,1,1.006,2.136h-1.635a1.468,1.468,0,0,0-.567-1.151,2.124,2.124,0,0,0-1.428-.483,2.223,2.223,0,0,0-1.389.387,1.217,1.217,0,0,0-.5,1.011.986.986,0,0,0,.466.888,5.731,5.731,0,0,0,1.683.571,8.77,8.77,0,0,1,1.973.65,2.878,2.878,0,0,1,1.121.91,2.237,2.237,0,0,1,.365,1.3,2.434,2.434,0,0,1-1.02,2.043,4.277,4.277,0,0,1-2.646.769,4.789,4.789,0,0,1-2.021-.4,3.288,3.288,0,0,1-1.375-1.129,2.722,2.722,0,0,1-.5-1.569h1.626a1.683,1.683,0,0,0,.655,1.3,2.54,2.54,0,0,0,1.613.479,2.622,2.622,0,0,0,1.481-.374A1.148,1.148,0,0,0,122.423,14.478ZM132.038,17a3.416,3.416,0,0,1-.229-1,3.628,3.628,0,0,1-2.707,1.178,3.357,3.357,0,0,1-2.307-.8,2.573,2.573,0,0,1-.9-2.017,2.688,2.688,0,0,1,1.129-2.307,5.325,5.325,0,0,1,3.177-.822h1.582v-.747a1.826,1.826,0,0,0-.51-1.358,2.049,2.049,0,0,0-1.5-.505,2.371,2.371,0,0,0-1.459.439,1.3,1.3,0,0,0-.589,1.063h-1.635a2.244,2.244,0,0,1,.505-1.375,3.449,3.449,0,0,1,1.371-1.05,4.613,4.613,0,0,1,1.9-.387,3.759,3.759,0,0,1,2.575.822,2.964,2.964,0,0,1,.967,2.263v4.377a5.351,5.351,0,0,0,.334,2.083V17Zm-2.7-1.239a2.858,2.858,0,0,0,1.45-.4,2.392,2.392,0,0,0,.993-1.028V12.386h-1.274q-2.988,0-2.988,1.749a1.48,1.48,0,0,0,.51,1.2A1.959,1.959,0,0,0,129.34,15.761Zm11.215-6.812a4.873,4.873,0,0,0-.8-.062,2.143,2.143,0,0,0-2.171,1.362V17h-1.626V7.49h1.582l.026,1.1a2.532,2.532,0,0,1,2.268-1.274,1.661,1.661,0,0,1,.721.123Zm6.091,0a4.873,4.873,0,0,0-.8-.062,2.143,2.143,0,0,0-2.171,1.362V17h-1.626V7.49h1.582l.026,1.1a2.532,2.532,0,0,1,2.268-1.274,1.661,1.661,0,0,1,.721.123Zm.888,3.208a5.617,5.617,0,0,1,.549-2.514,4.1,4.1,0,0,1,1.529-1.723,4.163,4.163,0,0,1,2.237-.606,4.01,4.01,0,0,1,3.142,1.345,5.174,5.174,0,0,1,1.2,3.577v.114a5.666,5.666,0,0,1-.532,2.492,4.038,4.038,0,0,1-1.521,1.718,4.211,4.211,0,0,1-2.272.615,4,4,0,0,1-3.133-1.345,5.147,5.147,0,0,1-1.2-3.56Zm1.635.193a4.068,4.068,0,0,0,.734,2.54,2.487,2.487,0,0,0,3.933-.013,4.449,4.449,0,0,0,.729-2.72,4.061,4.061,0,0,0-.743-2.536,2.361,2.361,0,0,0-1.973-.971,2.335,2.335,0,0,0-1.942.958A4.416,4.416,0,0,0,149.168,12.351ZM160,17H158.37V3.5H160Zm4.368,0h-1.626V3.5h1.626Zm8.473,0a3.416,3.416,0,0,1-.229-1,3.628,3.628,0,0,1-2.707,1.178,3.357,3.357,0,0,1-2.307-.8,2.573,2.573,0,0,1-.9-2.017,2.688,2.688,0,0,1,1.129-2.307A5.325,5.325,0,0,1,171,11.234h1.582v-.747a1.826,1.826,0,0,0-.51-1.358,2.049,2.049,0,0,0-1.5-.505,2.371,2.371,0,0,0-1.459.439,1.3,1.3,0,0,0-.589,1.063h-1.635a2.244,2.244,0,0,1,.505-1.375,3.449,3.449,0,0,1,1.371-1.05,4.613,4.613,0,0,1,1.9-.387,3.759,3.759,0,0,1,2.575.822,2.964,2.964,0,0,1,.967,2.263v4.377a5.351,5.351,0,0,0,.334,2.083V17Zm-2.7-1.239a2.858,2.858,0,0,0,1.45-.4,2.392,2.392,0,0,0,.993-1.028V12.386h-1.274q-2.988,0-2.988,1.749a1.48,1.48,0,0,0,.51,1.2A1.959,1.959,0,0,0,170.139,15.761Zm6.223-3.595a5.571,5.571,0,0,1,1.037-3.52,3.529,3.529,0,0,1,5.361-.189V3.5h1.626V17h-1.494l-.079-1.02a3.311,3.311,0,0,1-2.716,1.2,3.248,3.248,0,0,1-2.694-1.354,5.634,5.634,0,0,1-1.042-3.533Zm1.626.185a4.218,4.218,0,0,0,.668,2.531,2.159,2.159,0,0,0,1.846.914,2.372,2.372,0,0,0,2.259-1.389V10.039a2.39,2.39,0,0,0-2.241-1.345,2.17,2.17,0,0,0-1.863.923A4.644,4.644,0,0,0,177.987,12.351Zm8.49-.193a5.617,5.617,0,0,1,.549-2.514,4.1,4.1,0,0,1,1.529-1.723,4.163,4.163,0,0,1,2.237-.606,4.01,4.01,0,0,1,3.142,1.345,5.174,5.174,0,0,1,1.2,3.577v.114a5.666,5.666,0,0,1-.532,2.492,4.038,4.038,0,0,1-1.521,1.718,4.211,4.211,0,0,1-2.272.615,4,4,0,0,1-3.133-1.345,5.147,5.147,0,0,1-1.2-3.56Zm1.635.193a4.068,4.068,0,0,0,.734,2.54,2.487,2.487,0,0,0,3.933-.013,4.449,4.449,0,0,0,.729-2.72,4.061,4.061,0,0,0-.743-2.536,2.361,2.361,0,0,0-1.973-.971,2.335,2.335,0,0,0-1.942.958A4.416,4.416,0,0,0,188.112,12.351Zm13.658-3.4a4.873,4.873,0,0,0-.8-.062A2.143,2.143,0,0,0,198.8,10.25V17h-1.626V7.49h1.582l.026,1.1a2.532,2.532,0,0,1,2.268-1.274,1.661,1.661,0,0,1,.721.123Zm5.273,8.227a4.155,4.155,0,0,1-3.146-1.27,4.714,4.714,0,0,1-1.213-3.4v-.3a5.707,5.707,0,0,1,.541-2.527,4.217,4.217,0,0,1,1.512-1.74,3.8,3.8,0,0,1,2.1-.628,3.562,3.562,0,0,1,2.883,1.222,5.289,5.289,0,0,1,1.028,3.5v.677h-6.442a3.38,3.38,0,0,0,.822,2.272,2.583,2.583,0,0,0,2,.866,2.832,2.832,0,0,0,1.459-.352,3.666,3.666,0,0,0,1.046-.932l.993.773A3.993,3.993,0,0,1,207.044,17.176Zm-.2-8.525a2.169,2.169,0,0,0-1.652.716,3.482,3.482,0,0,0-.826,2.008h4.764v-.123a3.1,3.1,0,0,0-.668-1.92A2.042,2.042,0,0,0,206.842,8.65Zm11.329,5.827a1.2,1.2,0,0,0-.5-1.024,4.78,4.78,0,0,0-1.731-.628,8.186,8.186,0,0,1-1.96-.633,2.788,2.788,0,0,1-1.072-.879,2.1,2.1,0,0,1-.347-1.213,2.467,2.467,0,0,1,.989-1.978,3.861,3.861,0,0,1,2.527-.809,3.974,3.974,0,0,1,2.624.835,2.652,2.652,0,0,1,1.006,2.136h-1.635a1.468,1.468,0,0,0-.567-1.151,2.124,2.124,0,0,0-1.428-.483,2.223,2.223,0,0,0-1.389.387,1.217,1.217,0,0,0-.5,1.011.986.986,0,0,0,.466.888,5.731,5.731,0,0,0,1.683.571,8.77,8.77,0,0,1,1.973.65,2.878,2.878,0,0,1,1.121.91,2.237,2.237,0,0,1,.365,1.3,2.434,2.434,0,0,1-1.02,2.043,4.277,4.277,0,0,1-2.646.769,4.789,4.789,0,0,1-2.021-.4,3.288,3.288,0,0,1-1.375-1.129,2.722,2.722,0,0,1-.5-1.569h1.626a1.683,1.683,0,0,0,.655,1.3,2.54,2.54,0,0,0,1.613.479,2.622,2.622,0,0,0,1.481-.374A1.148,1.148,0,0,0,218.171,14.478Z" transform="translate(475 9821)" fill="#12263f"/>
    <g id="Capa_1" data-name="Capa 1" transform="translate(595 9694)">
      <rect id="Rectángulo_35795" data-name="Rectángulo 35795" width="100" height="100" fill="#104c82"/>
      <g id="Grupo_82981" data-name="Grupo 82981" clip-path="url(#clip-path)">
        <g id="Grupo_82980" data-name="Grupo 82980">
          <g id="Grupo_82968" data-name="Grupo 82968">
            <path id="Trazado_135360" data-name="Trazado 135360" d="M-19.53,88.62-3.21,143.7a5.75,5.75,0,0,0,5.52,4.13l66.21.18a6.12,6.12,0,0,0,6.13-6.45h0a6.11,6.11,0,0,0-6.11-5.79H43.22L22.94,79.27H-12.55A7.28,7.28,0,0,0-18.385,82.2,7.28,7.28,0,0,0-19.53,88.62Z" fill="#375a64"/>
            <path id="Trazado_135361" data-name="Trazado 135361" d="M-14.66,81c.12,0,4.63,13.14,10.07,29.45S5.16,140,5,140.08.4,126.93-5,110.62-14.79,81.06-14.66,81Z" fill="#0b3360"/>
          </g>
          <g id="Grupo_82970" data-name="Grupo 82970">
            <g id="Grupo_82969" data-name="Grupo 82969">
              <path id="Trazado_135362" data-name="Trazado 135362" d="M3.43,66.64,9.65,97.69,8.54,121l41.78-7L48.68,93.63V76.77L58.89,96.62l8-15.4L52.26,54.76h0a24.67,24.67,0,0,0-9.55-6.19,19.86,19.86,0,0,0-6-1.15h0a24,24,0,0,1-14.46,0l-2.43.27h-.19A18.46,18.46,0,0,0,3.52,65.11Z" fill="#ffa726"/>
              <path id="Trazado_135363" data-name="Trazado 135363" d="M19.83,47.71S2.66,47.84.54,66L.25,79.27,15,79.14Z" fill="#ffa726"/>
            </g>
            <path id="Trazado_135364" data-name="Trazado 135364" d="M60.84,71c0,.13-13.51.24-30.17.24S.5,71.16.5,71s13.5-.2,30.17-.2S60.84,70.91,60.84,71Z" fill="#fafafa"/>
            <path id="Trazado_135365" data-name="Trazado 135365" d="M60.84,73.91c0,.13-13.51.23-30.17.23S.5,74,.5,73.91s13.51-.23,30.17-.23S60.84,73.78,60.84,73.91Z" fill="#fafafa"/>
            <path id="Trazado_135366" data-name="Trazado 135366" d="M59.87,68.65c0,.13-13.29.24-29.68.24S.5,68.78.5,68.65s13.29-.23,29.69-.23S59.87,68.52,59.87,68.65Z" fill="#fafafa"/>
            <path id="Trazado_135367" data-name="Trazado 135367" d="M48.42,96.62c-.13,0-.07-7.35.13-16.41s.47-16.4.59-16.4.08,7.35-.12,16.41S48.55,96.62,48.42,96.62Z" fill="#0b3360"/>
            <path id="Trazado_135368" data-name="Trazado 135368" d="M42.55,84.71s8.12.58,9.59,2.72S55.82,95.7,55,95.75a2.36,2.36,0,0,1-1.46-.46l-2.22-4s.36,3.81-1,3.89-7.92,1.39-7.92,1.39Z" fill="#ffbf9d"/>
            <path id="Trazado_135369" data-name="Trazado 135369" d="M.25,75.73V96.66A8,8,0,0,0,9.86,104l32.73-6.74-.06-13.43L14.28,89.25,13.9,75Z" fill="#ffa726"/>
            <path id="Trazado_135370" data-name="Trazado 135370" d="M18.93,102.32l.43-.12,1.27-.28,4.81-1,17-3.48-.16.2V83.85l.28.23L36.8,85.19,14.32,89.45h-.25v-.24c.21-6.23.39-11.42.52-15.1.07-1.78.13-3.2.17-4.21a8.185,8.185,0,0,1,.06-1.11,1.65,1.65,0,0,1,.05-.38,2.79,2.79,0,0,1,0,.38c0,.29,0,.65,0,1.12,0,1,0,2.43-.06,4.21-.09,3.68-.21,8.87-.35,15.1l-.24-.2,22.49-4.35,5.75-1.1.28-.06V97.75h-.16L25.5,101.07l-4.83.91-1.28.22A1.41,1.41,0,0,1,18.93,102.32Z" fill="#0b3360"/>
            <path id="Trazado_135371" data-name="Trazado 135371" d="M37.71,47.71a1.718,1.718,0,0,1,.13.31,5.37,5.37,0,0,1,.26.93,7.61,7.61,0,0,1-.16,3.52,9.21,9.21,0,0,1-2.84,4.38,8.74,8.74,0,0,1-6,2.25,8.06,8.06,0,0,1-5.89-2.39A8.29,8.29,0,0,1,21.06,52a7.59,7.59,0,0,1,.41-3.5,5.3,5.3,0,0,1,.42-.86c.12-.19.18-.29.2-.28s-.2.42-.45,1.2a7.88,7.88,0,0,0-.25,3.4,8.08,8.08,0,0,0,2.17,4.48,7.74,7.74,0,0,0,5.58,2.23,8.51,8.51,0,0,0,5.68-2.11,9.17,9.17,0,0,0,2.81-4.15A8.09,8.09,0,0,0,37.92,49C37.81,48.16,37.66,47.73,37.71,47.71Z" fill="#0b3360"/>
            <path id="Trazado_135372" data-name="Trazado 135372" d="M39.29,98.37a10,10,0,0,1,0-2.07c.05-1.27.11-3,.12-5s0-3.69-.06-5a10.51,10.51,0,0,1,0-2.06,8.07,8.07,0,0,1,.32,2c.11,1.28.21,3,.2,5s-.13,3.71-.26,5A8.87,8.87,0,0,1,39.29,98.37Z" fill="#fafafa"/>
            <path id="Trazado_135373" data-name="Trazado 135373" d="M37.6,98.71a9.56,9.56,0,0,1-.06-2c0-1.45,0-3.1.05-4.93V86.79a9.4,9.4,0,0,1,.08-2.05,9,9,0,0,1,.25,2c.09,1.26.15,3,.14,5s-.09,3.68-.19,4.94A8.92,8.92,0,0,1,37.6,98.71Z" fill="#fafafa"/>
          </g>
          <g id="Grupo_82971" data-name="Grupo 82971">
            <path id="Trazado_135374" data-name="Trazado 135374" d="M32.68,101.51l63.5.61,11.84-33.47-46.18.32L51.12,99.06l-18.44.28Z" fill="#375a64"/>
            <path id="Trazado_135375" data-name="Trazado 135375" d="M80.83,88.27a2.57,2.57,0,1,1,2.9-2.19,2.57,2.57,0,0,1-2.9,2.19Z" fill="#fff"/>
          </g>
          <g id="Grupo_82979" data-name="Grupo 82979">
            <path id="Trazado_135376" data-name="Trazado 135376" d="M27.5,10.92c.6-2.23,2.28-3.33,4.46-4.07a7.23,7.23,0,0,1,6.56,1.06c1.22.94,2.19,2.3,3.64,2.8,2.4.84,5.21-1,7.51.12a3.37,3.37,0,0,1,1.79,3.75,3.39,3.39,0,0,1-3.34,2.49,2.9,2.9,0,0,1,1.14,4.19,4.36,4.36,0,0,1-4.43,1.62,9.2,9.2,0,0,1-4.31-2.42c-1.24-1.11-2.35-2.37-3.67-3.38a7.18,7.18,0,0,0-4.6-1.69,6.54,6.54,0,0,0-5.19,3.84,16.74,16.74,0,0,0-1.36,6.58,28.26,28.26,0,0,1-.83,6.7c-.08.25-.2.54-.45.62s-.68-.28-.86-.62A33.12,33.12,0,0,1,19.77,20.2c-.25-2.5-.18-4.86,1.19-7s4.84-3.65,6.54-2.32" fill="#0b3360"/>
            <g id="Grupo_82977" data-name="Grupo 82977">
              <g id="Grupo_82972" data-name="Grupo 82972">
                <path id="Trazado_135377" data-name="Trazado 135377" d="M23.14,21.37,22,46.65c-.2,4.3.39,10.65,7.2,10.65h0c5.91-.45,7.66-6,7.84-10,.08-1.9.16-3.49.18-3.68,0,0,6.46-.32,7.22-6.66.36-3.07.6-9.45.75-15.22A11.92,11.92,0,0,0,34.53,9.62l-.61-.06C27.26,9.24,23.28,14.71,23.14,21.37Z" fill="#ffbf9d"/>
                <path id="Trazado_135378" data-name="Trazado 135378" d="M37.23,43.55a14.87,14.87,0,0,1-8-3.24s1.48,4.78,7.88,4.88Z" fill="#ff9a6c"/>
              </g>
              <g id="Grupo_82976" data-name="Grupo 82976">
                <g id="Grupo_82975" data-name="Grupo 82975">
                  <g id="Grupo_82973" data-name="Grupo 82973">
                    <path id="Trazado_135379" data-name="Trazado 135379" d="M42.87,25.82a.91.91,0,0,1-1,.82.88.88,0,0,1-.85-.92.91.91,0,0,1,1-.82.88.88,0,0,1,.85.92Z" fill="#0b3360"/>
                    <path id="Trazado_135380" data-name="Trazado 135380" d="M43.48,24.73c-.13.11-.76-.47-1.74-.57s-1.74.31-1.84.18.1-.26.43-.46a2.52,2.52,0,0,1,1.49-.29,2.4,2.4,0,0,1,1.36.61C43.46,24.46,43.54,24.69,43.48,24.73Z" fill="#0b3360"/>
                  </g>
                  <g id="Grupo_82974" data-name="Grupo 82974">
                    <path id="Trazado_135381" data-name="Trazado 135381" d="M33.26,25.13a.92.92,0,0,1-1,.82.85.85,0,0,1-.84-.91.91.91,0,0,1,1-.83.88.88,0,0,1,.84.92Z" fill="#0b3360"/>
                    <path id="Trazado_135382" data-name="Trazado 135382" d="M33.86,23.89c-.13.11-.76-.47-1.74-.57s-1.74.31-1.84.18.09-.26.43-.46a2.52,2.52,0,0,1,1.49-.29,2.4,2.4,0,0,1,1.36.61C33.84,23.62,33.92,23.85,33.86,23.89Z" fill="#0b3360"/>
                  </g>
                  <path id="Trazado_135383" data-name="Trazado 135383" d="M36.63,31.51a7.12,7.12,0,0,1,1.62-.11c.25,0,.49,0,.55-.19a1.27,1.27,0,0,0-.09-.76c-.17-.63-.34-1.29-.53-2a32.89,32.89,0,0,1-1.13-5.14,32.491,32.491,0,0,1,1.54,5c.18.69.34,1.35.5,2a1.42,1.42,0,0,1,0,1,.65.65,0,0,1-.45.32,1.58,1.58,0,0,1-.43,0,6,6,0,0,1-1.58-.12Z" fill="#0b3360"/>
                  <path id="Trazado_135384" data-name="Trazado 135384" d="M33.69,31.88c.16,0,0,1.07.87,1.92s2,.85,2,1-.27.18-.75.14a2.6,2.6,0,0,1-1.64-.77,2.29,2.29,0,0,1-.67-1.6C33.47,32.12,33.61,31.87,33.69,31.88Z" fill="#0b3360"/>
                </g>
                <path id="Trazado_135385" data-name="Trazado 135385" d="M34.52,20.09c-.13.26-1.09,0-2.25,0s-2.12.23-2.25,0,.14-.35.54-.57a3.62,3.62,0,0,1,1.71-.4,3.57,3.57,0,0,1,1.71.39C34.38,19.74,34.57,20,34.52,20.09Z" fill="#0b3360"/>
                <path id="Trazado_135386" data-name="Trazado 135386" d="M43.42,21.87c-.2.2-.84-.1-1.65-.2s-1.51,0-1.64-.26.07-.33.39-.51a2.41,2.41,0,0,1,1.38-.22,2.32,2.32,0,0,1,1.28.59C43.44,21.53,43.51,21.77,43.42,21.87Z" fill="#0b3360"/>
              </g>
            </g>
            <g id="Grupo_82978" data-name="Grupo 82978">
              <path id="Trazado_135387" data-name="Trazado 135387" d="M23.16,26.13c-.1-.06-4.23-1.75-4.55,2.61s4.12,3.78,4.14,3.66S23.16,26.13,23.16,26.13Z" fill="#ffbf9d"/>
              <path id="Trazado_135388" data-name="Trazado 135388" d="M21.54,30.65a.466.466,0,0,0-.22.09.72.72,0,0,1-.57,0A1.89,1.89,0,0,1,20,29a2.61,2.61,0,0,1,.29-1.07.87.87,0,0,1,.62-.54.39.39,0,0,1,.43.24v.22c0,.01.1-.06.08-.25a.54.54,0,0,0-.16-.28.5.5,0,0,0-.41-.14,1.05,1.05,0,0,0-.84.61,2.56,2.56,0,0,0-.35,1.2,2,2,0,0,0,1,2,.82.82,0,0,0,.71-.06C21.52,30.75,21.55,30.66,21.54,30.65Z" fill="#ff9a6c"/>
            </g>
            <path id="Trazado_135389" data-name="Trazado 135389" d="M46.66,20.58a9.22,9.22,0,0,1-8-2.7c-1.4-1.48-2.4-3.49-4.27-4.29a5.22,5.22,0,0,0-4,.12,10.13,10.13,0,0,0-3.28,2.43C28,19.5,26.82,23,25.62,26.28a1.72,1.72,0,0,1-.61.95,1.38,1.38,0,0,1-1.69-.57,5.38,5.38,0,0,1-.88-2.95,18,18,0,0,1,.79-7,12.3,12.3,0,0,1,4-5.78,11.58,11.58,0,0,1,8.41-2.2,14.26,14.26,0,0,1,7.9,3.81,8.26,8.26,0,0,1,2.34,3.36" fill="#0b3360"/>
          </g>
        </g>
      </g>
    </g>
  </g>
</svg>
