<svg xmlns="http://www.w3.org/2000/svg" xmlns:xlink="http://www.w3.org/1999/xlink" width="310" height="167" viewBox="0 0 310 167">
  <defs>
    <clipPath id="clip-path">
      <rect id="Rectángulo_35794" data-name="Rectángulo 35794" width="100" height="100" fill="none"/>
    </clipPath>
  </defs>
  <g id="Grupo_83005" data-name="Grupo 83005" transform="translate(-1110 -9681)">
    <rect id="Rectángulo_35789" data-name="Rectángulo 35789" width="310" height="167" transform="translate(1110 9681)" fill="#f2f2f3"/>
    <path id="Trazado_135504" data-name="Trazado 135504" d="M54.7,11.085H49.153V15.62H55.6V17h-8.13V4.2h8.042v1.38H49.153V9.705H54.7Zm4.28-3.595.053,1.2a3.465,3.465,0,0,1,2.848-1.371q3.015,0,3.041,3.4V17H63.294V10.707a2.189,2.189,0,0,0-.47-1.521,1.884,1.884,0,0,0-1.437-.492A2.347,2.347,0,0,0,60,9.116a2.865,2.865,0,0,0-.932,1.107V17H57.441V7.49Zm12.208,8.358a2.342,2.342,0,0,0,1.521-.527A1.855,1.855,0,0,0,73.428,14h1.538a2.949,2.949,0,0,1-.562,1.556,3.7,3.7,0,0,1-1.384,1.178,3.994,3.994,0,0,1-1.833.439,3.918,3.918,0,0,1-3.089-1.3,5.163,5.163,0,0,1-1.147-3.546v-.272a5.725,5.725,0,0,1,.51-2.47,3.883,3.883,0,0,1,1.463-1.679,4.157,4.157,0,0,1,2.254-.6,3.814,3.814,0,0,1,2.659.958,3.424,3.424,0,0,1,1.129,2.487H73.428a2.241,2.241,0,0,0-.7-1.516,2.174,2.174,0,0,0-1.551-.593,2.276,2.276,0,0,0-1.92.892,4.19,4.19,0,0,0-.681,2.58v.308a4.106,4.106,0,0,0,.677,2.531A2.287,2.287,0,0,0,71.187,15.849ZM82.666,17a3.416,3.416,0,0,1-.229-1,3.628,3.628,0,0,1-2.707,1.178,3.357,3.357,0,0,1-2.307-.8,2.573,2.573,0,0,1-.9-2.017,2.688,2.688,0,0,1,1.129-2.307,5.325,5.325,0,0,1,3.177-.822h1.582v-.747a1.826,1.826,0,0,0-.51-1.358,2.049,2.049,0,0,0-1.5-.505,2.371,2.371,0,0,0-1.459.439,1.3,1.3,0,0,0-.589,1.063H76.715a2.244,2.244,0,0,1,.505-1.375A3.449,3.449,0,0,1,78.592,7.7a4.613,4.613,0,0,1,1.9-.387,3.759,3.759,0,0,1,2.575.822,2.964,2.964,0,0,1,.967,2.263v4.377a5.351,5.351,0,0,0,.334,2.083V17Zm-2.7-1.239a2.858,2.858,0,0,0,1.45-.4,2.392,2.392,0,0,0,.993-1.028V12.386H81.136q-2.988,0-2.988,1.749a1.48,1.48,0,0,0,.51,1.2A1.959,1.959,0,0,0,79.967,15.761ZM91.182,8.949a4.873,4.873,0,0,0-.8-.062,2.143,2.143,0,0,0-2.171,1.362V17H86.585V7.49h1.582l.026,1.1a2.532,2.532,0,0,1,2.268-1.274,1.661,1.661,0,0,1,.721.123Zm.94,3.217a5.589,5.589,0,0,1,1.028-3.538,3.545,3.545,0,0,1,5.44-.083L98.67,7.49h1.485v9.281a3.869,3.869,0,0,1-1.094,2.909,4.038,4.038,0,0,1-2.94,1.063,4.891,4.891,0,0,1-2.013-.439,3.465,3.465,0,0,1-1.5-1.2l.844-.976a3.18,3.18,0,0,0,2.558,1.292,2.491,2.491,0,0,0,1.85-.668,2.553,2.553,0,0,0,.664-1.881v-.817a3.342,3.342,0,0,1-2.663,1.125,3.248,3.248,0,0,1-2.7-1.345A5.876,5.876,0,0,1,92.123,12.166Zm1.635.185a4.264,4.264,0,0,0,.659,2.527,2.142,2.142,0,0,0,1.846.918,2.382,2.382,0,0,0,2.259-1.4V10.057A2.41,2.41,0,0,0,96.28,8.694a2.161,2.161,0,0,0-1.854.923A4.644,4.644,0,0,0,93.757,12.351ZM108.479,17a3.416,3.416,0,0,1-.229-1,3.628,3.628,0,0,1-2.707,1.178,3.357,3.357,0,0,1-2.307-.8,2.573,2.573,0,0,1-.9-2.017,2.688,2.688,0,0,1,1.129-2.307,5.325,5.325,0,0,1,3.177-.822h1.582v-.747a1.826,1.826,0,0,0-.51-1.358,2.049,2.049,0,0,0-1.5-.505,2.371,2.371,0,0,0-1.459.439,1.3,1.3,0,0,0-.589,1.063h-1.635a2.244,2.244,0,0,1,.505-1.375,3.449,3.449,0,0,1,1.371-1.05,4.613,4.613,0,0,1,1.9-.387,3.759,3.759,0,0,1,2.575.822,2.964,2.964,0,0,1,.967,2.263v4.377a5.351,5.351,0,0,0,.334,2.083V17Zm-2.7-1.239a2.858,2.858,0,0,0,1.45-.4,2.392,2.392,0,0,0,.993-1.028V12.386H106.95q-2.988,0-2.988,1.749a1.48,1.48,0,0,0,.51,1.2A1.959,1.959,0,0,0,105.781,15.761ZM112,12.166a5.571,5.571,0,0,1,1.037-3.52,3.529,3.529,0,0,1,5.361-.189V3.5h1.626V17h-1.494l-.079-1.02a3.311,3.311,0,0,1-2.716,1.2,3.248,3.248,0,0,1-2.694-1.354A5.634,5.634,0,0,1,112,12.289Zm1.626.185a4.218,4.218,0,0,0,.668,2.531,2.159,2.159,0,0,0,1.846.914,2.372,2.372,0,0,0,2.259-1.389V10.039a2.39,2.39,0,0,0-2.241-1.345,2.17,2.17,0,0,0-1.863.923A4.644,4.644,0,0,0,113.629,12.351Zm8.49-.193a5.617,5.617,0,0,1,.549-2.514A4.1,4.1,0,0,1,124.2,7.921a4.163,4.163,0,0,1,2.237-.606,4.01,4.01,0,0,1,3.142,1.345,5.174,5.174,0,0,1,1.2,3.577v.114a5.666,5.666,0,0,1-.532,2.492,4.038,4.038,0,0,1-1.521,1.718,4.211,4.211,0,0,1-2.272.615,4,4,0,0,1-3.133-1.345,5.147,5.147,0,0,1-1.2-3.56Zm1.635.193a4.068,4.068,0,0,0,.734,2.54,2.487,2.487,0,0,0,3.933-.013,4.449,4.449,0,0,0,.729-2.72,4.061,4.061,0,0,0-.743-2.536,2.361,2.361,0,0,0-1.973-.971,2.335,2.335,0,0,0-1.942.958A4.416,4.416,0,0,0,123.754,12.351Zm14.6,2.127a1.2,1.2,0,0,0-.5-1.024,4.78,4.78,0,0,0-1.731-.628,8.186,8.186,0,0,1-1.96-.633,2.788,2.788,0,0,1-1.072-.879,2.1,2.1,0,0,1-.347-1.213,2.467,2.467,0,0,1,.989-1.978,3.861,3.861,0,0,1,2.527-.809,3.974,3.974,0,0,1,2.624.835,2.652,2.652,0,0,1,1.006,2.136h-1.635a1.468,1.468,0,0,0-.567-1.151,2.124,2.124,0,0,0-1.428-.483,2.223,2.223,0,0,0-1.389.387,1.217,1.217,0,0,0-.5,1.011.986.986,0,0,0,.466.888,5.731,5.731,0,0,0,1.683.571,8.77,8.77,0,0,1,1.973.65,2.878,2.878,0,0,1,1.121.91,2.237,2.237,0,0,1,.365,1.3,2.434,2.434,0,0,1-1.02,2.043,4.277,4.277,0,0,1-2.646.769,4.789,4.789,0,0,1-2.021-.4,3.288,3.288,0,0,1-1.375-1.129,2.722,2.722,0,0,1-.5-1.569h1.626a1.683,1.683,0,0,0,.655,1.3,2.54,2.54,0,0,0,1.613.479,2.622,2.622,0,0,0,1.481-.374A1.148,1.148,0,0,0,138.353,14.478Zm11.312.141,2.215-7.128h1.74L149.8,18.468q-.888,2.373-2.821,2.373l-.308-.026-.606-.114V19.382l.439.035a2.164,2.164,0,0,0,1.288-.334,2.417,2.417,0,0,0,.76-1.222l.36-.967-3.393-9.4h1.775Zm9.431-2.461a5.617,5.617,0,0,1,.549-2.514,4.1,4.1,0,0,1,1.529-1.723,4.163,4.163,0,0,1,2.237-.606,4.01,4.01,0,0,1,3.142,1.345,5.174,5.174,0,0,1,1.2,3.577v.114a5.666,5.666,0,0,1-.532,2.492,4.038,4.038,0,0,1-1.521,1.718,4.211,4.211,0,0,1-2.272.615,4,4,0,0,1-3.133-1.345,5.147,5.147,0,0,1-1.2-3.56Zm1.635.193a4.068,4.068,0,0,0,.734,2.54,2.487,2.487,0,0,0,3.933-.013,4.449,4.449,0,0,0,.729-2.72,4.061,4.061,0,0,0-.743-2.536,2.361,2.361,0,0,0-1.973-.971,2.335,2.335,0,0,0-1.942.958A4.416,4.416,0,0,0,160.73,12.351ZM172,5.188v2.3h1.775V8.747H172v5.9a1.32,1.32,0,0,0,.237.858,1,1,0,0,0,.809.286,3.937,3.937,0,0,0,.773-.105V17a4.742,4.742,0,0,1-1.248.175,2.025,2.025,0,0,1-1.644-.659,2.832,2.832,0,0,1-.554-1.872v-5.9H168.64V7.49h1.731v-2.3Zm8.271,3.762a4.873,4.873,0,0,0-.8-.062A2.143,2.143,0,0,0,177.3,10.25V17h-1.626V7.49h1.582l.026,1.1a2.532,2.532,0,0,1,2.268-1.274,1.661,1.661,0,0,1,.721.123Zm.888,3.208a5.617,5.617,0,0,1,.549-2.514,4.1,4.1,0,0,1,1.529-1.723,4.163,4.163,0,0,1,2.237-.606,4.01,4.01,0,0,1,3.142,1.345,5.174,5.174,0,0,1,1.2,3.577v.114a5.666,5.666,0,0,1-.532,2.492,4.038,4.038,0,0,1-1.521,1.718,4.211,4.211,0,0,1-2.272.615,4,4,0,0,1-3.133-1.345,5.147,5.147,0,0,1-1.2-3.56Zm1.635.193a4.068,4.068,0,0,0,.734,2.54,2.487,2.487,0,0,0,3.933-.013,4.449,4.449,0,0,0,.729-2.72,4.061,4.061,0,0,0-.743-2.536,2.361,2.361,0,0,0-1.973-.971,2.335,2.335,0,0,0-1.942.958A4.416,4.416,0,0,0,182.791,12.351Zm14.6,2.127a1.2,1.2,0,0,0-.5-1.024,4.78,4.78,0,0,0-1.731-.628,8.186,8.186,0,0,1-1.96-.633,2.788,2.788,0,0,1-1.072-.879,2.1,2.1,0,0,1-.347-1.213,2.467,2.467,0,0,1,.989-1.978,3.861,3.861,0,0,1,2.527-.809,3.974,3.974,0,0,1,2.624.835,2.652,2.652,0,0,1,1.006,2.136h-1.635a1.468,1.468,0,0,0-.567-1.151A2.124,2.124,0,0,0,195.3,8.65a2.223,2.223,0,0,0-1.389.387,1.217,1.217,0,0,0-.5,1.011.986.986,0,0,0,.466.888,5.731,5.731,0,0,0,1.683.571,8.77,8.77,0,0,1,1.973.65,2.878,2.878,0,0,1,1.121.91,2.237,2.237,0,0,1,.365,1.3A2.434,2.434,0,0,1,198,16.407a4.277,4.277,0,0,1-2.646.769,4.789,4.789,0,0,1-2.021-.4,3.288,3.288,0,0,1-1.375-1.129,2.722,2.722,0,0,1-.5-1.569h1.626a1.683,1.683,0,0,0,.655,1.3,2.54,2.54,0,0,0,1.613.479,2.622,2.622,0,0,0,1.481-.374A1.148,1.148,0,0,0,197.389,14.478ZM211.46,17a3.416,3.416,0,0,1-.229-1,3.628,3.628,0,0,1-2.707,1.178,3.357,3.357,0,0,1-2.307-.8,2.573,2.573,0,0,1-.9-2.017,2.688,2.688,0,0,1,1.129-2.307,5.325,5.325,0,0,1,3.177-.822h1.582v-.747a1.826,1.826,0,0,0-.51-1.358,2.049,2.049,0,0,0-1.5-.505,2.371,2.371,0,0,0-1.459.439,1.3,1.3,0,0,0-.589,1.063H205.51a2.244,2.244,0,0,1,.505-1.375,3.449,3.449,0,0,1,1.371-1.05,4.613,4.613,0,0,1,1.9-.387,3.759,3.759,0,0,1,2.575.822,2.964,2.964,0,0,1,.967,2.263v4.377a5.351,5.351,0,0,0,.334,2.083V17Zm-2.7-1.239a2.858,2.858,0,0,0,1.45-.4,2.392,2.392,0,0,0,.993-1.028V12.386h-1.274q-2.988,0-2.988,1.749a1.48,1.48,0,0,0,.51,1.2A1.959,1.959,0,0,0,208.762,15.761Zm10.433.088a2.342,2.342,0,0,0,1.521-.527A1.855,1.855,0,0,0,221.436,14h1.538a2.949,2.949,0,0,1-.562,1.556,3.7,3.7,0,0,1-1.384,1.178,3.994,3.994,0,0,1-1.833.439,3.918,3.918,0,0,1-3.089-1.3,5.163,5.163,0,0,1-1.147-3.546v-.272a5.725,5.725,0,0,1,.51-2.47,3.883,3.883,0,0,1,1.463-1.679,4.157,4.157,0,0,1,2.254-.6,3.814,3.814,0,0,1,2.659.958,3.424,3.424,0,0,1,1.129,2.487h-1.538a2.241,2.241,0,0,0-.7-1.516,2.174,2.174,0,0,0-1.551-.593,2.276,2.276,0,0,0-1.92.892,4.19,4.19,0,0,0-.681,2.58v.308a4.106,4.106,0,0,0,.677,2.531A2.287,2.287,0,0,0,219.195,15.849Zm7.813-10.661v2.3h1.775V8.747h-1.775v5.9a1.32,1.32,0,0,0,.237.858,1,1,0,0,0,.809.286,3.937,3.937,0,0,0,.773-.105V17a4.742,4.742,0,0,1-1.248.175,2.025,2.025,0,0,1-1.644-.659,2.832,2.832,0,0,1-.554-1.872v-5.9h-1.731V7.49h1.731v-2.3Zm3.067,6.97a5.617,5.617,0,0,1,.549-2.514,4.1,4.1,0,0,1,1.529-1.723,4.163,4.163,0,0,1,2.237-.606,4.01,4.01,0,0,1,3.142,1.345,5.174,5.174,0,0,1,1.2,3.577v.114a5.666,5.666,0,0,1-.532,2.492,4.038,4.038,0,0,1-1.521,1.718,4.211,4.211,0,0,1-2.272.615,4,4,0,0,1-3.133-1.345,5.147,5.147,0,0,1-1.2-3.56Zm1.635.193a4.068,4.068,0,0,0,.734,2.54,2.487,2.487,0,0,0,3.933-.013,4.449,4.449,0,0,0,.729-2.72,4.061,4.061,0,0,0-.743-2.536,2.361,2.361,0,0,0-1.973-.971,2.335,2.335,0,0,0-1.942.958A4.416,4.416,0,0,0,231.71,12.351Zm13.658-3.4a4.873,4.873,0,0,0-.8-.062A2.143,2.143,0,0,0,242.4,10.25V17h-1.626V7.49h1.582l.026,1.1a2.532,2.532,0,0,1,2.268-1.274,1.661,1.661,0,0,1,.721.123Zm5.273,8.227a4.155,4.155,0,0,1-3.146-1.27,4.714,4.714,0,0,1-1.213-3.4v-.3a5.707,5.707,0,0,1,.541-2.527,4.217,4.217,0,0,1,1.512-1.74,3.8,3.8,0,0,1,2.1-.628,3.562,3.562,0,0,1,2.883,1.222,5.289,5.289,0,0,1,1.028,3.5v.677h-6.442a3.38,3.38,0,0,0,.822,2.272,2.583,2.583,0,0,0,2,.866,2.832,2.832,0,0,0,1.459-.352,3.666,3.666,0,0,0,1.046-.932l.993.773A3.993,3.993,0,0,1,250.642,17.176Zm-.2-8.525a2.169,2.169,0,0,0-1.652.716,3.482,3.482,0,0,0-.826,2.008h4.764v-.123a3.1,3.1,0,0,0-.668-1.92A2.042,2.042,0,0,0,250.44,8.65Zm11.329,5.827a1.2,1.2,0,0,0-.5-1.024,4.78,4.78,0,0,0-1.731-.628,8.186,8.186,0,0,1-1.96-.633,2.788,2.788,0,0,1-1.072-.879,2.1,2.1,0,0,1-.347-1.213,2.467,2.467,0,0,1,.989-1.978,3.861,3.861,0,0,1,2.527-.809,3.974,3.974,0,0,1,2.624.835,2.652,2.652,0,0,1,1.006,2.136h-1.635a1.468,1.468,0,0,0-.567-1.151,2.124,2.124,0,0,0-1.428-.483,2.223,2.223,0,0,0-1.389.387,1.217,1.217,0,0,0-.5,1.011.986.986,0,0,0,.466.888,5.731,5.731,0,0,0,1.683.571,8.77,8.77,0,0,1,1.973.65,2.878,2.878,0,0,1,1.121.91,2.237,2.237,0,0,1,.365,1.3,2.434,2.434,0,0,1-1.02,2.043,4.277,4.277,0,0,1-2.646.769,4.789,4.789,0,0,1-2.021-.4,3.288,3.288,0,0,1-1.375-1.129,2.722,2.722,0,0,1-.5-1.569h1.626a1.683,1.683,0,0,0,.655,1.3,2.54,2.54,0,0,0,1.613.479,2.622,2.622,0,0,0,1.481-.374A1.148,1.148,0,0,0,261.769,14.478Zm3.779,1.67a1.018,1.018,0,0,1,.25-.7.954.954,0,0,1,.751-.281.983.983,0,0,1,.76.281,1,1,0,0,1,.259.7.944.944,0,0,1-.259.677,1,1,0,0,1-.76.272.9.9,0,0,1-1-.949Z" transform="translate(1105 9821)" fill="#12263f"/>
    <g id="Capa_1" data-name="Capa 1" transform="translate(1215 9694)">
      <rect id="Rectángulo_35793" data-name="Rectángulo 35793" width="100" height="100" fill="#104c82"/>
      <g id="Grupo_82967" data-name="Grupo 82967" clip-path="url(#clip-path)">
        <g id="Grupo_82966" data-name="Grupo 82966">
          <g id="Grupo_82950" data-name="Grupo 82950">
            <path id="Trazado_135305" data-name="Trazado 135305" d="M59,87.33l-.57-.17c-2.66,1.1-4.43,3.73-5.35,6.46s-1.14,5.65-1.68,8.48-1.46,5.73-3.46,7.8a32.3,32.3,0,0,0,4.14,3,3.33,3.33,0,0,0,1.55.6,3.18,3.18,0,0,0,2.26-1.25c3-3.21,3.36-9,3.68-13.36S60.2,91.54,59,87.33Z" fill="#32c4b4"/>
            <g id="Grupo_82949" data-name="Grupo 82949" opacity="0.2">
              <path id="Trazado_135306" data-name="Trazado 135306" d="M56.83,89s-6.52,22.8-6.1,23.09,1.71,1.08,1.71,1.08l6-23.85Z"/>
            </g>
            <path id="Trazado_135307" data-name="Trazado 135307" d="M61.1,83.39a2,2,0,0,0-1.75-1.74,2.8,2.8,0,0,0-2.37,1,4.91,4.91,0,0,0-1,2.45,3.43,3.43,0,0,0,1,3.43,2.49,2.49,0,0,0,2.72,0,3.66,3.66,0,0,0,1.51-2.37,7.12,7.12,0,0,0-.09-2.87" fill="#32c4b4"/>
            <path id="Trazado_135308" data-name="Trazado 135308" d="M58.94,87.16a1.82,1.82,0,0,1-.32-.79,5,5,0,0,1,0-2.06,4.8,4.8,0,0,1,.82-1.9c.31-.43.57-.63.59-.61a6.08,6.08,0,0,1-.44.71,5.57,5.57,0,0,0-.72,1.85,5.47,5.47,0,0,0,0,2,5.319,5.319,0,0,1,.07.8Z" fill="#012739"/>
            <path id="Trazado_135309" data-name="Trazado 135309" d="M58,89.27a.63.63,0,0,1-.36.11,1.31,1.31,0,0,1-.87-.3,1.29,1.29,0,0,1-.46-.8V87.9a1.818,1.818,0,0,0,.58,1,2.48,2.48,0,0,0,1.11.37Z" fill="#012739"/>
          </g>
          <path id="Trazado_135310" data-name="Trazado 135310" d="M92.2,57.84l4.89,10.57L86.21,62.14Z" fill="#ffbf9d"/>
          <g id="Grupo_82955" data-name="Grupo 82955">
            <g id="Grupo_82952" data-name="Grupo 82952">
              <g id="Grupo_82951" data-name="Grupo 82951">
                <path id="Trazado_135311" data-name="Trazado 135311" d="M3.92,24.27,18.65,43.66,25,41.98l3.2,1.81,5.53-10.17L30.4,31.88l-2.46-6.24Z" fill="#fafafa"/>
                <path id="Trazado_135312" data-name="Trazado 135312" d="M3.92,24.27l24,1.29h0v.05c.78,2,1.61,4.07,2.46,6.24V31.8l3.33,1.75h.07v.07c-.91,1.67-1.86,3.41-2.82,5.19s-1.83,3.35-2.71,5v.07h-.08L25,42.05h0l-6.36,1.69h0L3.92,24.27,18.71,43.62h-.08L25,41.9h0l3.2,1.81h-.12q1.34-2.43,2.71-5c1-1.78,1.92-3.53,2.82-5.2v.11L30.36,32h0l-2.45-6.25.06.05Z" fill="#012739"/>
              </g>
              <path id="Trazado_135313" data-name="Trazado 135313" d="M21.59,29.92A3.47,3.47,0,0,1,23,34.67a3.6,3.6,0,0,1-4.81,1.48,3.48,3.48,0,0,1-1.43-4.75,3.6,3.6,0,0,1,4.83-1.48Z" fill="#012739"/>
              <path id="Trazado_135314" data-name="Trazado 135314" d="M3.92,24.27S7.54,26,12,28.24s8,4.06,8,4.1-3.63-1.73-8-4S3.89,24.32,3.92,24.27Z" fill="#012739"/>
              <path id="Trazado_135315" data-name="Trazado 135315" d="M119,83.65h0A5.74,5.74,0,0,1,111.4,86L31.28,45.11l5.4-9.93,80.06,40.88A5.53,5.53,0,0,1,119,83.65Z" fill="#32c4b4"/>
              <path id="Trazado_135316" data-name="Trazado 135316" d="M37.65,34.63,31.3,46.31l-4.06-2.14L33.59,32.5Z" fill="#32c4b4"/>
            </g>
            <g id="Grupo_82953" data-name="Grupo 82953" opacity="0.3">
              <path id="Trazado_135317" data-name="Trazado 135317" d="M31.73,45.51l5.4-9.92,1.52.78-6.38,9.42Z"/>
            </g>
            <g id="Grupo_82954" data-name="Grupo 82954" opacity="0.5">
              <path id="Trazado_135318" data-name="Trazado 135318" d="M28.98,40.98l5.87-1.46.95-1.48-6.03,1.49Z" fill="#fff"/>
            </g>
          </g>
          <g id="Grupo_82956" data-name="Grupo 82956" opacity="0.2">
            <path id="Trazado_135319" data-name="Trazado 135319" d="M86.62,61.05a11.89,11.89,0,0,1,.3,12.59Z"/>
          </g>
          <g id="Grupo_82958" data-name="Grupo 82958">
            <path id="Trazado_135320" data-name="Trazado 135320" d="M86.19,79.42s4.94,8.48,5.61,16.07c.62,6.87-3.72,14.73-3.72,14.73l-7.5,28.24,2.21,48.28-12,.61L63.88,132,66,80.48Z" fill="#012739"/>
            <path id="Trazado_135321" data-name="Trazado 135321" d="M60.12,84s-14.59,52.52-11.45,58.4S67.9,181,67.9,181l13.52-7.45L66,137.46l11.75-25.83a29.54,29.54,0,0,0,7.8-11.76C87.69,93,83.94,81.7,83.94,81.7H60.45Z" fill="#012739"/>
            <path id="Trazado_135322" data-name="Trazado 135322" d="M86.19,91.38a1.338,1.338,0,0,0,.1.41,6.844,6.844,0,0,1,.19,1.2,29.23,29.23,0,0,1,.29,4.62,18.539,18.539,0,0,1-.36,3.3,11,11,0,0,1-.55,1.81,11.22,11.22,0,0,1-1,1.81,15.13,15.13,0,0,1-7.16,6l.07-.06L66.1,136.3v-.12l.68,1.57c5.76,13.5,11,25.71,14.73,34.54v.08h-.08l-9.92,5.41-2.7,1.46-.71.37-.24.12a1.569,1.569,0,0,1,.23-.15l.69-.4,2.68-1.5,9.87-5.49v.13l-14.82-34.5-.67-1.57v-.12c4.37-9.58,8.41-18.46,11.77-25.82h.05a14.94,14.94,0,0,0,7.07-5.86,11.31,11.31,0,0,0,.94-1.78,9.34,9.34,0,0,0,.55-1.78,18.23,18.23,0,0,0,.39-3.27,30.781,30.781,0,0,0-.22-4.6c-.06-.53-.12-.93-.16-1.21Z" fill="#375a64"/>
            <g id="Grupo_82957" data-name="Grupo 82957">
              <path id="Trazado_135323" data-name="Trazado 135323" d="M66,92.25h.27l.83-.06L70.21,92l11.23-.7h.14v11.2h0c-.54.46-1.12,1-1.69,1.45l-5.76,4.92-.07.06h-.09l-7.48-3.74h-.07V105c-.14-3.84-.25-7-.33-9.29,0-1.09-.06-2-.08-2.56v-.89a1.41,1.41,0,0,1,0,.25,3.658,3.658,0,0,0,.05.68c0,.62.08,1.49.14,2.59.11,2.24.26,5.4.45,9.21l-.07-.1,7.51,3.71h-.15l5.75-4.93,1.69-1.45V91.33l.14.13-11.16.56-3.18.15h-.85A1.2,1.2,0,0,1,66,92.25Z" fill="#375a64"/>
              <path id="Trazado_135324" data-name="Trazado 135324" d="M81.41,93.44a2.589,2.589,0,0,1-.6.12l-1.65.23c-1.39.17-3.32.35-5.46.49s-4.08.18-5.48.18H66.56a2.55,2.55,0,0,1-.61-.06,2.549,2.549,0,0,1,.61-.06l1.66-.07c1.4-.06,3.33-.14,5.46-.27s4.06-.29,5.46-.41l1.65-.13a2.291,2.291,0,0,1,.62-.02Z" fill="#375a64"/>
            </g>
          </g>
          <g id="Grupo_82960" data-name="Grupo 82960">
            <path id="Trazado_135325" data-name="Trazado 135325" d="M60.48,56.09A19.5,19.5,0,0,0,59,65.48c.22,2,1.43,7.3,1.43,7.3l-.16,10s26.61-2,26.59-2,.29-12.63,0-21.48-4.13-18-4.13-18-3.54-2-6.2-1.82S62.74,41,62.74,41Z" fill="#35afea"/>
            <path id="Trazado_135326" data-name="Trazado 135326" d="M62.31,41.32s-4.44.64-8.57,7.11c-4.26,6.69-6.21,9.45-6.21,9.45l12.14,7.93s6.69-10.08,7.52-12.25S69,41.12,62.31,41.32Z" fill="#35afea"/>
            <path id="Trazado_135327" data-name="Trazado 135327" d="M80.1,40.64s3.84,1.52,5.43,4c1,1.59,7.38,12.75,7.38,12.75l-7.3,5.08L80.1,47Z" fill="#35afea"/>
            <g id="Grupo_82959" data-name="Grupo 82959" opacity="0.2">
              <path id="Trazado_135328" data-name="Trazado 135328" d="M58.73,67.23l1.4.63s6.64-8.8,6.9-13.75L59.74,65.4l-1.22-.65Z"/>
            </g>
            <path id="Trazado_135329" data-name="Trazado 135329" d="M85.85,48.43a1,1,0,0,1,.06.25l.11.72c.09.62.2,1.53.33,2.65.25,2.24.52,5.34.69,8.78s.24,6.54.26,8.8v3.39a.79.79,0,0,1,0,.25V72.3c0-.67,0-1.57-.08-2.67-.06-2.25-.14-5.36-.32-8.79s-.42-6.53-.62-8.77c-.1-1.1-.19-2-.25-2.66l-.06-.72A.529.529,0,0,1,85.85,48.43Z" fill="#012739"/>
          </g>
          <g id="Grupo_82962" data-name="Grupo 82962">
            <g id="Grupo_82961" data-name="Grupo 82961">
              <path id="Trazado_135330" data-name="Trazado 135330" d="M83.92,28.3a73.8,73.8,0,0,0-2.62-8.25c-1-3.2-1.84-6.74-4.42-8.9A13.52,13.52,0,0,0,70.77,8.7a14.92,14.92,0,0,0-6-.3c-1,.2-1.92.58-2.9.82a18.36,18.36,0,0,0-3.38.84c-2.19,1-3.31,3.51-3.63,5.89s-.06,4.82-.4,7.21c-.17,1.14-.47,2.26-.75,3.38-1,2.18-2.11,4.35-2,6.68.12,1.69.89,3.25,1.26,4.9s.23,3.63-1.11,4.67A2.42,2.42,0,0,0,56,41.18a1.8,1.8,0,0,0,.67.56,4.33,4.33,0,0,0,2.18.17A15.5,15.5,0,0,0,65,40.43l10.37-.88c2.68,1.08,5.91-.42,7.45-2.86A11.64,11.64,0,0,0,83.92,28.3Z" fill="#012739"/>
              <path id="Trazado_135331" data-name="Trazado 135331" d="M62.88,10.61c-1,.2-2.06.05-3.05.33a4.89,4.89,0,0,0-3,3A14.33,14.33,0,0,0,56,18.35c-.09,1.32-.19,2.65-.28,4a12.64,12.64,0,0,1-.35,2.53,25.59,25.59,0,0,0-1,4.55,12.8,12.8,0,0,0,3,9c.91,1,5.18,1.06,6.53,1.33.6-.52,2.09-.51,2.69-1,.1-.08-4.34-3.48-4.28-3.6a1,1,0,0,0-.06-.64A31.73,31.73,0,0,1,63.58,10.9" fill="#012739"/>
              <path id="Trazado_135332" data-name="Trazado 135332" d="M74.89,41l1.55-24.4h0a2.05,2.05,0,0,0-1.82-2.08L63.79,11.76c-3.47-.37-5.79,3.89-6,7.37a61.571,61.571,0,0,0,0,11.49c.91,5.81,5.36,6.56,5.36,6.56l.36,3.89s2.82-.49,4.9-.72C73.05,39.86,74.89,41,74.89,41Z" fill="#ffbf9d"/>
              <path id="Trazado_135333" data-name="Trazado 135333" d="M59.12,23.47a.73.73,0,0,0,.71.75.71.71,0,0,0,.77-.67.73.73,0,0,0-.71-.75.71.71,0,0,0-.77.67Z" fill="#012739"/>
              <path id="Trazado_135334" data-name="Trazado 135334" d="M59.13,21.77c.09.09.66-.32,1.46-.32s1.38.41,1.47.31-.05-.22-.3-.41A2.14,2.14,0,0,0,60.58,21a2,2,0,0,0-1.17.37C59.17,21.55,59.08,21.72,59.13,21.77Z" fill="#012739"/>
              <path id="Trazado_135335" data-name="Trazado 135335" d="M66.48,23.57a.73.73,0,0,0,.71.75.71.71,0,0,0,.77-.67.75.75,0,0,0-.72-.75.69.69,0,0,0-.76.67Z" fill="#012739"/>
              <path id="Trazado_135336" data-name="Trazado 135336" d="M67,21.77c.1.09.66-.32,1.46-.32s1.39.41,1.48.31,0-.22-.31-.41A2.09,2.09,0,0,0,68.45,21a1.92,1.92,0,0,0-1.16.37C67,21.55,67,21.72,67,21.77Z" fill="#012739"/>
              <path id="Trazado_135337" data-name="Trazado 135337" d="M64.08,27.7a5.11,5.11,0,0,0-1.3-.24c-.2,0-.4-.06-.43-.2a1,1,0,0,1,.14-.61c.19-.49.39-1,.61-1.55A27.09,27.09,0,0,0,64.46,21a26.82,26.82,0,0,0-1.69,4c-.2.54-.4,1.06-.58,1.56a1.22,1.22,0,0,0-.11.81.56.56,0,0,0,.34.3,1.08,1.08,0,0,0,.34,0A5.45,5.45,0,0,0,64.08,27.7Z" fill="#012739"/>
              <path id="Trazado_135338" data-name="Trazado 135338" d="M63.18,37.18a15.65,15.65,0,0,0,8.11-2.06A7.82,7.82,0,0,1,63.35,39Z" fill="#ff9a6c"/>
              <path id="Trazado_135339" data-name="Trazado 135339" d="M66.78,29.39a1.52,1.52,0,0,0-1-.57,1.67,1.67,0,0,0-1.49.62h0a.3.3,0,0,0,0,.35,1,1,0,0,0,.26.27,3.58,3.58,0,0,0,1.18.71,1.13,1.13,0,0,0,1.21-.31.94.94,0,0,0-.16-1.07Z" fill="#ff9a6c"/>
              <path id="Trazado_135340" data-name="Trazado 135340" d="M66.44,28.26c-.13,0-.14.86-.88,1.48s-1.67.51-1.68.63.21.17.6.19a2.19,2.19,0,0,0,1.4-.49,1.9,1.9,0,0,0,.68-1.24C66.59,28.47,66.5,28.25,66.44,28.26Z" fill="#012739"/>
              <path id="Trazado_135341" data-name="Trazado 135341" d="M66.51,18.9c.08.22.88.12,1.82.23s1.7.38,1.83.18-.08-.3-.39-.51a3,3,0,0,0-1.35-.47,2.93,2.93,0,0,0-1.42.16C66.65,18.63,66.48,18.8,66.51,18.9Z" fill="#012739"/>
              <path id="Trazado_135342" data-name="Trazado 135342" d="M59.12,19.22c.14.18.69,0,1.35,0s1.23.13,1.36-.06,0-.28-.28-.45a1.89,1.89,0,0,0-1.1-.3,1.87,1.87,0,0,0-1.08.36C59.13,18.94,59.06,19.13,59.12,19.22Z" fill="#012739"/>
              <path id="Trazado_135343" data-name="Trazado 135343" d="M54.22,42.24a1.38,1.38,0,0,1-.12-.34c-.07-.23-.15-.56-.25-1a18.67,18.67,0,0,1-.38-3.78,19.58,19.58,0,0,1,.81-5.59A60.428,60.428,0,0,0,56,24.87c.36-2.41.27-4.76.56-6.88a10.67,10.67,0,0,1,2-5.27,6.14,6.14,0,0,1,3.12-2.14,3.51,3.51,0,0,1,1.39-.15,7.89,7.89,0,0,0-1.36.25,6.23,6.23,0,0,0-3,2.17A10.53,10.53,0,0,0,56.87,18c-.28,2.09-.18,4.44-.54,6.88a56.849,56.849,0,0,1-1.8,6.68,20.52,20.52,0,0,0-.86,5.52A20.79,20.79,0,0,0,54,40.87c.08.44.15.79.2,1A1.56,1.56,0,0,1,54.22,42.24Z" fill="#375a64"/>
            </g>
            <path id="Trazado_135344" data-name="Trazado 135344" d="M62.16,11.37a1.36,1.36,0,0,1,.59-.81,8.26,8.26,0,0,1,6.3-1.44,14.8,14.8,0,0,1,6,2.62A10.89,10.89,0,0,1,79,15.94a14.4,14.4,0,0,1,.94,4c.45,3.34,1.35,6.7,1.32,10.07a42.061,42.061,0,0,1,0,5.15,5.59,5.59,0,0,1-3.62,4.23l-3.85.38S75.86,32.56,75.7,30c-.14-2.27-.12-4.75-.38-7a1.24,1.24,0,0,0-.13-.5,1.19,1.19,0,0,0-.53-.41l-2.4-1.23A21.7,21.7,0,0,1,70,19.56,20.74,20.74,0,0,1,67.73,18c-1-.89-2-1.6-3-2.49a12,12,0,0,1-1.89-2.25,3.1,3.1,0,0,1-.52-2.44" fill="#012739"/>
            <path id="Trazado_135345" data-name="Trazado 135345" d="M75.05,24.55a1.69,1.69,0,0,1,2.48-1.44,2.3,2.3,0,0,1,1,2.33c-.14,3.5-3.62,2.63-3.62,2.53S75,26,75.05,24.55Z" fill="#ffbf9d"/>
            <path id="Trazado_135346" data-name="Trazado 135346" d="M76,26.69s.06,0,.16.1a.61.61,0,0,0,.45,0,1.51,1.51,0,0,0,.76-1.32,2.09,2.09,0,0,0-.14-.88.71.71,0,0,0-.44-.49.3.3,0,0,0-.36.16c0,.09,0,.16,0,.17s-.08-.06,0-.21a.39.39,0,0,1,.14-.21.51.51,0,0,1,.35-.07.83.83,0,0,1,.61.56,2.13,2.13,0,0,1,.17,1,1.59,1.59,0,0,1-1,1.47.64.64,0,0,1-.55-.12C76,26.77,76,26.69,76,26.69Z" fill="#ff9a6c"/>
            <path id="Trazado_135347" data-name="Trazado 135347" d="M80.85,19a12.05,12.05,0,0,0-2.42-1.48,17.57,17.57,0,0,0-2.93-1c-1.13-.3-2.39-.57-3.69-1a19.1,19.1,0,0,1-6.14-3.22A15.869,15.869,0,0,1,64.1,11a3.879,3.879,0,0,1-.51-.58,3.79,3.79,0,0,1,.59.5c.36.33.91.79,1.61,1.32a20.3,20.3,0,0,0,6.1,3.12c1.29.4,2.54.67,3.68,1a17.39,17.39,0,0,1,2.94,1.05A8.22,8.22,0,0,1,80.3,18.5a3.459,3.459,0,0,1,.42.39C80.81,19,80.86,19,80.85,19Z" fill="#375a64"/>
            <path id="Trazado_135348" data-name="Trazado 135348" d="M79.36,14.52c1.34,4.32,3.52,8.28,4.86,11.4A24.559,24.559,0,0,1,86,30.61c.31,1.7-.42,3.4-.82,5.08s-.35,3.75,1.05,4.77a11.22,11.22,0,0,1-6.6,2.38,2.11,2.11,0,0,1-1.29-.28.82.82,0,0,1-.19-1.17,5.73,5.73,0,0,1-7.27.75c-.16-1.86-.28-3.89.75-5.45.84-1.28,2.35-2.08,2.91-3.51.33-.85-.11-1.92,0-2.82a4.4,4.4,0,0,1,1-2.22h0a4.44,4.44,0,0,0,4.72-3.27l.07-.28Z" fill="#012739"/>
            <path id="Trazado_135349" data-name="Trazado 135349" d="M78.51,39.55a2,2,0,0,1,.18-.35l.55-1a25.551,25.551,0,0,0,1.7-3.8,15.5,15.5,0,0,0,.87-6A10.78,10.78,0,0,0,79,21.59a20.07,20.07,0,0,0-6.31-4,46.431,46.431,0,0,1-5.56-2.76,13.26,13.26,0,0,1-3.21-2.68,9.269,9.269,0,0,1-.67-.92,2,2,0,0,1-.2-.35,10.541,10.541,0,0,0,1,1.19,13.89,13.89,0,0,0,3.23,2.59,50.31,50.31,0,0,0,5.56,2.69,20,20,0,0,1,6.41,4.07,11,11,0,0,1,2.88,7,15.41,15.41,0,0,1-1,6.13,23.17,23.17,0,0,1-1.79,3.78c-.25.43-.46.75-.6,1a1.36,1.36,0,0,1-.23.22Z" fill="#375a64"/>
          </g>
          <path id="Trazado_135350" data-name="Trazado 135350" d="M67.71,52.86a9.281,9.281,0,0,0,.56-1.69,7.9,7.9,0,0,0-2.36-7.75,16.2,16.2,0,0,0-1.4-1.1,1.6,1.6,0,0,1,.44.2,6.689,6.689,0,0,1,1.08.76,7.68,7.68,0,0,1,2.41,7.94A6.8,6.8,0,0,1,68,52.45C67.82,52.73,67.73,52.87,67.71,52.86Z" fill="#012739"/>
          <g id="Grupo_82963" data-name="Grupo 82963">
            <path id="Trazado_135351" data-name="Trazado 135351" d="M58.43,87.11l11.42.25a1,1,0,0,1,1,1c-.23,5.66-1.27,33.76,1.06,34.2,2.59.49,5.34-4.46,9.15-2.74s8.33,3.66,10.46,1.51,3.83-27.07-4.66-40.7l-27,1.55Z" fill="#32c4b4"/>
            <path id="Trazado_135352" data-name="Trazado 135352" d="M72.5,84a2.459,2.459,0,0,1-.56,0H70.42c-1.29,0-3.07,0-5,.13s-3.72.37-5,.57l-1.5.24a3.28,3.28,0,0,1-.56.07,2,2,0,0,1,.54-.17c.35-.09.86-.2,1.49-.32a42.38,42.38,0,0,1,5-.64,43.709,43.709,0,0,1,5-.06,12.316,12.316,0,0,1,1.53.12A2,2,0,0,1,72.5,84Z" fill="#012739"/>
            <path id="Trazado_135353" data-name="Trazado 135353" d="M78.25,87.18a4.878,4.878,0,0,1-.79-.12l-2.14-.39c-1.81-.31-4.33-.68-7.12-.9s-5.34-.25-7.17-.22H58.85a4.13,4.13,0,0,1-.8,0,4.751,4.751,0,0,1,.79-.1c.52,0,1.26-.09,2.18-.13a63.482,63.482,0,0,1,7.2.15,62.828,62.828,0,0,1,7.13,1c.9.18,1.63.34,2.13.47a5.229,5.229,0,0,1,.77.24Z" fill="#012739"/>
            <path id="Trazado_135354" data-name="Trazado 135354" d="M82.74,97.21a3.42,3.42,0,0,1,0,.73,17.358,17.358,0,0,1-.09,2c-.06,1.67-.1,4,0,6.55s.27,4.88.44,6.55l.22,2a3.63,3.63,0,0,1,0,.73,3.74,3.74,0,0,1-.15-.72c-.09-.46-.19-1.14-.3-2-.21-1.67-.43-4-.52-6.56s0-4.89.1-6.57c.06-.84.12-1.52.17-2a5,5,0,0,1,.13-.71Z" fill="#012739"/>
            <path id="Trazado_135355" data-name="Trazado 135355" d="M86.44,114.45c-.07,0-.54-5-1-11.25s-.87-11.26-.8-11.27.54,5,1,11.25S86.51,114.45,86.44,114.45Z" fill="#012739"/>
          </g>
          <g id="Grupo_82964" data-name="Grupo 82964">
            <path id="Trazado_135356" data-name="Trazado 135356" d="M48.87,58.74l-1,1.31-.36-6.67-6.72-2.27s-1.58,16.77-1.34,19.37c.26,2.84.32,3,1,4.28.92,1.66,4.13,2.82,6,2.33s3.8-3,5.27-4.47c2.67-2.72,6.78-7.87,6.78-7.87Z" fill="#ffbf9d"/>
            <path id="Trazado_135357" data-name="Trazado 135357" d="M48.87,58.74a8,8,0,0,1-.73,1.12c-.47.67-1.11,1.62-1.77,2.69s-1.22,2.06-1.62,2.78a6.91,6.91,0,0,1-.68,1.16,6.45,6.45,0,0,1,.52-1.24,30.721,30.721,0,0,1,1.56-2.84A32.168,32.168,0,0,1,48,59.75a6.67,6.67,0,0,1,.87-1.01Z" fill="#ff9a6c"/>
            <path id="Trazado_135358" data-name="Trazado 135358" d="M40.77,52l-2.62-1.48a5.2,5.2,0,0,1-2.28-3h0s7.64,3.42,8.25,3.73,3.5,1.48,3.41,2.67Z" fill="#ffbf9d"/>
          </g>
          <g id="Grupo_82965" data-name="Grupo 82965" opacity="0.2">
            <path id="Trazado_135359" data-name="Trazado 135359" d="M68.15,83.49c2.82-.07,5.65,0,8.48.13.57,0,1.31.26,1.29.83a.77.77,0,0,1-.57.64,2.26,2.26,0,0,1-.9,0l-7.53-.78a31.089,31.089,0,0,0-4.62-.23,29.72,29.72,0,0,0-5.52,1l-.1-.62S66.55,83.53,68.15,83.49Z"/>
          </g>
        </g>
      </g>
    </g>
  </g>
</svg>
