<svg xmlns="http://www.w3.org/2000/svg" width="795.214" height="537.859" viewBox="0 0 795.214 537.859">
  <g id="Capa_1" data-name="Capa 1" transform="translate(-231.508 -137.989)">
    <path id="Trazado_133888" data-name="Trazado 133888" d="M486.17,282.58c1.68-1.27,3.3-2.6,5-3.74s3.15-1,3.26,1.53c.38,8.39,1.08,16.7,4.13,24.6a1.74,1.74,0,0,1-1.13,2.41c-4.3-3.2-5-9.63-9.55-12.73-6.73,5.09-6.74,5.1-9.1-3.3A155.933,155.933,0,0,1,474.06,271a23.992,23.992,0,0,1-.39-3.77c0-1.27-.69-3.09,1.24-3.45,1.49-.28,2,1.24,2.49,2.36,1.74,3.63,3.36,7.33,5.17,10.92A16.78,16.78,0,0,0,486.17,282.58Zm5.45,0c-.8.44-1.23.63-1.61.9-4.19,2.87-5.22,2.7-8-1.54-1.2-1.85-2.28-3.77-3.41-5.66l-.63.28c1.48,6,3,12.05,4.5,18.25,2.55-1.34,3.65-3.8,6-4.54,1.25,1.48,2,3.47,4.2,4.31-.31-3.96-.67-7.71-1.05-12.01Z" fill="#4480bf"/>
    <path id="Trazado_133889" data-name="Trazado 133889" d="M718.07,267.92c-2-.78-3.94-1.45-5.82-2.33s-2.48-2.18-.4-3.59c6.95-4.71,13.66-9.66,18.8-16.39a1.73,1.73,0,0,1,2.64-.31c-.48,5.35-5.6,9.29-5.84,14.81,7.85,3.06,7.87,3.08,1.95,9.47a154.416,154.416,0,0,1-14.81,14.69,23.8,23.8,0,0,1-3,2.31c-1.09.65-2.27,2.21-3.59.76-1-1.13,0-2.33.7-3.37,2.19-3.38,4.48-6.7,6.6-10.12a16.741,16.741,0,0,0,2.77-5.93Zm-2.86-4.65c.79.46,1.18.72,1.61.91,4.64,2.06,5,3,2.87,7.61-.94,2-2,3.91-3,5.87l.57.39,13.19-13.4c-2.47-1.46-5.14-1.11-7-2.76.61-1.84,1.92-3.51,1.47-5.84Z" fill="#4480bf"/>
    <g id="Grupo_82612" data-name="Grupo 82612">
      <path id="Trazado_133890" data-name="Trazado 133890" d="M816.65,303.62c-2.61-1.19-5.48-1.27-7.46-3.38-1.23-1.31-1.82-3.17.1-3.42,4.52-.57,5.22-4.2,6.88-7.09.87-1.5,1.42-3.17,2.15-4.75.37-.79.84-1.58,1.93-1.46s1.4.91,1.8,1.75c2.5,5.2,5.05,10.37,7.57,15.56.57,1.18,1.42,2.4.5,3.7-1.12,1.58-2.32.21-3.54-.06-5.21-1.16-6.16-.53-6.63,4.92-.89,10.35-3.94,19.85-10,28.34-6.36,8.89-14.66,11.11-24.8,6.3a93.89,93.89,0,0,1-14.49-8.18c-1.06-.76-2.54-1.15-2.37-3,1.7-1.69,3.21-.24,4.67.6,3.52,2,6.9,4.28,10.48,6.16,11.74,6.15,19.26,4.05,25.64-7C814.37,323.43,816.53,315.26,816.65,303.62Z" fill="#4480bf"/>
      <path id="Trazado_133891" data-name="Trazado 133891" d="M512.32,236.49c-6.32,2.16-6.37,2.13-5.6-4.83.4-3.56-.4-7.67,4.33-10,2.55,3.86,7.23,6,9.24,10.21-1.4,2.26-3.7,1-5,3.25,5,9.22,9.18,19.33,13.62,29.33s9.18,19.57,12.81,29.77C528.83,276.45,522.28,255.63,512.32,236.49Z" fill="#4480bf"/>
      <path id="Trazado_133892" data-name="Trazado 133892" d="M510.19,421.08c-4.17,10.5-13,14.42-22.64,16.9-10,2.56-19.62-.81-29.48-2.07-1.86,4.43,4.81,7.6,1.54,12.06-3.9-1.73-11.2-13.91-10.81-17.59.18-1.72,1-2.81,2.74-2.84,5.09-.08,9.3-2.74,13.86-4.42,2.24-.83,5-2.82,6.88-.06s-1.24,4.29-3,5.94c-.74.71-1.58,1.31-3,2.49C483.55,437.83,497,430.82,510.19,421.08Z" fill="#4480bf"/>
      <path id="Trazado_133893" data-name="Trazado 133893" d="M647.41,454.39c-1.09,13.6-6.33,26.5-5.9,40.36,4.2,1.15,7.74-3,11.61-1.18.36,3.55-2,3.95-3.84,4.7-2.82,1.13-5.79,1.66-8.41,3.53s-5.13,1-7.12-1.45a16.44,16.44,0,0,1-4.06-10.81c0-2.46-1.05-5.56,1.57-7.09,3.14-1.84,3.51,2.62,5.67,3.74C639.89,475.16,640,463.56,647.41,454.39Z" fill="#4480bf"/>
      <path id="Trazado_133894" data-name="Trazado 133894" d="M779.68,407c11.4-1.47,22.81,3.63,34-.22.39-2.24-1.52-3.06-2.33-4.47-1-1.66-1.36-3.27.09-4.67s3-.94,4.47.3c2.43,2,5,3.9,7.33,6s3.67,4.72,2.25,7.87c-2.09,4.66-4.34,9.24-6.62,13.8-.89,1.8-2.2,3.59-4.45,2.25s-1.07-3.49-.36-5.22c1.19-2.89,2.54-5.71,4.36-9.79C804.58,413.78,791.48,415.53,779.68,407Z" fill="#4480bf"/>
      <g id="Grupo_82603" data-name="Grupo 82603">
        <path id="Trazado_133895" data-name="Trazado 133895" d="M733.22,545.61c.92,22.89,1.4,45.78,5,68.42C735.93,591.26,735.57,568.34,733.22,545.61Z" fill="#fff"/>
        <g id="Grupo_82602" data-name="Grupo 82602">
          <path id="Trazado_133896" data-name="Trazado 133896" d="M749.87,659.4c.4-9.43.45-19-.88-28.32-4.1-29-6.08-58.2-7.62-87.43-.22-4.2-1.94-5.08-5.21-4.35-8.3,1.87-16.77,1.76-25.15,2.12q-68.91,3-137.72,7.65A194.466,194.466,0,0,0,544.62,553v4.88c0,18.1-.13,36.2,0,54.29.11,17-.45,34,1.58,51,.33,2.71,3.81,7.32-2.5,8.4-.55.09-.4,1.94.3,3.12C612.18,666.74,680.83,664.31,749.87,659.4Z" fill="#02749e"/>
          <path id="Trazado_133897" data-name="Trazado 133897" d="M564.86,545.55c45.93-2.63,91.85-5.43,137.78-7.89C656.6,538.25,610.69,541.14,564.86,545.55Z" fill="#e77c4b"/>
          <path id="Trazado_133898" data-name="Trazado 133898" d="M753.64,637.05v21.09a74.347,74.347,0,0,0,0-21.09Z" fill="#e77c4b"/>
        </g>
        <path id="Trazado_133899" data-name="Trazado 133899" d="M542.81,555c1.76,3,1.41,5.72,2.17,8.41,1.2-1.3.89-2.78.77-4-.48-4.81.58-8.22,6.11-8.35-1.7-.09-3.4-.14-5.09-.26-1-.08-2-.37-2.09-1.6-.1-1.59,1.16-1.73,2.26-1.77,14.13-.47,28-3.59,42.09-4.35,26.54-1.43,53.05-3.46,79.6-4.65,21.49-1,43-1.09,64.52-1.5,4.32-.08,5.61,1.41,5.85,5.78,1.65,29.93,3,59.88,6.92,89.63.87,6.57.51,13.33.54,20,0,2.7-.3,5.34,3,6.71-1.84,1.94-3.87,3.29-3.59,6.45-11.94-6.18-24.27-3.28-36.26-3.62-32.52-.92-64.9,2-97.21,5.36-19.06,2-38,5.16-57,8-10.14,1.52-11.44.85-11-9.79,1-23,1.09-46-.15-69-.61-11.34-1.78-22.65-2.68-34C541.45,560.12,541.2,557.76,542.81,555ZM739.1,654.27a143.887,143.887,0,0,0-.81-26.25c-3.81-26.89-5.65-53.95-7.07-81-.2-3.89-1.8-4.71-4.83-4-7.69,1.73-15.54,1.63-23.32,2q-63.86,2.77-127.64,7.09a179.167,179.167,0,0,0-26.58,3.65v4.52c0,16.78-.13,33.55,0,50.33.1,15.76-.42,31.54,1.47,47.27.3,2.5,3.52,6.78-2.32,7.78-.51.09-.38,1.8.27,2.89C611.47,661.08,675.1,658.82,739.1,654.27ZM567.61,548.74c42.57-2.44,85.13-5,127.71-7.31C652.65,542,610.09,544.66,567.61,548.74Zm167.18-8.21c1,24.24,1.48,48.48,5.35,72.45-2.47-24.11-2.86-48.38-5.35-72.45Zm7.81,93v19.55a69.474,69.474,0,0,0,0-19.52Z" fill="#fff"/>
      </g>
      <g id="Grupo_82605" data-name="Grupo 82605">
        <g id="Grupo_82604" data-name="Grupo 82604">
          <path id="Trazado_133900" data-name="Trazado 133900" d="M343,155.65c-6.07.63-12.19.95-18.21,2-5.63.94-11.54,2.15-15,7.48-5.6,8.57-9.49,17.79-8.09,28.61.92,7.17,6.53,13.75,13.28,15.22a72.591,72.591,0,0,0,15.13,1.38c21.47.08,42.93-.49,64.38-.6,37.66-.19,75.24-1.53,112.69-5.77,9.22-1,17.82-3.63,24-11.65,2.41-3.12,3-7,4.58-10.39,5.28-11-2.88-25.62-15.38-26.33a31.081,31.081,0,0,1-4.09-.5c-9.66-1.87-19.33-3.89-29.15-4.13-11.62-.28-23.24-.71-34.86-1.16-3.45-.13-6.9,0-10.54,0,.8,1.32,2.39.53,2.73,1.89-.3.74-.88.57-1.37.53-13.83-1.19-27.67-.82-41.5.07-21,1.34-42.08,1.56-62.47,7.85-1.24.38-2.57.78-3.81-.5C337.62,157.42,340.63,157.35,343,155.65Z" fill="#276871"/>
          <path id="Trazado_133901" data-name="Trazado 133901" d="M301.47,181c-3.13,8.75-1.37,16.54,4.62,20.77-1.85-3.34-3.6-6.16-4.13-9.56S301.83,185.21,301.47,181Z" fill="#4b4f59"/>
        </g>
        <path id="Trazado_133902" data-name="Trazado 133902" d="M320.68,208.5c2.58-1.92,5-1.53,7.18-1.55,19.77-.21,39.53-.14,59.29.75,19,.86,38-.16,57.05-1,16.89-.77,33.75-2.34,50.68-2.14,10.08.12,20-1.55,30-2.39,5.39-.45,9.53-3.26,12.66-7.78,7.41-10.71,7-22.09,2.71-33.79a7.789,7.789,0,0,0-1.16-2,7,7,0,0,0-1.66-1.58c.83,2.56,2.23,4.9,2.15,7.74-.61,20.3-10.21,31.08-29.85,34.36-14.82,2.48-29.86,2.91-44.81,4.06-24.9,1.91-49.85,1.61-74.79,2.14-22.94.49-45.87.46-68.81.46a39.21,39.21,0,0,1-12.45-2.11c-11-3.66-16.13-12.57-13.59-24.24a76,76,0,0,1,8.32-21.24c.7-1.23,1.15-4.41,4-2.25.1.08.69-.42,1-.72,5-5.18,11.53-6.65,18.19-7.52,16-2.06,32.07-2,48-4.07,17.53-2.3,35.08-4.05,52.76-3.75,20.39.36,40.8.55,61.17,1.49a152,152,0,0,1,26.62,4c3.9.89,7.93,1,11.79,2.34,25.09,8.93,21.83,41.65,8.24,52.87-3.6,3-7.73,3.91-12.07,4.36-12,1.24-24,2.11-36,2.35-20.07.4-40.12,1.71-60.18,2.65-16.17.76-32.32.66-48.5-.07-17.21-.77-34.45-.83-51.68-.69a15,15,0,0,1-6.26-.68Zm22.2-59.79c-6.07.62-12.19.95-18.21,1.95-5.63.94-11.54,2.16-15,7.49-5.6,8.57-9.49,17.79-8.1,28.61.93,7.16,6.54,13.74,13.29,15.21A71.919,71.919,0,0,0,330,203.35c21.47.09,42.93-.49,64.38-.6C432,202.56,469.59,201.23,507,197c9.21-1,17.82-3.64,24-11.65,2.41-3.12,3-7,4.57-10.4,5.29-11-2.88-25.61-15.37-26.33a31.059,31.059,0,0,1-4.09-.49c-9.66-1.87-19.33-3.9-29.15-4.13-11.62-.29-23.24-.72-34.86-1.16-3.45-.13-6.9,0-10.54,0,.8,1.32,2.39.52,2.73,1.88-.3.74-.88.57-1.37.53-13.84-1.19-27.67-.82-41.5.07-21,1.35-42.08,1.57-62.47,7.85-1.24.38-2.57.79-3.81-.49,2.35-2.2,5.36-2.28,7.74-3.97Zm-44.18,28c-3.13,8.74-1.37,16.53,4.62,20.77-1.85-3.34-3.6-6.17-4.13-9.57s-.12-7.01-.49-11.22Z" fill="#fff"/>
      </g>
      <g id="Grupo_82607" data-name="Grupo 82607">
        <g id="Grupo_82606" data-name="Grupo 82606">
          <path id="Trazado_133903" data-name="Trazado 133903" d="M1023.3,432.67c-4.15-3.15-7.27-6.77-8.55-11.37-1.93-7-1.37-14-.79-21,.55-6.5,1.86,7,4.11.65a19.16,19.16,0,0,0,1.18-7.21c-.19-5.82-7.28-12-15.38-12-10.55,0-71.1.23-81.65.1-11.88-.14-23.76-.3-35.64-.26-4.05,0-8.38-.43-12.13.78-7.94,2.57-12.34,9-10.13,15.67,1.75,5.26,2.54,10.62,3.94,15.91,2.08,7.85,1.59-4.18,1,3.73-.42,6-3.66,11.15-9.49,15.08a16.33,16.33,0,0,1,3.41,6.51c2.66,8.49,2.33,17.15,1.53,25.73-.94,9.93-1.1-10.16-.14-.27.44,4.46,3.47,8,8.69,10.1C878,476.66,883,477,888,477c12.64,0,25.28-.18,37.93-.15,8.55,0,67.09.5,75.64-.18,10.44-.84,17.53-5.79,17.07-14.81-.08-1.53-.27-3.05-.27-4.58,0-14-1,1.92.31-12.12a26.878,26.878,0,0,1,4.62-12.49Z" fill="#0b3360"/>
          <path id="Trazado_133904" data-name="Trazado 133904" d="M863.29,467c1,7.3,4.58,10,13.2,10.16C869.81,475.5,865.91,472.2,863.29,467Z" fill="#3a8e9b"/>
          <path id="Trazado_133905" data-name="Trazado 133905" d="M1018.34,473.19l-10.55,4.17C1014.26,477.57,1016.53,476.64,1018.34,473.19Z" fill="#3a8e9b"/>
          <path id="Trazado_133906" data-name="Trazado 133906" d="M865.18,409c-.19-3-.26-6-2.54-9.25a33.792,33.792,0,0,0,2.54,9.25Z" fill="#3a8e9b"/>
        </g>
        <path id="Trazado_133907" data-name="Trazado 133907" d="M1026.64,429.23c-1.27.29-4.09,0-1.52,2.1.16.13-.13.72-.36,1-6.67,9.18-6.7,19.25-5.92,29.37.74,9.7.3-10.61.32-.91,0,1.91.12,3.82,0,5.72-.26,4.94-3.18,9.52-10.92,9.66-4.66.09-9.33.31-14,.15-17.12-.6-84.22-.28-101.33.1-6.74.15-13.51.53-20.3-.3-9.39-1.15-13.82-4.53-14.35-12.28a186.429,186.429,0,0,1,.34-22.67c.61-11.38.58,7.26-1.4-4.05-.43-2.43-1.4-4.59-4.3-5.87-1.21-.54-1.25-1.28-.22-2,10.35-7.48,12.66-17,11.66-27.7-.62-6.57-3.67,7.4-5.35,1.07a32,32,0,0,1-.69-15.67,6.911,6.911,0,0,1,2.27-3.89c.38-.31,1-.56.88-1.1-.29-2.24,1.82-3.09,3.74-3.85a47.73,47.73,0,0,1,18.37-3.51c24.15.35,98.3.5,122.44.79,5.93.07,11.8,4.41,13.71,9.31,2.09,5.37.9,10.62-.38,15.84-2.08,8.41-3.31-3.1-4,5.43s2.65,15.92,10.66,21.78a1.13,1.13,0,0,1,.65,1.48Zm-5.36,0c-4.14-3.16-7.27-6.77-8.55-11.37-1.93-7-1.37,6-.79-1a76.837,76.837,0,0,1,4.11-19.35,19.161,19.161,0,0,0,1.18-7.21c-.19-5.83-7.27-12-15.37-12-10.55,0-71.11.23-81.66.1-11.88-.15-23.76-.31-35.64-.27-4,0-8.38-.42-12.13.79-7.93,2.57-12.34,9-10.13,15.67,1.76,5.26,2.54,10.62,3.94,15.9,2.08,7.86,1.6-4.17,1,3.74-.42,5.95-3.66,11.15-9.49,15.08a16.33,16.33,0,0,1,3.41,6.51c2.66,8.49,2.34,17.14,1.53,25.73-.94,9.92-1.09-10.17-.13-.27.43,4.46,3.46,8,8.68,10.1,4.67,1.86,9.72,2.15,14.74,2.17,12.64.05,25.29-.18,37.93-.15,8.55,0,67.09.5,75.64-.18,10.45-.84,17.53-5.79,17.07-14.82-.08-1.52-.26-3-.26-4.57,0-14-1.06,1.92.3-12.12a27,27,0,0,1,4.62-12.51ZM860.8,464c1,7.3,4.58,10,13.2,10.16C867.32,472.5,863.42,469.2,860.8,464Zm155.05,6.2-10.55,4.17c6.47.2,8.7-.73,10.55-4.18ZM862.69,406c-.19-3-.26-6-2.54-9.25A33.79,33.79,0,0,0,862.69,406Z" fill="#fff"/>
      </g>
      <g id="Grupo_82609" data-name="Grupo 82609">
        <g id="Grupo_82608" data-name="Grupo 82608">
          <path id="Trazado_133908" data-name="Trazado 133908" d="M424.26,438.16c0-8.05-2.11-13.62-6.43-17.53-6.75-6.09-13.42-12.47-21.39-16.88C384.26,397,372,390.39,359.58,384.09c-21.29-10.8-43.78-17.95-66.81-23.57-5-1.23-8.41.28-11.87,3.71-12.51,12.41-18.77,28.73-26,44.42a238,238,0,0,0-14,39.94c-1.41,5.52-.81,9.24,3,12.92,7.45,7.14,16,12.51,25.07,17.08,29.88,15.05,59.07,31.58,89.64,45.17a101.314,101.314,0,0,0,12.47,4.71c2.61.77,4.1.1,5.6-2.07,9.29-13.44,20.66-25.31,27.11-40.88,2.7-6.52,7-12.34,10.67-18.4A72.659,72.659,0,0,0,424.26,438.16Z" fill="#024e73"/>
          <path id="Trazado_133909" data-name="Trazado 133909" d="M336.75,368.68l-.24.91a22.163,22.163,0,0,0,2.43,1.23c17.19,6.15,32.89,15.61,49.18,23.77,11.35,5.69,21.22,13.57,30.94,21.73a24.3,24.3,0,0,1,4.56,5.5c4,6.16,4.86,13,3.78,21.15,5.45-10.75,2.76-20.9-3.71-27.09a93.9,93.9,0,0,0-8.89-7.27c-15.69-11.75-32.83-20.91-50.39-29.14C355.45,375.27,346,372.24,336.75,368.68Z" fill="#3a8e9b"/>
          <path id="Trazado_133910" data-name="Trazado 133910" d="M322.14,509.09c-23.73-13.28-48.51-24.41-72.23-37.72C273.81,484.32,295.82,501,322.14,509.09Z" fill="#3a8e9b"/>
          <path id="Trazado_133911" data-name="Trazado 133911" d="M257.61,394.44c7.19-11.7,11.75-25.26,23.91-34.66a10.83,10.83,0,0,0-8.8,4.33C265.33,372.94,261.36,383.59,257.61,394.44Z" fill="#3a8e9b"/>
          <path id="Trazado_133912" data-name="Trazado 133912" d="M404.74,489.89c-5.8,13.71-16,24.34-23.52,36.89C390.17,515.25,399.5,504,404.74,489.89Z" fill="#3a8e9b"/>
        </g>
        <path id="Trazado_133913" data-name="Trazado 133913" d="M253.45,379.39c-3.82-2-4.24-4.8,1.19-3.68,1.4.29,1.78-1.78,2.29-2.95a67.68,67.68,0,0,1,12.52-19,9.35,9.35,0,0,1,6.06-3.24,48.722,48.722,0,0,1,11.7,0c35.33,4.22,68.2,16.05,99.36,33.65a227.21,227.21,0,0,1,34,23c8.81,7.35,13,21.58,7.85,31.76-2.4,4.79-5.46,9.4-8.29,14.05a56.73,56.73,0,0,0-7,15.85c7.8,6.11-2.32,4-3.6,6.94A206.468,206.468,0,0,1,384.32,519c-5.72,7.61-10.55,9.82-19.27,6.55-18.74-7-37.41-14.18-56.08-21.38-20.6-7.95-38.47-21.08-58.06-30.87a42.57,42.57,0,0,1-17.95-17c-.75-1.3-1.56-2.61-1.44-4.13.6-7.52,1.39-14.94,3.66-22.25,5.13-16.5,12.57-32,17.93-48.42a13,13,0,0,0,.34-2.11Zm167.68,53.12c0-8.05-2.12-13.62-6.44-17.52-6.74-6.1-13.42-12.48-21.38-16.89-12.19-6.75-24.46-13.36-36.87-19.65-21.28-10.81-43.78-18-66.8-23.58-5.05-1.23-8.42.28-11.87,3.71C265.26,371,259,387.31,251.8,403a236.25,236.25,0,0,0-14,39.94c-1.42,5.52-.81,9.24,3,12.92,7.45,7.14,16,12.51,25.06,17.08C295.79,488,325,504.52,355.55,518.11A100.767,100.767,0,0,0,368,522.83c2.61.76,4.1.09,5.6-2.08,9.28-13.44,20.66-25.31,27.11-40.88,2.69-6.52,7-12.34,10.66-18.4a72.53,72.53,0,0,0,9.76-28.96Zm-88-69-.24.9a19.782,19.782,0,0,0,2.43,1.23c17.19,6.15,32.89,15.61,49.17,23.77,11.35,5.69,21.23,13.57,30.94,21.73a24.349,24.349,0,0,1,4.56,5.51c4,6.16,4.86,13,3.78,21.14,5.45-10.75,2.77-20.9-3.7-27.09a96.835,96.835,0,0,0-8.9-7.26c-15.69-11.76-32.82-20.92-50.39-29.15-8.93-4.19-18.4-7.22-27.63-10.78ZM318.54,503.92c-23.73-13.28-48.52-24.42-72.23-37.73C270.2,479.14,292.22,495.86,318.54,503.92ZM254,389.27c7.2-11.7,11.76-25.27,23.91-34.66a10.86,10.86,0,0,0-8.8,4.33C261.72,367.76,257.75,378.41,254,389.27Zm147.14,95.45c-5.81,13.7-16,24.34-23.52,36.88,8.95-11.52,18.27-22.77,23.52-36.88Z" fill="#fff"/>
      </g>
      <g id="Grupo_82611" data-name="Grupo 82611">
        <g id="Grupo_82610" data-name="Grupo 82610">
          <path id="Trazado_133914" data-name="Trazado 133914" d="M844.07,262a63.773,63.773,0,0,0,9.86-.61c15.14-2.12,26.93-9.31,35.14-23.09,7-11.8,10-24.64,11.25-38.16.33-3.72,1.35-7.55-.21-11.15-4.72-10.92-11.44-20-22.49-24.72-14.87-6.32-29.94-10.08-46.48-8.34-14.4,1.52-24.46,9.63-32.9,19.91-4.67,5.69-7.77,13.41-9.25,21.3a90.882,90.882,0,0,0-1.4,24.06c1.45,18.82,12.93,33.64,30.64,38.15C826.72,261.53,835.42,261.57,844.07,262Z" fill="#3a8e9b"/>
          <path id="Trazado_133915" data-name="Trazado 133915" d="M808.69,255.51c.47.41.93.84,1.43,1.21,6.85,5.1,14.68,7.67,22.83,9.23,10.84,2.07,21.83,3.92,32.58.08,22.36-8,35.48-24.3,39.37-48.52.47-2.91.88-5.85,1.07-8.8s0-5.67,0-8.82c-1.09.91-.84,1.77-.94,2.51-1.12,8-2.42,16-5.51,23.49-10.37,25.32-27.29,36.7-53.79,36C833.16,261.58,820.54,261.26,808.69,255.51Z" fill="#3a8e9b"/>
          <path id="Trazado_133916" data-name="Trazado 133916" d="M800.57,169.1a89.68,89.68,0,0,1,14-12c3.2-2.24,6.5-4.45,10.38-5,6.31-.87,12.64-1.62,19-2.05,10.21-.7,19.68,2.8,29.23,5.91s18,7.72,24.36,16c.08.1.33,0,.91.11-4-6.18-7.88-12.22-14.09-15.75-15.92-9-32.62-13.86-51-9.65C819.68,149.85,808.64,157.08,800.57,169.1Z" fill="#3a8e9b"/>
        </g>
        <path id="Trazado_133917" data-name="Trazado 133917" d="M905.81,200.19c-.65,14.89-3.08,29.45-12.1,41.53-13.46,18-31.14,27-53.54,24.12-7.32-.92-14.65-2-21.56-4.73-21.29-8.46-33.05-24.81-35.91-48.07a72.46,72.46,0,0,1,.95-25.51C789,164.91,808.14,138.58,843,138c14.42-.26,27.54,4.17,39.46,11.53,11.29,7,18.5,17.86,20.71,31.84C904.11,187.59,906.41,193.65,905.81,200.19Zm-62,54.7a62.552,62.552,0,0,0,9.86-.6c15.14-2.12,26.93-9.31,35.14-23.09,7-11.81,10-24.65,11.25-38.17.33-3.71,1.35-7.55-.21-11.15-4.72-10.92-11.44-20-22.49-24.72-14.87-6.31-29.94-10.08-46.48-8.33-14.4,1.52-24.46,9.63-32.9,19.91-4.67,5.68-7.77,13.4-9.25,21.29a90.575,90.575,0,0,0-1.4,24.07c1.45,18.81,12.93,33.63,30.63,38.15,8.52,2.16,17.22,2.2,25.87,2.64Zm-38-3.86c.47.41.93.84,1.43,1.22,6.85,5.09,14.68,7.66,22.83,9.22,10.84,2.07,21.83,3.92,32.58.08,22.36-8,35.48-24.3,39.37-48.51.47-2.92.88-5.86,1.07-8.8s0-5.68,0-8.83c-1.09.91-.84,1.77-.94,2.51-1.12,8-2.42,16-5.5,23.49-10.38,25.32-27.3,36.7-53.8,36-12.57-.3-25.19-.63-37.04-6.41Zm-8.12-86.4a89.208,89.208,0,0,1,14-12c3.2-2.24,6.5-4.45,10.38-5,6.31-.87,12.64-1.61,19-2,10.21-.7,19.68,2.8,29.23,5.91s18,7.72,24.37,16c.07.1.32.05.9.11-4-6.17-7.87-12.22-14.09-15.75-15.91-9-32.61-13.86-51-9.65A51.938,51.938,0,0,0,797.69,164.63Z" fill="#fff"/>
      </g>
      <path id="Trazado_133918" data-name="Trazado 133918" d="M566.14,407.13s-57.21-10.5-50.21-52.39S551.14,317,551.14,317s8.76-18,17.14-23.37c14.7-9.39,27.43-2.7,27.43-2.7s17-16.09,31.23-16.14c24.92-.07,27.76,12.59,27.76,12.59a43.55,43.55,0,0,1,23.2,0c11,3.25,19.7,15.29,19.7,15.29s17.37-2,32.68,13.18c10.49,10.41,7.8,24.85,7.8,24.85s21.39,17.88,12.81,38.5c-8.17,19.6-17.53,18.36-17.53,18.36s2.66,19.41-7.68,30c-11.9,12.23-22.41,10.19-22.41,10.19s-.11,35.21-11.48,31.35-16.54-31-22.6-30.81-19.32,3-25.5,1.4c-6.85-1.77-23.9-15.15-23.9-15.15s-20.77,10.7-34.12.92-18.4-24.67-18.4-24.67" fill="#4480bf"/>
      <path id="Trazado_133919" data-name="Trazado 133919" d="M742.34,338.79a51.714,51.714,0,0,1,5.95,5.61,49.219,49.219,0,0,1,9.58,14.37,26.6,26.6,0,0,1,.76,19.61,50.5,50.5,0,0,1-6.09,11.53,24.861,24.861,0,0,1-5.54,5.81,11.729,11.729,0,0,1-4.59,2.17L742,398c-.44.09.14,0,0,0a5.64,5.64,0,0,1-.58,0,3,3,0,0,1-.52,0c-1.09-.14-1.56,1.06-1.45,1.9-.11-.85,0-.09,0,.1,0,.42.08.85.11,1.27.11,1.48.16,3,.16,4.44A49.319,49.319,0,0,1,737.94,419a28.59,28.59,0,0,1-8.13,13.46,33.58,33.58,0,0,1-14.35,8.31,20.86,20.86,0,0,1-5,.66,11.092,11.092,0,0,1-1.41-.06c-.62,0,.2.05-.19,0a1.52,1.52,0,0,0-1.9,1.45,106.754,106.754,0,0,1-1.68,18.8c-.73,3.91-1.64,8.12-3.89,11.46a7.56,7.56,0,0,1-1.38,1.51,4.42,4.42,0,0,1-1.41.69,3.31,3.31,0,0,1-1.64-.06,8.71,8.71,0,0,1-2.51-1.17c-4.15-2.67-6.78-7.55-9-11.79-2.43-4.65-4.42-9.52-7-14.12a18.91,18.91,0,0,0-3.24-4.63,5.26,5.26,0,0,0-4.39-1.56c-6.76.41-13.43,1.71-20.2,1.87a26.769,26.769,0,0,1-9.36-1.32,43.751,43.751,0,0,1-9.84-4.86,57.82,57.82,0,0,1-11.2-9.5l-.52-.59a1.52,1.52,0,0,0-1.82-.23,46.71,46.71,0,0,1-22.75,5.17,24.361,24.361,0,0,1-8.41-1.87,29.669,29.669,0,0,1-8.19-5.78,59,59,0,0,1-11.06-14,47.521,47.521,0,0,1-3.86-8.12c-.62-1.81-3.52-1-2.9.8a59.36,59.36,0,0,0,14.3,22.16,40.239,40.239,0,0,0,8.37,6.68,25.4,25.4,0,0,0,8.93,2.9,42.54,42.54,0,0,0,17.4-1.61,53.279,53.279,0,0,0,9.69-3.69l-1.82-.24a53.731,53.731,0,0,0,8.36,7.73c5.58,4.3,12.33,8.23,19.43,9.19,6.92.94,14.14-.47,21-1.23,1.47-.16,2.95-.32,4.43-.41l.94-.05h.21a.889.889,0,0,1,.46.2,1.829,1.829,0,0,1,.51.38,12.468,12.468,0,0,1,.86.92,19,19,0,0,1,1.44,2.17c2.7,4.55,4.66,9.51,7.07,14.22s5.12,9.64,9.31,12.93c3.1,2.44,7.15,3.78,10.47,1,3-2.53,4.32-6.9,5.24-10.57a87,87,0,0,0,2.13-14,70.858,70.858,0,0,0,.45-8.86v-.46l-1.9,1.45a18.32,18.32,0,0,0,6.56-.23,33.6,33.6,0,0,0,14.58-7.1A32.63,32.63,0,0,0,740,422.33a47.879,47.879,0,0,0,2.62-14.82,49.122,49.122,0,0,0-.35-8.4l-1.44,1.9c2.13.27,4.59-.82,6.36-1.85,5.83-3.41,9.68-9.72,12.47-15.67a33.21,33.21,0,0,0,3.46-11.78,29.259,29.259,0,0,0-1.23-10.52,47.31,47.31,0,0,0-9.63-16.81,54.21,54.21,0,0,0-7.81-7.71c-1.51-1.18-3.64.93-2.12,2.12Z" fill="#fff"/>
      <path id="Trazado_133920" data-name="Trazado 133920" d="M741.12,335a51.246,51.246,0,0,1,5.87,5.54,49.441,49.441,0,0,1,9.58,14.26,26.7,26.7,0,0,1,1,19.47,73.407,73.407,0,0,1-5.89,12.21,52.283,52.283,0,0,1-5.4,7.71,32.156,32.156,0,0,1-2.49,2.6q-.51.48-1,.93a7.32,7.32,0,0,1-.69.55,13.389,13.389,0,0,1-1.31.86c-.18.1-.91.43-.14.1a1.55,1.55,0,0,0-1.1,1.45,35.659,35.659,0,0,1-3.24,17.57,35.191,35.191,0,0,1-11,13.25,30.541,30.541,0,0,1-12.13,5.71,19.171,19.171,0,0,1-4.07.39,7.485,7.485,0,0,1-1.25-.07c-.42-.07.33.07-.08,0a1.52,1.52,0,0,0-1.9,1.45,108.056,108.056,0,0,1-1.58,18.23c-.69,3.89-1.55,8.06-3.63,11.46a7.5,7.5,0,0,1-1.31,1.69,4.159,4.159,0,0,1-.63.52l-.4.25c-.08.05-.52.23-.25.13a2.68,2.68,0,0,1-1.72.22c.28,0-.18,0-.26-.05a5,5,0,0,1-.52-.14,7.463,7.463,0,0,1-1.3-.55c-4.18-2.2-6.87-6.76-9.07-10.75-2.55-4.63-4.59-9.51-7-14.21-1.38-2.68-3.34-7-6.67-7.64a11.689,11.689,0,0,0-3.34.09c-1.55.13-3.09.31-4.63.49-3.52.41-7,.84-10.58,1.09a34.659,34.659,0,0,1-8.93-.12,48,48,0,0,1-11.11-3.74,54.439,54.439,0,0,1-12.6-7.95l-.58-.52a1.49,1.49,0,0,0-1.46-.38,55,55,0,0,1-23.49,2.31,28.17,28.17,0,0,1-16.72-7.79,58.558,58.558,0,0,1-11.64-14.48,47.487,47.487,0,0,1-4-8.35c-.62-1.82-3.52-1-2.9.8a49.908,49.908,0,0,0,3.45,7.55A62.743,62.743,0,0,0,574.13,422a40.78,40.78,0,0,0,8.49,6.66,31.448,31.448,0,0,0,8.86,3.2,52.681,52.681,0,0,0,17.89.23,57.908,57.908,0,0,0,9.74-2.11l-1.46-.39a48.862,48.862,0,0,0,9.12,6.52c6.12,3.54,13.31,6.64,20.48,6.82,6.93.18,13.81-1.12,20.69-1.74.66-.06,1.31-.11,2-.15h.92c.17,0,.41.14.23.06s.17.1.22.13.45.31.21.12c.14.11.27.23.4.35a17.5,17.5,0,0,1,3,4.47c2.53,4.69,4.56,9.63,7.07,14.34,2.39,4.49,5.25,9.25,9.57,12.14,3.18,2.12,7,2.6,9.86-.25s4-7.05,4.92-10.78a92.4,92.4,0,0,0,2-13.55,70.323,70.323,0,0,0,.43-8.7v-.42l-1.9,1.44a16.71,16.71,0,0,0,5.51-.06,30.611,30.611,0,0,0,12.38-4.9,36.94,36.94,0,0,0,17.34-27,34.339,34.339,0,0,0,.36-7.78l-1.1,1.45a18,18,0,0,0,5.7-4.39c5.13-5.34,8.78-12.06,11.75-18.78A32.35,32.35,0,0,0,762,367.26a29.561,29.561,0,0,0-1.4-10.31,48,48,0,0,0-9.6-16.48,54.062,54.062,0,0,0-7.73-7.62c-1.51-1.17-3.64.94-2.12,2.12Z" fill="#fff"/>
      <path id="Trazado_133921" data-name="Trazado 133921" d="M656.64,282.47a42.67,42.67,0,0,1,20.36-.93,31.55,31.55,0,0,1,12.29,5.21,51.617,51.617,0,0,1,8.22,7.26c1,1,1.88,2.08,2.77,3.16l.39.5.15.19.28.36a1.47,1.47,0,0,0,1.29.74c6.31-.72,13.23,1,19,3.46a46.25,46.25,0,0,1,16.48,11.75,28.7,28.7,0,0,1,6.6,15,34.146,34.146,0,0,1,.24,6.47,17.193,17.193,0,0,1-.16,1.9v.39c-.35,1.89,2.54,2.7,2.89.8a33.09,33.09,0,0,0-5.25-24,47.13,47.13,0,0,0-16.59-13.62,48,48,0,0,0-15.32-4.83,32.581,32.581,0,0,0-7.89-.32l1.3.75a56.09,56.09,0,0,0-11.63-11.65,34,34,0,0,0-11.9-5.88A46.541,46.541,0,0,0,664,278.06a41.329,41.329,0,0,0-8.19,1.51c-1.84.59-1.05,3.48.79,2.9Z" fill="#fff"/>
      <path id="Trazado_133922" data-name="Trazado 133922" d="M656.64,282.47a42.67,42.67,0,0,1,20.36-.93,31.55,31.55,0,0,1,12.29,5.21,51.617,51.617,0,0,1,8.22,7.26c1,1,1.88,2.08,2.77,3.16l.39.5.15.19.28.36a1.47,1.47,0,0,0,1.29.74c6.16-.7,12.88,1,18.52,3.27a45.561,45.561,0,0,1,16.41,11.37,17.22,17.22,0,0,1,3.92,14.75A24.49,24.49,0,0,1,738,337c-1,1.64,1.56,3.14,2.59,1.51,4.43-7,5.53-16.89,1-24.08a32,32,0,0,0-7.57-7.82,50.813,50.813,0,0,0-8.8-5.64,48.63,48.63,0,0,0-15.2-4.69,31.939,31.939,0,0,0-7.69-.29l1.3.75A56.09,56.09,0,0,0,692,285.09a34,34,0,0,0-11.9-5.88,46.54,46.54,0,0,0-16.1-1.15,41.329,41.329,0,0,0-8.19,1.51c-1.84.59-1.05,3.48.79,2.9Z" fill="#fff"/>
      <path id="Trazado_133923" data-name="Trazado 133923" d="M546.18,313.64A98.481,98.481,0,0,1,557,296a41.884,41.884,0,0,1,4.67-5.11,26.391,26.391,0,0,1,7-4.35,29.83,29.83,0,0,1,16.08-2.48,27.8,27.8,0,0,1,5.53,1.31l.84.31.35.14c.29.11-.27-.13.11.05l.53.24a1.54,1.54,0,0,0,1.82-.23,80.712,80.712,0,0,1,8.41-6.81c5.65-4,11.88-7.74,18.68-9.4a33.31,33.31,0,0,1,11.31-.42,39,39,0,0,1,10.05,2.38,26,26,0,0,1,11,8,22.391,22.391,0,0,1,2.46,4.1c0,.06.2.47.1.22s0,.12.07.19a2.844,2.844,0,0,1,.2.52l.15.48a1.5,1.5,0,0,0,2.89-.8,18,18,0,0,0-2.64-5.34,27.59,27.59,0,0,0-10.81-9.14,37.64,37.64,0,0,0-9.88-3.12,41.861,41.861,0,0,0-12.18-.59c-7.39.92-14.29,4.55-20.41,8.63a86.692,86.692,0,0,0-11.5,9l1.82-.24c-6.83-3.56-15.8-3.38-22.92-1A31.85,31.85,0,0,0,556.47,292a84.06,84.06,0,0,0-8.57,12.25c-1.53,2.58-3,5.2-4.31,7.9-.84,1.73,1.74,3.25,2.59,1.52Z" fill="#fff"/>
      <path id="Trazado_133924" data-name="Trazado 133924" d="M561.41,408.32a91.533,91.533,0,0,1-15.73-4.62c-10.07-3.81-19.95-9.21-27.37-17.14a38.52,38.52,0,0,1-8.78-14.7c-2.11-6.73-1.95-13.71-.6-20.58,2.58-13.06,8.63-26.45,21.14-32.59a31.44,31.44,0,0,1,17.54-3.05h-.05c1.88.33,2.7-2.56.79-2.89A32.61,32.61,0,0,0,532,314.64c-12.46,4.62-20.19,15.84-24,28.19-2.41,7.82-3.81,16.16-2.58,24.33a38.88,38.88,0,0,0,7.23,17.19c6.95,9.41,17.19,15.89,27.81,20.43a97,97,0,0,0,19.88,6.37l.32.06c1.89.35,2.7-2.54.8-2.89Z" fill="#fff"/>
      <path id="Trazado_133925" data-name="Trazado 133925" d="M559.16,404.33c-.37-.05.5.07.05,0l-.89-.13c-1.1-.18-2.19-.38-3.28-.6a98.947,98.947,0,0,1-10.82-2.84c-9.66-3.13-19.24-7.83-26.38-15.2a35,35,0,0,1-8.44-14c-2-6.59-1.8-13.45-.5-20.16,2.33-12,7.71-25.74,19.86-30.5a25.15,25.15,0,0,1,10.67-1.76c.7,0,1.4.08,2.1.15l.46.06c.44.05-.22,0,.13,0l.84.14c.73.13,1.44.31,2.16.48l.29.09c1.83.6,2.62-2.3.79-2.9a28.3,28.3,0,0,0-15.46-.08c-12.35,3.3-19.5,14.64-23,26.25-2.3,7.7-3.65,15.9-2.44,23.91a36.48,36.48,0,0,0,7,16.43c6.8,9,16.9,14.76,27.3,18.63a91,91,0,0,0,18.86,4.91l.68.09c1.91.23,1.89-2.77,0-3Z" fill="#fff"/>
      <text id="Implementación" transform="translate(341.65 183.2)" fill="#fff" font-size="19" font-family="GloriaHallelujah, Gloria Hallelujah"><tspan x="0" y="0">Implementación</tspan></text>
      <text id="Análisis" transform="translate(810.95 210.51)" fill="#fff" font-size="19" font-family="GloriaHallelujah, Gloria Hallelujah"><tspan x="0" y="0">Análisis</tspan></text>
      <text id="Diseño" transform="translate(907.4 427.51)" fill="#fff" font-size="19" font-family="GloriaHallelujah, Gloria Hallelujah"><tspan x="0" y="0">Diseño</tspan></text>
      <text id="Verificación" transform="translate(591.84 600.28)" fill="#fff" font-size="19" font-family="GloriaHallelujah, Gloria Hallelujah"><tspan x="0" y="0">Verificación</tspan></text>
      <g id="Grupo">
        <text id="Funcionamiento_y_" data-name="Funcionamiento y " transform="matrix(0.94, 0.342, -0.342, 0.94, 258.31, 409.9)" fill="#fff" font-size="19" font-family="GloriaHallelujah, Gloria Hallelujah"><tspan x="0" y="0">Funcionamiento y </tspan></text>
        <text id="mantenimiento" transform="matrix(0.94, 0.342, -0.342, 0.94, 258.264, 434.147)" fill="#fff" font-size="19" font-family="GloriaHallelujah, Gloria Hallelujah"><tspan x="0" y="0">mantenimiento</tspan></text>
      </g>
      <text id="CASCADA" transform="translate(582.39 364.7)" fill="#fff" font-size="30" font-family="GloriaHallelujah, Gloria Hallelujah"><tspan x="0" y="0">CASCADA</tspan></text>
    </g>
  </g>
</svg>
